# This file uses centimeters as units for non-parametric coordinates.

v -98.818143 36.292360 -297.444528
v -97.613635 36.292360 -297.444528
v -98.818143 36.292360 -298.649034
v -97.603225 37.545117 -297.464117
v -98.828553 37.750685 -298.629445
v -98.861289 38.562909 -298.406170
v -97.570489 38.351497 -297.687393
v -97.448416 40.118813 -297.588708
v -97.773812 40.643306 -298.765383
v -98.544919 40.594773 -298.512479
v -98.657967 40.410084 -297.328179
v -97.436749 40.905034 -298.034588
v -97.797693 40.927054 -297.372269
v -97.103535 43.342077 -298.766286
v -97.959319 43.289578 -299.070127
v -97.519819 40.860782 -298.769470
v -97.881813 41.125197 -298.999975
v -98.593843 41.200942 -298.687232
v -98.657774 43.342077 -296.934427
v -98.216051 40.922271 -297.250660
v -98.817666 40.939255 -297.754197
v -98.989532 43.409750 -298.346044
v -99.350165 42.754830 -298.449217
v -98.912668 42.876256 -299.100638
v -98.507988 43.342679 -298.899802
v -99.229895 42.879238 -297.633655
v -98.993043 43.342077 -297.269695
v -97.019313 42.890482 -297.553835
v -96.987940 43.363354 -297.941353
v -97.866204 43.347378 -297.074267
v -97.455978 42.872299 -297.029053
v -98.808044 37.673168 -297.685817
v -98.805435 36.758204 -297.432154
v -98.546116 37.629225 -297.436714
v -98.648302 38.479134 -297.641836
v -98.333379 38.427555 -297.466471
v -98.589865 39.588546 -297.386380
v -97.613635 36.292360 -298.355666
v -97.907003 36.292360 -298.649034
v -97.627072 37.979739 -298.397997
v -97.851786 37.344400 -298.661507
v -97.841675 39.286208 -298.707386
v -97.773895 38.431503 -298.417345
v -98.132716 38.490272 -298.617153
v -96.860049 41.922850 -297.703801
v -97.841191 42.147544 -297.000763
v -98.465134 42.286773 -297.072340
vt 0.276468 0.322073
vt 0.251903 0.228342
vt 0.347806 0.203732
vt 0.383066 0.302999
vt 0.146449 0.087612
vt 0.199540 0.018246
vt 0.239048 0.014253
vt 0.305382 0.071876
vt 0.227351 0.127020
vt 0.113622 0.229233
vt 0.212184 0.232901
vt 0.226529 0.329323
vt 0.123186 0.331182
vt 0.229245 0.153788
vt 0.245015 0.589233
vt 0.397666 0.545749
vt 0.566893 0.603675
vt 0.549208 0.645650
vt 0.594539 -0.018959
vt 0.351543 0.657735
vt 0.293776 0.658396
vt 0.096405 0.609904
vt 0.195021 0.661490
vt 0.084988 0.687841
vt 0.245841 0.883495
vt 0.338352 0.874825
vt 0.290734 0.926658
vt 0.455042 0.651157
vt 0.247969 0.481725
vt 0.219480 0.876822
vt 0.194035 0.849810
vt 0.693722 0.651593
vt 0.752694 0.850409
vt 0.716355 0.917714
vt 0.150546 0.900408
vt 0.648449 0.914600
vt 0.133634 0.847424
vt 0.116588 0.939802
vt 0.071288 0.873296
vt 0.264162 1.013099
vt 0.192068 1.041632
vt 0.128042 0.986273
vt 0.600704 0.667119
vt 0.634027 0.168832
vt 0.492792 0.297372
vt 0.542587 0.413104
vt 0.677299 0.569506
vt 0.556803 0.292994
vt 0.664279 0.279662
vt 0.406766 0.880731
vt 0.469883 0.235858
vt 0.494555 0.146055
vt 0.544042 0.934606
vt 0.440656 0.937926
vt 0.468367 0.011776
vt 0.413668 0.029934
vt 0.429940 0.783231
vt 0.319035 0.798314
vt 0.266057 0.802046
vn 0.204573 -0.004751 0.978840
vn 0.055447 0.037889 0.997742
vn 0.705392 0.037285 0.707836
vn 0.859516 -0.017247 0.510818
vn 0.000000 -1.000000 0.000000
vn 0.000000 -1.000000 0.000000
vn 0.000000 -1.000000 0.000000
vn 0.000000 -1.000000 0.000000
vn 0.000000 -1.000000 0.000000
vn -0.782471 0.055450 -0.620214
vn -0.998773 0.015637 0.046980
vn -0.992795 0.063140 0.101842
vn -0.860554 0.060576 -0.505745
vn 0.016840 0.001897 0.999856
vn 0.016840 0.001897 0.999856
vn 0.016840 0.001897 0.999856
vn -0.804662 0.003175 -0.593725
vn -0.999911 0.001618 0.013230
vn -0.999911 0.001618 0.013230
vn 0.953813 -0.072013 -0.291643
vn 0.948120 -0.126723 -0.291565
vn 0.788972 -0.204662 -0.579341
vn 0.909612 -0.255612 -0.327520
vn -0.694267 -0.014760 0.719567
vn 0.215975 -0.073164 0.973654
vn 0.437239 -0.268914 0.858200
vn 0.104958 -0.216844 0.970547
vn -0.798350 -0.070950 -0.597999
vn -0.927959 -0.267409 0.259583
vn -0.946843 -0.304138 -0.104828
vn -0.383250 -0.322764 -0.865415
vn -0.034226 0.012361 -0.999338
vn 0.160035 -0.121925 -0.979553
vn 0.062576 0.027705 0.997656
vn -0.052903 -0.183994 0.981503
vn 0.369993 -0.203014 0.906582
vn 0.962812 -0.032803 -0.268173
vn 0.955372 -0.048450 -0.291406
vn -0.302407 -0.091769 -0.948751
vn -0.288306 -0.012354 -0.957458
vn -0.232694 0.028746 -0.972125
vn -0.596457 0.012956 0.802540
vn 0.636486 -0.287123 0.715854
vn 0.691306 -0.271332 0.669683
vn 0.854354 0.246719 0.457394
vn 0.227886 -0.001661 -0.973686
vn 0.754943 -0.086695 -0.650035
vn 0.296904 -0.363353 -0.883076
vn -0.683352 -0.211141 0.698891
vn -0.683352 -0.211141 0.698891
vn -0.897656 -0.284707 0.336388
vn -0.660288 -0.199401 0.724057
vn -0.582907 0.395508 0.709784
vn -0.154209 0.986646 -0.052444
vn -0.813922 0.539239 -0.216222
vn -0.888205 0.457607 0.041093
vn -0.056732 0.998367 -0.006716
vn -0.045976 0.997632 -0.051159
vn -0.660182 0.579968 -0.477282
vn -0.947747 -0.308734 -0.080364
vn -0.769547 -0.287195 -0.570365
vn -0.769547 -0.287195 -0.570365
vn -0.769547 -0.287195 -0.570365
vn 0.011985 0.999876 -0.010251
vn 0.011985 0.999876 -0.010251
vn 0.011985 0.999876 -0.010251
vn 0.011985 0.999876 -0.010251
vn 0.011985 0.999876 -0.010251
vn 0.995880 0.082048 -0.038618
vn 0.995880 0.082048 -0.038618
vn 0.936626 -0.183337 -0.298529
vn 0.615687 0.517377 0.594350
vn 0.615686 0.517377 0.594350
vn 0.615686 0.517377 0.594350
vn 0.615687 0.517377 0.594350
vn -0.601917 0.149739 0.784394
vn -0.603698 0.151284 0.782727
vn -0.574299 0.126167 0.808865
vn -0.574299 0.126167 0.808865
vn -0.657498 0.199553 0.726550
vn -0.500497 -0.169142 0.849055
vn -0.500497 -0.169142 0.849055
vn -0.500497 -0.169142 0.849055
vn 0.745821 -0.024692 -0.665689
vn 0.745821 -0.024692 -0.665689
vn 0.718579 0.000319 -0.695445
vn 0.580661 0.109409 -0.806760
vn 0.518179 0.151912 -0.841673
vn 0.518179 0.151912 -0.841673
vn -0.039165 0.031758 -0.998728
vn 0.998168 0.027795 -0.053749
vn 0.999918 0.000761 -0.012745
vn 0.999918 0.000761 -0.012745
vn -0.016308 0.003126 -0.999862
vn 0.437527 -0.257651 -0.861503
vn 0.437527 -0.257651 -0.861502
vn 0.437527 -0.257651 -0.861503
vn 0.636549 -0.139519 0.758512
vn 0.403335 -0.045841 0.913904
vn 0.102773 0.062957 0.992710
vn 0.011050 0.048239 -0.998775
vn -0.655836 -0.197155 0.728704
s 1
f 36/1/1 34/2/2 4/3/3 7/4/4
s off
f 3/5/5 39/6/6 38/7/7 2/8/8 1/9/9
s 1
f 5/10/10 32/11/11 35/12/12 6/13/13
f 1/9/14 2/8/15 4/3/3 34/2/2 33/14/16
f 3/5/17 1/9/18 33/14/19 32/11/11 5/10/10
f 8/16/20 9/17/21 16/18/22 12/28/23
f 11/15/24 8/16/25 13/20/26 20/21/27
f 10/22/28 11/15/24 21/23/29 18/24/30
f 18/32/31 24/33/32 17/43/33
f 19/25/34 47/59/35 46/58/36
f 7/4/4 43/45/37 42/46/38 9/17/21 8/16/20
f 10/47/28 9/17/39 42/46/40 44/48/41 6/49/13
f 6/13/13 35/12/12 37/29/42 11/15/24 10/22/28
f 45/57/43 46/58/36 13/20/26 12/28/44
f 8/16/45 12/28/44 13/20/26
f 15/36/46 14/53/47 16/18/22 17/43/33
f 16/18/22 9/17/48 17/43/33
f 10/47/28 18/32/31 17/43/33 9/17/39
f 19/25/49 27/30/50 26/31/51 47/59/52
f 20/21/53 21/23/29 11/15/24
s 7
f 22/35/54 23/37/55 26/31/56 27/30/57
f 23/37/55 22/35/54 25/38/58 24/39/59
s 1
f 23/37/60 18/24/30 21/23/29 26/31/51
s off
f 23/37/61 24/39/62 18/24/63
s 7
f 22/35/54 27/30/57 19/25/64 30/27/65 29/40/66 14/41/67 15/42/68 25/38/58
s 1
f 29/54/69 28/50/70 45/57/71 14/53/47
s off
f 28/50/72 29/54/73 30/27/74 31/26/75
s 1
f 37/29/42 36/1/1 7/4/4 8/16/25 11/15/24
s 8
f 32/11/76 34/2/77 36/1/78 35/12/79
f 32/11/76 33/14/80 34/2/77
s off
f 35/12/81 36/1/82 37/29/83
s 9
f 38/56/84 39/55/85 41/52/86 40/51/87
f 40/51/87 41/52/86 44/48/88 43/45/89
s 1
f 6/49/13 44/48/41 41/52/90 5/44/10
f 4/3/3 40/51/91 43/45/37 7/4/4
f 2/8/92 38/56/93 40/51/91 4/3/3
f 5/44/10 41/52/90 39/55/94 3/19/17
s off
f 42/46/95 43/45/96 44/48/97
s 1
f 14/53/47 45/57/71 12/28/23 16/18/22
f 28/50/98 31/26/99 46/58/36 45/57/43
f 19/25/34 46/58/36 31/26/99 30/27/100
f 17/43/33 24/33/32 25/34/101 15/36/46
f 47/59/52 26/31/51 21/23/29 20/21/102
f 46/58/36 47/59/35 20/21/27 13/20/26
