# This file uses centimeters as units for non-parametric coordinates.

v -95.237710 36.292360 -292.686379
v -93.724461 36.292360 -292.686379
v -96.028548 36.292300 -294.182166
v -94.022792 37.748545 -293.065329
v -95.808798 37.412662 -294.123613
v -95.152137 38.538817 -294.780391
v -93.778869 38.720667 -293.951882
v -93.888125 40.163292 -293.961335
v -94.044516 40.766829 -295.087234
v -94.933034 40.761429 -294.816622
v -94.781030 40.320478 -293.301452
v -93.856316 41.108462 -294.465903
v -94.040782 41.169512 -293.013271
v -93.229961 43.679235 -296.051122
v -94.542267 43.626736 -296.470481
v -94.026716 41.863034 -295.554288
v -94.301380 41.846564 -295.431289
v -95.013410 41.404370 -295.118547
v -94.987179 43.129123 -293.198859
v -94.689255 41.257063 -292.917147
v -95.340888 41.274329 -293.534221
v -95.409098 43.613178 -294.777358
v -95.871697 42.670301 -294.737552
v -95.371309 42.665949 -295.556901
v -94.927555 43.546107 -295.331116
v -95.618497 42.709103 -293.745664
v -95.387636 43.361011 -293.613992
v -93.474720 42.824287 -293.878530
v -93.388538 43.568198 -294.339959
v -94.285771 43.550806 -293.505581
v -94.090001 43.044486 -293.456576
v -95.227610 37.876596 -293.287028
v -95.197776 37.161167 -292.833726
v -94.965683 37.832653 -293.037926
v -95.254763 38.557951 -293.412578
v -94.752946 38.630983 -293.067683
v -94.965490 39.548030 -293.538043
v -93.572423 36.292395 -295.175438
v -94.599779 36.288323 -295.761144
v -93.585860 38.027640 -295.217770
v -94.383171 37.184366 -295.598790
v -94.261242 39.489636 -295.138700
v -93.732683 38.479404 -295.237117
v -94.091504 38.538173 -295.436926
v -93.158042 43.648949 -297.912575
v -94.276771 43.839899 -298.179619
v -94.031083 42.366758 -296.386004
v -94.305747 42.281918 -296.295438
v -93.158042 43.678799 -299.442260
v -94.013828 43.627273 -299.746268
v -93.650575 42.406134 -298.281165
v -94.464585 42.384954 -297.791844
v -93.000362 42.983234 -300.387417
v -93.856148 42.897890 -300.683714
v -93.797117 41.232113 -299.695328
v -94.071781 41.229165 -299.571266
v -95.053277 39.462592 -294.866476
v -94.651481 42.769984 -296.203648
v -94.676801 43.090082 -297.272810
v -94.410887 43.029376 -298.805653
v -94.278118 42.180825 -300.363503
v -92.997230 42.140463 -300.054332
v -93.008495 43.066297 -298.883454
v -93.191624 43.031862 -297.177874
v -93.226829 42.805143 -295.812008
v -93.155494 43.285126 -294.133033
v -93.804961 43.307127 -293.481996
v -93.626922 39.648528 -293.867773
v -94.012669 39.904965 -294.932716
v -95.011522 39.969719 -294.719535
v -94.886754 40.022184 -293.277022
vt 0.242445 0.383019
vt 0.210371 0.323886
vt 0.278642 0.291686
vt 0.373765 0.381828
vt 0.080894 0.243800
vt 0.048739 0.121873
vt 0.110139 0.089288
vt 0.228737 0.175479
vt 0.172587 0.240506
vt 0.100827 0.319663
vt 0.184102 0.336818
vt 0.193590 0.394041
vt 0.085731 0.438515
vt 0.186256 0.282640
vt 0.268446 0.583215
vt 0.395320 0.548295
vt 0.546828 0.613344
vt 0.572791 0.741714
vt 0.783985 0.114079
vt 0.337909 0.666279
vt 0.292803 0.674093
vt 0.121925 0.638566
vt 0.232164 0.682563
vt 0.103711 0.703713
vt 0.278912 0.803560
vt 0.338494 0.813257
vt 0.309123 0.853459
vt 0.468901 0.651798
vt 0.236757 0.492680
vt 0.249836 0.813949
vt 0.229212 0.782365
vt 0.668331 0.664449
vt 0.726777 0.794109
vt 0.695044 0.893241
vt 0.197239 0.855808
vt 0.059965 0.903096
vt 0.171020 0.800136
vt 0.177261 0.900984
vt 0.109309 0.829111
vt 0.303687 0.935406
vt 0.228355 1.021302
vt 0.144256 0.985323
vt 0.601808 0.730086
vt 0.762738 0.230089
vt 0.493650 0.321003
vt 0.539105 0.436922
vt 0.650505 0.585368
vt 0.532021 0.326167
vt 0.657783 0.338521
vt 0.401480 0.809483
vt 0.479799 0.280192
vt 0.553971 0.189263
vt 0.186201 1.159802
vt 0.416747 0.894297
vt 0.565171 0.094092
vt 0.446582 0.123055
vt 0.073834 0.897618
vt 0.119979 1.133831
vt 0.072119 0.948308
vt 0.056713 0.950457
vt -0.025182 1.121602
vt 0.160862 1.095984
vt 0.114446 1.072816
vt 0.051520 1.030140
vt 0.078480 1.168883
vt 0.105874 1.161619
vt 0.138275 1.215368
vt 0.134173 1.226907
vt 0.103740 0.516678
vt 0.636198 0.436283
vt -0.010138 1.122474
vt 0.002083 1.033424
vt 0.572996 0.950309
vt 0.584720 0.950181
vt 0.333593 1.091918
vt 0.280619 1.111844
vt 0.093620 1.127383
vt 0.576319 0.857365
vt 0.103990 0.954500
vt 0.098089 1.012725
vt 0.074521 1.086867
vt 0.038988 1.156567
vt 0.088241 1.204685
vt 0.120398 1.178032
vt 0.146080 1.140060
vt 0.208641 1.093735
vt 0.571058 0.863095
vt 0.273748 1.049433
vt 0.414869 0.859354
vt 0.352167 0.837365
vt 0.388377 0.484878
vt 0.517529 0.501232
vt 0.124725 0.559591
vt 0.641633 0.492234
vt 0.259143 0.549733
vn 0.337528 0.406255 0.849136
vn 0.187622 0.296367 0.936464
vn 0.854349 0.201872 0.478890
vn 0.920836 0.093716 0.378521
vn 0.000403 -1.000000 0.000929
vn 0.000403 -0.999999 0.000929
vn 0.000403 -1.000000 0.000929
vn 0.000403 -1.000000 0.000929
vn 0.000403 -1.000000 0.000929
vn -0.922552 0.251378 -0.292758
vn -0.913992 0.285481 0.288303
vn -0.955486 0.289768 0.055496
vn -0.817167 0.172035 -0.550129
vn 0.043703 0.242873 0.969073
vn 0.043040 0.241734 0.969387
vn -0.900368 0.246440 -0.358615
vn -0.877759 0.119052 0.464075
vn -0.874999 0.166567 0.454568
vn 0.977283 0.103949 -0.184693
vn 0.975840 -0.055527 -0.211314
vn 0.916570 -0.395936 -0.055978
vn 0.964448 -0.129955 -0.230114
vn -0.603824 -0.335512 0.723069
vn 0.460448 -0.144825 0.875793
vn 0.646079 -0.120283 0.753733
vn 0.279723 -0.044655 0.959042
vn -0.797124 -0.319072 -0.512627
vn -0.918814 -0.283368 0.274743
vn -0.916789 -0.392903 -0.071591
vn -0.103597 -0.256984 -0.960847
vn 0.039925 -0.100272 -0.994159
vn -0.796327 -0.217931 -0.564243
vn -0.299435 -0.229247 -0.926167
vn 0.237027 0.202896 0.950080
vn 0.600770 0.073130 0.796070
vn 0.925388 0.113413 -0.361655
vn 0.971649 0.234214 -0.032275
vn 0.851195 0.468415 -0.236758
vn -0.237918 -0.257096 -0.936641
vn -0.252347 0.038793 -0.966859
vn -0.879849 0.138706 -0.454562
vn -0.514947 0.048738 0.855836
vn 0.909623 -0.100372 0.403128
vn 0.940101 -0.066495 0.334349
vn 0.991662 0.033109 0.124537
vn 0.174343 -0.487981 -0.855266
vn 0.189836 -0.477404 -0.857932
vn 0.086229 -0.544081 -0.834590
vn 0.086229 -0.544081 -0.834590
vn -0.363195 -0.360206 -0.859268
vn -0.363195 -0.360206 -0.859268
vn -0.363195 -0.360206 -0.859268
vn -0.672621 0.002808 0.739981
vn -0.688153 0.098504 0.718848
vn -0.902126 -0.229534 0.365353
vn -0.673352 -0.223223 0.704818
vn -0.449321 0.889170 -0.086531
vn -0.887690 0.428844 -0.167628
vn -0.909310 0.386516 0.154145
vn -0.539126 0.789809 0.292482
vn -0.144774 0.987158 -0.067530
vn -0.728660 0.417639 -0.542801
vn -0.921941 -0.385236 -0.040225
vn -0.786945 -0.389521 -0.478530
vn -0.786945 -0.389521 -0.478530
vn -0.786945 -0.389521 -0.478530
vn -0.016307 0.999576 0.024107
vn -0.054130 0.996923 0.056704
vn -0.054130 0.996923 0.056704
vn 0.942339 -0.326090 0.075248
vn 0.921029 -0.380732 0.082147
vn 0.860340 -0.508754 0.031372
vn 0.608275 -0.212110 0.764860
vn 0.557609 0.546312 0.624993
vn 0.595381 0.421570 0.683959
vn 0.608275 -0.212110 0.764860
vn 0.322296 -0.163982 0.932328
vn -0.609630 0.203969 0.765995
vn -0.608839 0.229978 0.759227
vn -0.609954 0.158005 0.776524
vn -0.609954 0.158005 0.776524
vn -0.589643 0.414588 0.693136
vn -0.677794 0.128197 0.723989
vn 0.251825 0.487243 0.836169
vn 0.466592 0.004316 -0.884462
vn 0.466592 0.004316 -0.884462
vn 0.463479 0.007022 -0.886080
vn 0.447478 0.020810 -0.894053
vn 0.428521 0.036882 -0.902779
vn 0.428521 0.036882 -0.902779
vn -0.589978 0.091723 -0.802193
vn -0.677028 0.164212 -0.717403
vn 0.987072 0.087917 0.134015
vn 0.984748 0.113596 0.131788
vn 0.984748 0.113596 0.131788
vn -0.703057 0.226013 -0.674262
vn 0.041288 0.997632 0.054998
vn 0.041288 0.997632 0.054998
vn 0.041288 0.997632 0.054998
vn 0.041288 0.997632 0.054998
vn 0.979379 -0.198655 -0.036779
vn 0.828900 -0.536360 -0.158879
vn 0.593476 -0.766222 -0.246353
vn 0.593476 -0.766222 -0.246353
vn -0.026933 -0.874570 -0.484150
vn -0.026933 -0.874570 -0.484150
vn -0.026933 -0.874570 -0.484150
vn -0.026933 -0.874570 -0.484150
vn -0.816955 -0.541291 -0.198967
vn -0.958848 -0.243462 -0.146072
vn -0.977220 0.206889 -0.047318
vn -0.816955 -0.541291 -0.198967
vn 0.085157 0.995035 -0.051505
vn 0.085157 0.995035 -0.051505
vn 0.107296 0.965875 -0.235740
vn 0.115183 0.944404 -0.307952
vn 0.947495 -0.263560 0.181080
vn 0.796048 -0.597473 0.096616
vn 0.712865 -0.694512 0.097350
vn 0.756466 -0.615874 0.220131
vn 0.077438 -0.996319 -0.036775
vn 0.077438 -0.996319 -0.036775
vn 0.186465 -0.961208 0.203248
vn 0.284376 -0.854864 0.433979
vn -0.964219 -0.262405 -0.037749
vn -0.989629 -0.119916 -0.079084
vn -0.989492 0.046576 -0.136880
vn -0.975455 -0.214986 -0.047635
vn 0.140278 0.800632 -0.582503
vn 0.140278 0.800632 -0.582503
vn 0.899964 -0.340480 0.272281
vn 0.786062 -0.499288 0.364442
vn 0.338540 -0.747545 0.571461
vn 0.338540 -0.747545 0.571460
vn -0.986891 0.026386 -0.159216
vn -0.985267 -0.160635 -0.058690
vn 0.936218 -0.059400 -0.346362
vn 0.947701 -0.019635 -0.318554
vn -0.000000 0.167210 0.985921
vn -0.850882 0.209405 -0.481819
vn -0.380229 0.198425 -0.903356
vn -0.970818 -0.204497 -0.125272
vn -0.970818 -0.204497 -0.125272
vn 0.204790 0.172437 0.963497
vn 0.204790 0.172437 0.963497
vn -0.191830 0.922758 0.334243
vn -0.044284 0.994067 0.099345
vn -0.958688 0.283022 -0.028553
vn -0.958688 0.283022 -0.028553
vn -0.936070 0.298593 -0.186050
vn -0.918707 0.292556 -0.265308
vn -0.912034 0.290273 -0.289718
vn 0.254408 -0.430923 -0.865784
vn 0.254408 -0.430923 -0.865784
vn 0.992665 0.119609 0.017606
vn 0.994565 0.104116 -0.000372
vn 0.986162 0.154969 0.058900
vn 0.999446 0.001308 0.033254
vn 0.999446 0.001308 0.033254
vn 0.979544 0.201201 0.003311
vn 0.979544 0.201201 0.003311
vn 0.432625 0.782362 0.448047
vn 0.432625 0.782362 0.448047
vn -0.670827 -0.006159 0.741588
s 1
f 36/1/1 34/2/2 4/3/3 7/4/4
s off
f 3/5/5 39/6/6 38/7/7 2/8/8 1/9/9
s 1
f 5/10/10 32/11/11 35/12/12 6/13/13
f 33/14/14 2/8/15 4/3/3 34/2/2
f 3/5/16 1/9/17 33/14/18
f 8/16/19 9/17/20 16/18/21 12/28/22
f 11/15/23 8/16/24 13/20/25 20/21/26
f 10/22/27 11/15/23 21/23/28 18/24/29
f 18/32/30 24/33/31 25/34/32 17/43/33
f 19/25/34 20/21/26 13/20/25 31/26/35
f 42/46/36 7/4/4 43/45/37 44/48/38
f 10/47/27 9/17/39 69/92/40 70/94/41
f 70/93/41 71/95/42 11/15/23 10/22/27
f 28/50/43 31/26/35 13/20/25 12/28/44
f 8/16/45 12/28/44 13/20/25
s 8
f 61/83/46 62/84/47 55/67/48 56/68/49
s off
f 16/18/50 9/17/51 17/43/52
s 1
f 10/47/27 18/32/30 17/43/33 9/17/39
f 19/25/53 27/30/54 26/31/55
f 20/21/56 21/23/28 11/15/23
s 10
f 22/35/57 23/37/58 26/31/59 27/30/60
f 23/37/58 22/35/57 25/38/61 24/39/62
s 1
f 23/37/63 18/24/29 21/23/28 26/31/55
s off
f 23/37/64 24/39/65 18/24/66
s 10
f 25/38/61 29/40/67 14/41/68 15/42/69
s 1
f 65/87/70 66/89/71 28/50/72 16/18/21
s 12
f 28/50/73 66/89/74 67/90/75 31/26/76
s 1
f 71/95/42 68/91/77 8/16/24 11/15/23
s 13
f 32/11/78 34/2/79 36/1/80 35/12/81
f 32/11/78 33/14/82 34/2/79
s 1
f 37/29/83 35/12/84 36/1/1 7/4/4
s 14
f 38/56/85 39/55/86 41/52/87 40/51/88
f 40/51/88 41/52/87 44/48/89 43/45/90
s 1
f 6/49/13 44/48/91 41/52/92 5/44/10
f 4/3/3 40/51/93 43/45/37 7/4/4
f 2/8/94 38/56/95 40/51/93 4/3/3
f 5/44/10 41/52/92 39/55/96 3/19/16
s off
f 15/42/97 14/41/98 45/62/99 46/63/100
s 15
f 64/86/101 65/88/102 16/75/103 47/76/104
s off
f 16/36/105 17/57/106 48/59/107 47/60/108
s 16
f 17/57/109 58/79/110 59/80/111 48/59/112
s 17
f 46/63/113 45/62/114 49/58/115 50/77/116
s 18
f 63/85/117 64/86/118 47/76/119 51/53/120
s 19
f 47/60/121 48/59/122 52/64/123 51/72/124
s 20
f 48/59/125 59/80/126 60/81/127 52/64/128
s 17
f 50/77/116 49/58/115 53/66/129 54/65/130
s 18
f 62/84/131 63/85/117 51/53/120 55/67/132
s 19
f 51/72/124 52/64/123 56/71/133 55/61/134
s 20
f 52/64/128 60/81/127 61/82/135 56/71/136
s 1
f 68/91/137 69/92/138 9/17/20 8/16/19
f 3/5/16 33/14/18 32/11/11 5/10/10
f 1/9/139 2/8/15 33/14/14
f 57/70/140 42/46/141 44/48/91 6/49/13
f 6/13/13 35/12/12 37/29/83 57/69/140
f 16/18/21 28/50/72 12/28/22
f 17/43/33 25/34/32 15/74/142 58/78/143
f 19/25/34 31/26/35 67/90/144 30/27/145
s 10
f 22/35/57 27/30/60 19/25/146 30/27/147
f 22/35/57 30/27/147 29/40/67 25/38/61
s 16
f 59/80/111 58/79/110 15/42/148 46/63/149
s 20
f 60/81/127 59/80/126 46/63/150 50/77/151
f 61/82/135 60/81/127 50/77/151 54/65/152
s 8
f 54/65/153 53/66/154 62/84/47 61/83/46
s 18
f 49/58/155 63/85/117 62/84/131 53/66/156
f 45/62/157 64/86/118 63/85/117 49/58/155
s 15
f 14/41/158 65/88/102 64/86/101 45/62/159
s 1
f 29/54/160 66/89/71 65/87/70 14/73/161
s 12
f 67/90/75 66/89/74 29/54/162 30/27/163
s 1
f 19/25/53 26/31/55 21/23/28 20/21/164
f 7/4/4 42/46/36 69/92/138 68/91/137
f 70/94/41 69/92/40 42/46/141 57/70/140
f 57/69/140 37/29/83 71/95/42 70/93/41
f 37/29/83 7/4/4 68/91/77 71/95/42
