# This file uses centimeters as units for non-parametric coordinates.

mtllib pilier.mtl
g default
v 49.073241 25.707574 10.980400
v 50.900831 25.234637 10.813041
v 49.145296 25.514498 10.087986
v 50.842317 25.239171 9.967575
v 51.950165 24.729324 10.860083
v 51.891628 24.773226 10.014627
v 52.741711 23.869293 11.074368
v 52.683182 23.873822 10.025293
v 53.286898 22.672916 11.080366
v 53.228365 22.677455 10.234912
v 52.948214 19.842218 10.934616
v 52.889689 19.846753 10.089154
v 47.372834 25.663328 11.003803
v 47.314309 25.667863 10.158342
v 45.814865 25.102249 10.952999
v 45.876599 24.962892 10.067350
v 44.463210 22.639930 11.689216
v 44.604497 23.311623 10.590066
v 44.300339 20.159866 12.743781
v 44.212255 19.252297 10.419099
v 48.974863 24.949003 10.768567
v 49.045883 25.179396 10.968795
v 50.762907 24.821269 10.845727
v 50.706804 24.687184 10.671076
v 48.834363 25.136961 10.077830
v 48.849410 25.040077 10.280059
v 50.691371 24.711315 10.127391
v 50.711347 24.824673 9.979564
v 51.725620 24.157057 10.864177
v 51.753734 24.125645 10.731765
v 51.769477 24.120864 10.129906
v 51.839079 24.339152 9.971579
v 52.598422 23.379251 10.998848
v 52.543595 23.289171 10.903467
v 52.537738 23.348407 10.190530
v 52.583184 23.431571 10.041464
v 53.125196 22.565009 11.054728
v 52.822608 22.590198 10.979261
v 52.820178 22.576349 10.360714
v 53.066686 22.569559 10.209269
v 52.838087 19.877028 10.908500
v 51.798439 19.685651 10.614744
v 51.759122 19.688692 10.046984
v 52.779550 19.881568 10.063041
v 47.296748 24.850822 10.830650
v 47.262237 24.994648 10.925134
v 47.301039 24.868941 10.031671
v 47.303813 24.726647 10.143658
v 46.064036 23.867017 10.820389
v 46.059768 24.106501 11.013984
v 45.939332 23.785370 10.205428
v 46.008361 23.749982 10.339831
v 45.492954 22.537324 11.442558
v 45.434643 22.498561 11.721995
v 45.435991 22.660271 10.561935
v 45.564845 22.618057 10.681731
v 45.658955 20.050931 12.978649
v 45.553145 20.073726 13.078396
v 44.881386 19.202284 10.391678
v 45.048426 19.205498 10.521579
v 44.676553 21.741936 11.912721
v 44.390303 21.094948 10.496707
v 45.133136 20.771969 10.468964
v 45.282844 20.754563 10.594276
v 45.842964 21.240550 11.861976
v 45.742779 21.285425 12.046634
v 53.102183 21.129086 11.000876
v 52.968610 21.099015 10.974977
v 52.264036 21.022361 10.713162
v 52.254606 21.041365 10.179861
v 52.910085 21.103558 10.129518
v 53.043653 21.133621 10.155417
v 52.318786 21.098094 10.720946
v 52.337658 21.057497 10.713587
v 50.616359 24.685409 10.120765
v 50.642968 24.680347 10.687660
v 50.761612 24.642250 10.690329
v 50.727854 24.649644 10.115633
v 48.921160 24.979108 10.257262
v 49.036533 24.893301 10.784438
v 48.912177 24.898114 10.791293
v 48.784546 24.978428 10.257196
v 47.379486 24.716321 10.135840
v 47.395542 24.830873 10.840440
v 47.255126 24.770269 10.869659
v 47.265867 24.641847 10.131757
v 51.659193 24.113032 10.754544
v 51.697872 24.104046 10.106639
v 51.820093 24.039262 10.104355
v 51.786900 24.043522 10.763451
v 52.465060 23.367618 10.169598
v 52.498161 23.329113 10.919436
v 52.574430 23.195414 10.924972
v 52.530814 23.258175 10.187798
v 52.768194 22.587887 10.330196
v 52.773891 22.518338 10.336428
v 46.172734 23.889303 10.823790
v 46.103521 23.757702 10.328538
v 46.014811 23.656195 10.355770
v 46.067196 23.769708 10.846641
vt 0.536957 0.833102
vt 0.511501 0.845647
vt 0.535695 0.826141
vt 0.883327 0.931406
vt 0.849127 0.939038
vt 0.848836 0.929696
vt 0.866485 0.607916
vt 0.853344 0.613253
vt 0.851799 0.602760
vt 0.596632 0.822391
vt 0.577537 0.822163
vt 0.577900 0.813675
vt 0.793156 0.952465
vt 0.767816 0.953508
vt 0.792527 0.941760
vt 0.786864 0.610484
vt 0.755919 0.610515
vt 0.786358 0.602326
vt 0.855601 0.593013
vt 0.785168 0.591320
vt 0.889335 0.479063
vt 0.876499 0.461874
vt 0.884442 0.388788
vt 0.918673 0.384704
vt 0.794644 0.469027
vt 0.774044 0.484303
vt 0.776046 0.378430
vt 0.809046 0.389226
vt 0.942998 0.234970
vt 0.871604 0.201286
vt 0.874516 0.047160
vt 0.975137 0.105316
vt 0.816747 0.199945
vt 0.752510 0.224266
vt 0.722160 0.095845
vt 0.815477 0.041354
vt 0.517210 0.678168
vt 0.500695 0.680806
vt 0.516565 0.668841
vt 0.600131 0.681029
vt 0.583503 0.675018
vt 0.583141 0.666024
vt 0.522760 0.512434
vt 0.494216 0.536664
vt 0.474603 0.364202
vt 0.499524 0.373800
vt 0.590770 0.518874
vt 0.573479 0.509022
vt 0.570124 0.395642
vt 0.587305 0.397956
vt 0.489127 0.243689
vt 0.470999 0.243496
vt 0.405453 0.111997
vt 0.418263 0.111925
vt 0.627275 0.220662
vt 0.610864 0.218236
vt 0.643197 0.078836
vt 0.661816 0.079649
vt 0.874421 0.740163
vt 0.921148 0.739773
vt 0.940924 0.928912
vt 0.726526 0.920052
vt 0.719674 0.744521
vt 0.767270 0.743665
vt 0.928717 0.629042
vt 0.714112 0.631843
vt 0.928751 0.517399
vt 0.734689 0.514266
vt 0.934561 0.395949
vt 0.744393 0.351466
vt 0.956168 0.241133
vt 0.987980 0.105425
vt 0.739400 0.230484
vt 0.709288 0.095837
vt 0.466020 0.858789
vt 0.447566 0.714788
vt 0.623291 0.857797
vt 0.668392 0.711180
vt 0.428577 0.595078
vt 0.671281 0.587804
vt 0.389527 0.368802
vt 0.671501 0.428797
vt 0.393938 0.302832
vt 0.309122 0.168399
vt 0.689256 0.250528
vt 0.699865 0.082873
vt 0.873452 0.213401
vt 0.810853 0.374287
vt 0.875457 0.208756
vt 0.789096 0.750734
vt 0.788290 0.741911
vt 0.849808 0.748723
vt 0.849061 0.740765
vt 0.850562 0.732070
vt 0.788529 0.733847
vt 0.518789 0.687928
vt 0.583145 0.682731
vt 0.524083 0.533503
vt 0.573863 0.527468
vt 0.793109 0.487502
vt 0.875060 0.480503
vt 0.793828 0.479035
vt 0.874304 0.473398
vt 0.810472 0.383052
vt 0.522700 0.522387
vt 0.574988 0.518296
vn -0.057412 -0.997204 0.047823
vn 0.025062 -0.179111 0.983510
vn 0.117110 -0.914330 0.387667
vn -0.151205 -0.957904 0.244043
vn -0.189787 -0.084925 0.978145
vn -0.475113 -0.863379 0.169840
vn -0.493839 -0.869545 -0.003749
vn -0.022113 -0.076569 -0.996819
vn 0.058558 -0.970401 -0.234293
vn 0.150202 -0.969401 -0.194166
vn -0.190234 -0.935841 -0.296669
vn -0.434252 -0.850962 -0.295447
vn -0.042211 -0.117342 -0.992194
vn -0.475088 -0.864536 -0.163916
vn -0.727519 -0.677567 0.107798
vn -0.689512 -0.662256 -0.293239
vn -0.251995 -0.088361 0.963686
vn -0.881534 -0.306387 0.359200
vn -0.805601 0.015650 0.592252
vn -0.263737 -0.048442 0.963377
vn -0.855074 -0.387324 -0.344715
vn -0.035886 -0.174644 -0.983978
vn -0.062575 0.006717 -0.998018
vn -0.877544 -0.416707 -0.237217
vn -0.293741 -0.013915 0.955784
vn -0.629776 0.156362 0.760877
vn -0.780011 0.218165 0.586504
vn -0.293951 0.005300 0.955806
vn -0.661523 0.279174 -0.696024
vn -0.058403 0.091198 -0.994119
vn -0.003335 0.078394 -0.996917
vn -0.705709 0.299037 -0.642302
vn 0.521231 -0.816983 0.246691
vn 0.036636 -0.100335 0.994279
vn 0.578975 -0.687622 0.438136
vn 0.007920 -0.050162 -0.998710
vn 0.530189 -0.845145 0.068041
vn 0.602839 -0.777222 -0.180309
vn 0.933983 -0.331288 0.133880
vn 0.207049 0.126612 0.970103
vn 0.258141 0.248549 0.933588
vn 0.994186 -0.087199 -0.063177
vn -0.122894 -0.163287 -0.978895
vn 0.881753 -0.430455 -0.192927
vn 0.949284 -0.175371 -0.260969
vn 0.012744 -0.058599 -0.998200
vn 0.976820 -0.121014 -0.176571
vn 0.145747 0.511134 0.847054
vn 0.040659 0.558461 0.828534
vn 0.977051 -0.166332 -0.133061
vn 0.111077 0.027767 -0.993424
vn 0.941920 -0.165721 -0.292100
vn 0.930293 -0.210791 -0.300205
vn 0.093275 0.030354 -0.995178
vn -0.004810 -0.139338 0.990233
vn 0.046573 0.020839 0.998697
vn 0.035871 -0.039176 0.998588
vn -0.039620 0.062307 -0.997270
vn -0.021317 0.029429 -0.999340
vn -0.075589 -0.159803 -0.984251
vn -0.087728 0.025773 0.995811
vn 0.042317 0.026648 -0.998749
vn -0.199432 -0.007655 0.979882
vn 0.095436 0.001191 -0.995435
vn -0.179930 -0.061137 0.981778
vn 0.188773 -0.047539 -0.980870
vn -0.173198 -0.032441 0.984352
vn -0.209182 -0.027994 0.977476
vn 0.173211 0.032437 -0.984350
vn 0.209157 0.027994 -0.977481
vn 0.007123 -0.048042 0.998820
vn -0.018501 0.054935 -0.998318
vn 0.081292 0.102978 0.991356
vn -0.079440 -0.050546 -0.995557
vn 0.107451 0.255318 0.960868
vn -0.129610 -0.075443 -0.988691
vn -0.023005 0.426623 0.904137
vn -0.036375 0.559486 0.828041
vn -0.013087 0.046986 -0.998810
vn -0.026167 0.048619 -0.998475
vn -0.871113 0.224714 0.436652
vn -0.786619 0.304333 -0.537226
vn -0.638769 0.417627 0.646190
vn -0.156559 -0.945187 -0.286550
vn -0.315068 -0.943247 -0.104961
vn -0.120390 -0.948279 0.293723
vn -0.316943 -0.943920 0.092534
vn -0.516437 -0.840158 0.165611
vn -0.471156 -0.812544 -0.343196
vn 0.082996 -0.917469 0.389053
vn 0.121516 -0.967773 -0.220564
vn 0.576029 -0.751435 0.321771
vn 0.569532 -0.807032 -0.155988
vn -0.679890 -0.697713 -0.225710
vn -0.702421 -0.702352 0.115353
vn -0.837352 -0.543639 -0.057428
vn -0.871459 -0.487709 0.051962
vn -0.940051 -0.176211 -0.291981
vn 0.759943 -0.623403 0.184001
vn 0.761653 -0.647946 -0.007141
s 1
g pCube3
usemtl blinn3SG
f 21/1/1 22/2/2 81/3/3
f 22/4/2 21/5/1 80/6/4
f 29/7/5 87/8/6 30/9/7
f 25/10/8 26/11/9 82/12/10
f 26/13/9 25/14/8 79/15/11
f 88/16/12 32/17/13 31/18/14
f 29/7/5 30/9/7 90/19/15
f 31/18/14 32/17/13 89/20/16
f 33/21/17 93/22/18 38/23/19 37/24/20
f 94/25/21 36/26/22 40/27/23 95/28/24
f 68/29/25 69/30/26 42/31/27 41/32/28
f 70/33/29 71/34/30 44/35/31 43/36/32
f 45/37/33 46/38/34 85/39/35
f 47/40/36 48/41/37 86/42/38
f 100/43/39 50/44/40 54/45/41 53/46/42
f 51/47/43 99/48/44 56/49/45 55/50/46
f 65/51/47 66/52/48 58/53/49 57/54/50
f 63/55/51 64/56/52 60/57/53 59/58/54
f 22/4/2 23/59/55 2/60/56 1/61/57
f 3/62/58 4/63/59 28/64/60 25/14/8
f 26/13/9 79/15/11 80/6/4 21/5/1
f 2/60/56 23/59/55 29/7/5 5/65/61
f 28/64/60 4/63/59 6/66/62 32/17/13
f 87/8/6 88/16/12 31/18/14 30/9/7
f 5/65/61 29/7/5 33/21/17 7/67/63
f 32/17/13 6/66/62 8/68/64 36/26/22
f 30/9/7 31/18/14 89/20/16 90/19/15
f 7/67/63 33/21/17 37/24/20 9/69/65
f 36/26/22 8/68/64 10/70/66 40/27/23
f 93/22/18 94/25/21 95/28/24 38/23/19
f 67/71/67 68/29/25 41/32/28 11/72/68
f 71/34/30 72/73/69 12/74/70 44/35/31
f 69/30/26 70/33/29 43/36/32 42/31/27
f 22/2/2 1/75/57 13/76/71 46/38/34
f 3/77/58 25/10/8 47/40/36 14/78/72
f 26/11/9 21/1/1 81/3/3 82/12/10
f 46/38/34 13/76/71 15/79/73 50/44/40
f 14/78/72 47/40/36 51/47/43 16/80/74
f 48/41/37 45/37/33 85/39/35 86/42/38
f 50/44/40 15/79/73 17/81/75 54/45/41
f 16/80/74 51/47/43 55/50/46 18/82/76
f 99/48/44 100/43/39 53/46/42 56/49/45
f 66/52/48 61/83/77 19/84/78 58/53/49
f 62/85/79 63/55/51 59/58/54 20/86/80
f 64/56/52 65/51/47 57/54/50 60/57/53
f 18/82/76 55/50/46 63/55/51 62/85/79
f 55/50/46 56/49/45 64/56/52 63/55/51
f 56/49/45 53/46/42 65/51/47 64/56/52
f 53/46/42 54/45/41 66/52/48 65/51/47
f 54/45/41 17/81/75 61/83/77 66/52/48
f 9/69/65 37/24/20 68/29/25 67/71/67
f 37/24/20 38/23/19 73/87/81 68/29/25
f 38/23/19 96/88/82 70/33/29 73/87/81
f 96/88/82 40/27/23 71/34/30 70/33/29
f 40/27/23 10/70/66 72/73/69 71/34/30
f 74/89/83 70/33/29 69/30/26
f 68/29/25 73/87/81 74/89/83
f 68/29/25 74/89/83 69/30/26
f 73/87/81 70/33/29 74/89/83
f 75/90/84 28/64/60 27/91/85
f 76/92/86 75/90/84 27/91/85 24/93/87
f 23/59/55 76/92/86 24/93/87
f 23/59/55 24/93/87 77/94/88
f 24/93/87 27/91/85 78/95/89 77/94/88
f 27/91/85 28/64/60 78/95/89
f 79/15/11 25/14/8 28/64/60 75/90/84
f 80/6/4 79/15/11 75/90/84 76/92/86
f 22/4/2 80/6/4 76/92/86 23/59/55
f 84/96/90 46/38/34 45/37/33
f 83/97/91 84/96/90 45/37/33 48/41/37
f 47/40/36 83/97/91 48/41/37
f 25/10/8 82/12/10 83/97/91 47/40/36
f 82/12/10 81/3/3 84/96/90 83/97/91
f 81/3/3 22/2/2 46/38/34 84/96/90
f 85/39/35 46/38/34 50/44/40 97/98/92
f 86/42/38 85/39/35 97/98/92 98/99/93
f 47/40/36 86/42/38 98/99/93 51/47/43
f 23/59/55 77/94/88 87/8/6 29/7/5
f 77/94/88 78/95/89 88/16/12 87/8/6
f 78/95/89 28/64/60 32/17/13 88/16/12
f 89/20/16 32/17/13 36/26/22 91/100/94
f 90/19/15 89/20/16 91/100/94 92/101/95
f 29/7/5 90/19/15 92/101/95 33/21/17
f 91/100/94 36/26/22 35/102/96
f 92/101/95 91/100/94 35/102/96 34/103/97
f 33/21/17 92/101/95 34/103/97
f 33/21/17 34/103/97 93/22/18
f 34/103/97 35/102/96 94/25/21 93/22/18
f 35/102/96 36/26/22 94/25/21
f 95/28/24 40/27/23 39/104/98
f 38/23/19 95/28/24 39/104/98
f 38/23/19 39/104/98 96/88/82
f 39/104/98 40/27/23 96/88/82
f 97/98/92 50/44/40 49/105/99
f 98/99/93 97/98/92 49/105/99 52/106/100
f 51/47/43 98/99/93 52/106/100
f 51/47/43 52/106/100 99/48/44
f 52/106/100 49/105/99 100/43/39 99/48/44
f 49/105/99 50/44/40 100/43/39
