# This file uses centimeters as units for non-parametric coordinates.

mtllib planche.mtl
g default
v -0.227917 -2.463791 0.110266
v -0.230087 -2.450294 0.127186
v 0.261307 -2.463791 0.110266
v 0.263474 -2.450294 0.127186
v -0.244839 -2.450294 0.112431
v -0.196640 2.463791 0.110266
v -0.213562 2.450294 0.112431
v -0.196640 2.463791 -0.110267
v -0.213562 2.450294 -0.112432
v -0.198811 2.450294 0.127186
v 0.292580 2.463791 0.110266
v 0.294750 2.450294 0.127186
v 0.278225 -2.450294 0.112431
v 0.309502 2.450294 0.112431
v 0.292580 2.463791 -0.110267
v 0.309502 2.450294 -0.112432
v -0.198811 2.450294 -0.127186
v 0.294750 2.450294 -0.127186
v -0.227917 -2.463791 -0.110267
v -0.244839 -2.450294 -0.112432
v -0.230087 -2.450294 -0.127186
v 0.261307 -2.463791 -0.110267
v 0.263474 -2.450294 -0.127186
v 0.278225 -2.450294 -0.112432
v -0.192875 -1.584816 0.127186
v 0.292202 -1.473602 0.127186
v 0.306953 -1.473602 0.112431
v 0.306953 -1.473602 -0.112432
v 0.292202 -1.473602 -0.127186
v -0.192875 -1.584816 -0.127186
v -0.207626 -1.584816 -0.112432
v -0.207626 -1.584816 0.112431
v -0.294750 0.668007 0.127186
v -0.309502 0.668007 0.112431
v -0.309502 0.668007 -0.112432
v -0.294750 0.668007 -0.127186
v 0.221573 0.560188 -0.127186
v 0.236328 0.560188 -0.112432
v 0.236328 0.560188 0.112431
v 0.221573 0.560188 0.127186
vt 0.273130 0.070093
vt 0.273674 0.060780
vt 0.276000 0.068996
vt 0.291396 0.890159
vt 0.290804 0.897637
vt 0.211632 0.901106
vt 0.210388 0.893709
vt 0.192652 0.059324
vt 0.193067 0.068629
vt 0.190198 0.067408
vt 0.303006 0.892000
vt 0.299840 0.889789
vt 0.423106 0.884391
vt 0.420145 0.886870
vt 0.278428 0.602102
vt 0.281351 0.603215
vt 0.279201 0.611419
vt 0.287644 0.611053
vt 0.290605 0.608574
vt 0.407743 0.603457
vt 0.410909 0.605668
vt 0.277133 0.476332
vt 0.272864 0.480778
vt 0.270331 0.472042
vt 0.198186 0.615032
vt 0.198143 0.605720
vt 0.195329 0.607077
vt 0.201945 0.894079
vt 0.198984 0.896557
vt 0.081845 0.901687
vt 0.078678 0.899477
vt 0.186577 0.613187
vt 0.189743 0.615398
vt 0.066478 0.620783
vt 0.069439 0.618304
vt 0.193136 0.485364
vt 0.188218 0.481498
vt 0.195046 0.477109
vt 0.270177 0.191599
vt 0.273972 0.195320
vt 0.267704 0.200610
vt 0.193868 0.197392
vt 0.191962 0.189013
vt 0.188019 0.192448
vt 0.202894 0.722501
vt 0.283903 0.718940
vt 0.289242 0.840936
vt 0.208234 0.844487
vt 0.188490 0.246794
vt 0.271922 0.246836
vt 0.272048 0.368911
vt 0.187878 0.368527
vt 0.071184 0.728269
vt 0.194450 0.722871
vt 0.199791 0.844857
vt 0.076524 0.850255
vt 0.292346 0.718569
vt 0.415613 0.713172
vt 0.420952 0.835168
vt 0.297685 0.840567
vt 0.280607 0.369342
vt 0.280333 0.245752
vt 0.179418 0.369140
vt 0.180001 0.245642
vn -0.026923 -0.997907 0.058787
vn -0.028686 -0.016051 0.999460
vn -0.997894 0.025092 0.059811
vn 0.026921 -0.997908 0.058782
vn 0.029888 -0.017363 0.999402
vn 0.997116 -0.044217 0.061676
vn -0.997894 0.025092 -0.059811
vn -0.026923 -0.997908 -0.058787
vn -0.026923 0.997907 0.058787
vn -0.996142 0.061649 0.062452
vn -0.025833 0.009300 0.999623
vn -0.026923 0.997907 -0.058787
vn -0.996142 0.061649 -0.062453
vn -0.025835 0.009300 -0.999623
vn 0.030134 0.007186 0.999520
vn 0.026921 0.997908 0.058786
vn 0.997723 -0.030436 0.060191
vn 0.026921 -0.997908 -0.058782
vn 0.997116 -0.044216 -0.061676
vn 0.997723 -0.030436 -0.060191
vn 0.026921 0.997908 -0.058787
vn 0.030130 0.007185 -0.999520
vn -0.028686 -0.016050 -0.999460
vn 0.029888 -0.017362 -0.999403
vn 0.026759 -0.000016 0.999642
vn -0.030648 -0.000042 0.999530
vn -0.029634 -0.000614 0.999561
vn 0.027735 0.000387 0.999615
vn 0.027735 0.000387 -0.999615
vn -0.029632 -0.000614 -0.999561
vn -0.030647 -0.000042 -0.999530
vn 0.026758 -0.000016 -0.999642
vn 0.998051 -0.000649 -0.062400
vn 0.998051 -0.000649 0.062400
vn 0.998066 0.013888 0.060592
vn 0.998066 0.013888 -0.060592
vn -0.998187 -0.001475 0.060178
vn -0.998187 -0.001475 -0.060178
vn -0.997825 -0.020693 -0.062584
vn -0.997825 -0.020693 0.062583
s 1
g initialShadingGroup pCube1
f 1/1/1 2/2/2 5/3/3
f 2/4/2 1/5/1 3/6/4 4/7/5
f 4/8/5 3/9/4 13/10/6
f 1/11/1 5/12/3 20/13/7 19/14/8
f 6/15/9 7/16/10 10/17/11
f 7/18/10 6/19/9 8/20/12 9/21/13
f 9/22/13 8/23/12 17/24/14
f 6/15/9 10/17/11 12/25/15 11/26/16
f 11/26/16 12/25/15 14/27/17
f 13/28/6 3/29/4 22/30/18 24/31/19
f 11/32/16 14/33/17 16/34/20 15/35/21
f 15/36/21 16/37/20 18/38/22
f 17/24/14 8/23/12 15/36/21 18/38/22
f 19/39/8 20/40/7 21/41/23
f 19/39/8 21/41/23 23/42/24 22/43/18
f 22/43/18 23/42/24 24/44/19
f 40/45/25 33/46/26 25/47/27 26/48/28
f 29/49/29 30/50/30 36/51/31 37/52/32
f 38/53/33 39/54/34 27/55/35 28/56/36
f 34/57/37 35/58/38 31/59/39 32/60/40
f 6/15/9 11/26/16 15/36/21 8/23/12
f 19/39/8 22/43/18 3/9/4 1/1/1
f 32/60/40 25/47/27 33/46/26 34/57/37
f 26/48/28 27/55/35 39/54/34 40/45/25
f 35/61/38 36/51/31 30/50/30 31/62/39
f 37/52/32 38/63/33 28/64/36 29/49/29
f 26/48/28 25/47/27 2/4/2 4/7/5
f 4/7/5 13/28/6 27/55/35 26/48/28
f 28/56/36 27/55/35 13/28/6 24/31/19
f 29/49/29 28/64/36 24/44/19 23/42/24
f 21/41/23 30/50/30 29/49/29 23/42/24
f 31/62/39 30/50/30 21/41/23 20/40/7
f 32/60/40 31/59/39 20/13/7 5/12/3
f 5/12/3 2/4/2 25/47/27 32/60/40
f 34/57/37 33/46/26 10/17/11 7/18/10
f 9/21/13 35/58/38 34/57/37 7/18/10
f 9/22/13 17/24/14 36/51/31 35/61/38
f 37/52/32 36/51/31 17/24/14 18/38/22
f 18/38/22 16/37/20 38/63/33 37/52/32
f 14/33/17 39/54/34 38/53/33 16/34/20
f 40/45/25 39/54/34 14/33/17 12/25/15
f 10/17/11 33/46/26 40/45/25 12/25/15
