# This file uses centimeters as units for non-parametric coordinates.

mtllib Prism_Long.mtl
g default
v 0.087816 -1.063990 -0.152101
v -0.087816 -1.063990 -0.152101
v -0.175631 -1.088351 -0.000000
v -0.087816 -1.118309 0.152101
v 0.087816 -1.118309 0.152101
v 0.175631 -1.088351 0.000000
v 0.085319 1.044307 -0.147776
v -0.085319 1.118309 -0.147776
v -0.170637 1.118309 -0.000000
v -0.085319 1.044307 0.147776
v 0.085319 0.964387 0.147776
v 0.170637 0.964387 0.000000
v 0.000000 -1.088351 0.000000
v 0.000000 1.044307 0.000000
v 0.095170 1.022171 -0.164839
v -0.095170 1.104717 -0.164839
v -0.190340 1.104717 -0.000000
v -0.095170 1.022171 0.164839
v 0.095170 0.933023 0.164839
v 0.190340 0.933023 0.000000
v 0.095170 -1.039463 -0.164839
v -0.095170 -1.039463 -0.164839
v -0.190340 -1.065864 -0.000000
v -0.095170 -1.098330 0.164839
v 0.095170 -1.098330 0.164839
v 0.190340 -1.065864 0.000000
vt 0.007706 0.101485
vt 0.007632 0.142072
vt 0.043193 0.162431
vt 0.079055 0.142202
vt 0.079128 0.101614
vt 0.043340 0.081256
vt 0.092051 0.264002
vt 0.090621 0.223595
vt 0.085407 0.182873
vt 0.084296 0.142222
vt 0.091151 0.182853
vt 0.085697 0.061053
vt 0.090692 0.021864
vt 0.542558 0.264002
vt 0.560036 0.223821
vt 0.560029 0.182919
vt 0.543976 0.142327
vt 0.526726 0.101867
vt 0.526577 0.061463
vt 0.543995 0.023432
vt 0.639915 0.182906
vt 0.599640 0.162462
vt 0.091336 0.061030
vt 0.084362 0.101626
vt 0.599654 0.244266
vt 0.639921 0.223808
vt 0.043265 0.121840
vt 0.599652 0.203359
vt 0.537984 0.020788
vt 0.538053 0.264002
vt 0.555363 0.223565
vt 0.555302 0.183094
vt 0.537693 0.142539
vt 0.518669 0.101935
vt 0.518696 0.061373
vt 0.096861 0.020325
vt 0.096511 0.264002
vt 0.096707 0.223480
vn 0.420497 0.006487 -0.907271
vn -0.541556 0.006722 -0.840638
vn 0.241302 0.968729 -0.057771
vn 0.524406 0.850262 -0.045306
vn -0.999053 0.006662 -0.042992
vn 0.070619 0.968729 0.237859
vn -0.575056 0.006354 0.818089
vn 0.222967 0.850262 0.476802
vn 0.459014 0.005859 0.888410
vn 0.484881 0.753143 0.444596
vn 0.999168 0.005931 -0.040357
vn 0.627472 0.753143 0.197622
vn -0.170428 -0.885555 -0.432143
vn 0.170428 -0.885554 -0.432143
vn 0.000000 -0.984430 -0.175779
vn -0.349575 -0.923228 -0.159521
vn -0.181342 -0.975037 0.128130
vn 0.181342 -0.975037 0.128130
vn 0.349575 -0.923228 -0.159521
vn 0.400022 0.886929 0.230953
vn 0.501886 -0.004890 -0.864920
vn -0.516857 -0.004741 -0.856059
vn -0.999643 -0.004803 0.026270
vn -0.494425 -0.005131 0.869205
vn 0.478758 -0.005287 0.877931
vn 0.999659 -0.005107 0.025625
s 1
g pCylinder86
usemtl lambert2SG
f 15/30/1 16/31/2 8/15/3 7/14/4
f 16/31/2 17/32/5 9/16/6 8/15/3
f 17/32/5 18/33/7 10/17/8 9/16/6
f 18/33/7 19/34/9 11/18/10 10/17/8
f 19/34/9 20/35/11 12/19/12 11/18/10
f 20/35/11 15/29/1 7/20/4 12/19/12
f 2/2/13 1/1/14 13/27/15
f 3/3/16 2/2/13 13/27/15
f 4/4/17 3/3/16 13/27/15
f 5/5/18 4/4/17 13/27/15
f 6/6/19 5/5/18 13/27/15
f 1/1/14 6/6/19 13/27/15
f 7/25/4 8/15/3 14/28/20
f 8/15/3 9/16/6 14/28/20
f 9/16/6 10/22/8 14/28/20
f 10/22/8 11/21/10 14/28/20
f 11/21/10 12/26/12 14/28/20
f 12/26/12 7/25/4 14/28/20
f 21/37/21 22/38/22 16/31/2 15/30/1
f 22/38/22 23/11/23 17/32/5 16/31/2
f 23/11/23 24/10/24 18/33/7 17/32/5
f 24/10/24 25/24/25 19/34/9 18/33/7
f 25/24/25 26/23/26 20/35/11 19/34/9
f 26/23/26 21/36/21 15/29/1 20/35/11
f 1/7/14 2/8/13 22/38/22 21/37/21
f 2/8/13 3/9/16 23/11/23 22/38/22
f 3/9/16 4/4/17 24/10/24 23/11/23
f 4/4/17 5/5/18 25/24/25 24/10/24
f 5/5/18 6/12/19 26/23/26 25/24/25
f 6/12/19 1/13/14 21/36/21 26/23/26
