# This file uses centimeters as units for non-parametric coordinates.

mtllib Prism_Short.mtl
g default
v 0.095170 -0.209356 -0.164839
v -0.087828 -0.209802 -0.152122
v -0.175656 -0.214592 -0.000000
v -0.087828 -0.220481 0.152122
v 0.087828 -0.220481 0.152122
v 0.175656 -0.214592 -0.000000
v 0.087318 0.204648 -0.151239
v -0.087318 0.219535 -0.151239
v -0.174636 0.219535 -0.000000
v -0.087318 0.204648 0.151239
v 0.087318 0.188569 0.151239
v 0.174636 0.188569 -0.000000
v 0.000000 -0.214592 -0.000000
v 0.000000 0.204648 -0.000000
v 0.095170 0.181311 -0.164839
v -0.095170 0.196000 -0.164839
v -0.190340 0.196000 -0.000000
v -0.095170 0.181311 0.164839
v 0.095170 0.165446 0.164839
v 0.190340 0.165446 0.000000
v 0.095170 -0.185568 -0.164839
v -0.095170 -0.185568 -0.164839
v -0.190340 -0.190267 -0.000000
v -0.095170 -0.196044 0.164839
v 0.095170 -0.196044 0.164839
v 0.190340 -0.190267 0.000000
vt 0.033112 0.326057
vt 0.058483 0.364282
vt 0.102431 0.364582
vt 0.124689 0.326678
vt 0.102991 0.288477
vt 0.059036 0.288182
vt 0.013500 0.364186
vt 0.229997 0.373783
vt 0.187981 0.371747
vt 0.145666 0.364486
vt 0.188097 0.365372
vt 0.229981 0.367540
vt 0.272521 0.369227
vt 0.013500 0.462454
vt 0.057468 0.466638
vt 0.101470 0.466299
vt 0.144645 0.462542
vt 0.187197 0.458726
vt 0.228944 0.458801
vt 0.269358 0.463686
vt 0.102059 0.542909
vt 0.123765 0.504418
vt 0.145510 0.370924
vt 0.102270 0.371104
vt 0.035761 0.505098
vt 0.058058 0.543249
vt 0.080733 0.326382
vt 0.079773 0.504762
vt 0.271415 0.457505
vt 0.013500 0.458079
vt 0.057490 0.460134
vt 0.101443 0.459810
vt 0.144616 0.456185
vt 0.187175 0.452507
vt 0.229099 0.452707
vt 0.272601 0.374775
vt 0.013500 0.368518
vt 0.058298 0.370817
vn 0.001914 0.023615 -0.999719
vn 0.003154 0.038916 -0.999237
vn 0.040641 0.501500 -0.864203
vn 0.040641 0.501500 -0.864203
vn -0.865644 0.029673 -0.499780
vn -0.865644 0.029673 -0.499780
vn -0.749834 0.500331 -0.432917
vn -0.749834 0.500331 -0.432917
vn -0.863842 0.038195 0.502313
vn -0.864853 0.023165 0.501491
vn -0.728101 0.501500 0.467297
vn -0.728101 0.501500 0.467297
vn 0.003514 0.040148 0.999188
vn 0.002050 0.023426 0.999723
vn 0.044175 0.504741 0.862140
vn 0.044175 0.504741 0.862140
vn 0.865592 0.031638 0.499750
vn 0.865592 0.031638 0.499750
vn 0.746481 0.506972 0.430981
vn 0.746481 0.506972 0.430981
vn 0.866823 0.023931 -0.498042
vn 0.867086 0.040986 -0.496470
vn 0.768723 0.504741 -0.392813
vn 0.768723 0.504741 -0.392813
vn 0.000130 -0.999502 -0.031543
vn 0.000121 -0.999498 -0.031677
vn 0.000042 -0.999385 -0.035054
vn 0.000000 -0.999385 -0.035080
vn 0.000000 -0.999251 -0.038688
vn 0.000000 -0.999251 -0.038688
vn 0.000000 -0.999388 -0.034969
vn 0.088201 0.994800 0.050923
vn 0.084840 0.995190 0.048982
vn 0.088198 0.994801 0.050921
vn 0.084840 0.995190 0.048982
vn 0.088201 0.994800 0.050923
vn 0.091552 0.994396 0.052858
vn 0.091552 0.994396 0.052858
vn -0.001997 -0.015983 -0.999870
vn -0.001862 -0.014900 -0.999887
vn -0.865402 -0.025809 -0.500413
vn -0.865234 -0.030305 -0.500451
vn -0.866150 -0.025470 0.499134
vn -0.866103 -0.031024 0.498902
vn -0.000000 -0.029013 0.999579
vn -0.000000 -0.029013 0.999579
vn 0.866080 -0.032904 0.498821
vn 0.866139 -0.027032 0.499071
vn 0.866740 -0.016677 -0.498481
vn 0.866690 -0.015282 -0.498614
vn -0.032556 -0.260502 -0.964924
vn -0.032556 -0.260502 -0.964924
vn -0.761099 -0.463941 -0.453307
vn -0.761099 -0.463941 -0.453307
vn -0.775142 -0.462404 0.430507
vn -0.775142 -0.462404 0.430507
vn 0.000000 -0.461620 0.887078
vn 0.000000 -0.461620 0.887078
vn 0.775142 -0.462405 0.430507
vn 0.775142 -0.462405 0.430507
vn 0.849131 -0.259155 -0.460234
vn 0.849131 -0.259155 -0.460234
s 1
g pCylinder85
usemtl lambert2SG
f 15/30/1 16/31/2 8/15/3 7/14/4
s 2
f 16/31/5 17/32/6 9/16/7 8/15/8
s 3
f 17/32/9 18/33/10 10/17/11 9/16/12
s 4
f 18/33/13 19/34/14 11/18/15 10/17/16
s 5
f 19/34/17 20/35/18 12/19/19 11/18/20
s 6
f 20/35/21 15/29/22 7/20/23 12/19/24
s 7
f 2/2/25 1/1/26 13/27/27
f 3/3/28 2/2/25 13/27/27
f 4/4/29 3/3/28 13/27/27
f 5/5/30 4/4/29 13/27/27
f 6/6/31 5/5/30 13/27/27
f 1/1/26 6/6/31 13/27/27
s 8
f 7/25/32 8/15/33 14/28/34
f 8/15/33 9/16/35 14/28/34
f 9/16/35 10/22/36 14/28/34
f 10/22/36 11/21/37 14/28/34
f 11/21/37 12/26/38 14/28/34
f 12/26/38 7/25/32 14/28/34
s 1
f 21/37/39 22/38/40 16/31/2 15/30/1
s 2
f 22/38/41 23/24/42 17/32/6 16/31/5
s 3
f 23/24/43 24/23/44 18/33/10 17/32/9
s 4
f 24/23/45 25/9/46 19/34/14 18/33/13
s 5
f 25/9/47 26/8/48 20/35/18 19/34/17
s 6
f 26/8/49 21/36/50 15/29/22 20/35/21
s 1
f 1/7/51 2/2/52 22/38/40 21/37/39
s 2
f 2/2/53 3/3/54 23/24/42 22/38/41
s 3
f 3/3/55 4/10/56 24/23/44 23/24/43
s 4
f 4/10/57 5/11/58 25/9/46 24/23/45
s 5
f 5/11/59 6/12/60 26/8/48 25/9/47
s 6
f 6/12/61 1/13/62 21/36/50 26/8/49
