# This file uses centimeters as units for non-parametric coordinates.

mtllib Prism_Medium.mtl
g default
v 0.083585 -0.551440 -0.144774
v -0.083585 -0.551440 -0.144774
v -0.167171 -0.563406 -0.000000
v -0.083585 -0.578120 0.144774
v 0.083585 -0.578120 0.144774
v 0.167171 -0.563406 -0.000000
v 0.087160 0.537229 -0.150966
v -0.087160 0.576241 -0.150966
v -0.174320 0.576241 -0.000000
v -0.087160 0.537229 0.150966
v 0.087160 0.495097 0.150966
v 0.174320 0.495097 -0.000000
v 0.000000 -0.563406 -0.000000
v 0.000000 0.537229 -0.000000
v 0.095170 0.525773 -0.164839
v -0.095170 0.568370 -0.164839
v -0.190340 0.568370 -0.000000
v -0.095170 0.525773 0.164839
v 0.095170 0.479769 0.164839
v 0.190340 0.479769 0.000000
v 0.095170 -0.538108 -0.164839
v -0.095170 -0.538108 -0.164839
v -0.190340 -0.551732 -0.000000
v -0.095170 -0.568486 0.164839
v 0.095170 -0.568486 0.164839
v 0.190340 -0.551732 0.000000
vt 0.576432 0.093362
vt 0.576349 0.134991
vt 0.612483 0.155878
vt 0.648762 0.135135
vt 0.648845 0.093506
vt 0.612648 0.072620
vt 0.654045 0.260247
vt 0.655276 0.218362
vt 0.652359 0.176740
vt 0.651273 0.135136
vt 0.654871 0.176747
vt 0.652543 0.051898
vt 0.655549 0.010259
vt 0.909879 0.260247
vt 0.918117 0.218466
vt 0.918183 0.176916
vt 0.908934 0.135316
vt 0.898949 0.093688
vt 0.899019 0.052076
vt 0.909119 0.010448
vt 0.992705 0.177035
vt 0.955380 0.156201
vt 0.655053 0.051900
vt 0.651351 0.093510
vt 0.955249 0.239300
vt 0.992640 0.218584
vt 0.612565 0.114248
vt 0.955317 0.197744
vt 0.906573 0.010447
vt 0.906120 0.260247
vt 0.915583 0.218494
vt 0.915648 0.176913
vt 0.906399 0.135312
vt 0.896413 0.093685
vt 0.896478 0.052072
vt 0.658055 0.010264
vt 0.657767 0.260247
vt 0.657794 0.218398
vn 0.420087 0.010571 -0.907422
vn -0.541677 0.011037 -0.840514
vn 0.124215 0.991651 -0.034641
vn 0.304547 0.951981 -0.031351
vn -0.999008 0.010940 -0.043163
vn 0.032107 0.991650 0.124894
vn -0.575386 0.010353 0.817816
vn 0.125122 0.951981 0.279421
vn 0.458786 0.009498 0.888496
vn 0.304755 0.909542 0.282591
vn 0.999129 0.009614 -0.040599
vn 0.397109 0.909542 0.122630
vn -0.090109 -0.968022 -0.234125
vn 0.090109 -0.968022 -0.234125
vn 0.000000 -0.995782 -0.091755
vn -0.180286 -0.979642 -0.088305
vn -0.090594 -0.994202 0.057922
vn 0.090594 -0.994202 0.057922
vn 0.180286 -0.979642 -0.088305
vn 0.224768 0.965733 0.129770
vn 0.501705 -0.013903 -0.864927
vn -0.516685 -0.013480 -0.856070
vn -0.999571 -0.013618 0.025937
vn -0.494544 -0.014449 0.869032
vn 0.478867 -0.014889 0.877761
vn 0.999576 -0.014479 0.025270
s 1
g pCylinder87
usemtl lambert2SG
f 15/30/1 16/31/2 8/15/3 7/14/4
f 16/31/2 17/32/5 9/16/6 8/15/3
f 17/32/5 18/33/7 10/17/8 9/16/6
f 18/33/7 19/34/9 11/18/10 10/17/8
f 19/34/9 20/35/11 12/19/12 11/18/10
f 20/35/11 15/29/1 7/20/4 12/19/12
f 2/2/13 1/1/14 13/27/15
f 3/3/16 2/2/13 13/27/15
f 4/4/17 3/3/16 13/27/15
f 5/5/18 4/4/17 13/27/15
f 6/6/19 5/5/18 13/27/15
f 1/1/14 6/6/19 13/27/15
f 7/25/4 8/15/3 14/28/20
f 8/15/3 9/16/6 14/28/20
f 9/16/6 10/22/8 14/28/20
f 10/22/8 11/21/10 14/28/20
f 11/21/10 12/26/12 14/28/20
f 12/26/12 7/25/4 14/28/20
f 21/37/21 22/38/22 16/31/2 15/30/1
f 22/38/22 23/11/23 17/32/5 16/31/2
f 23/11/23 24/10/24 18/33/7 17/32/5
f 24/10/24 25/24/25 19/34/9 18/33/7
f 25/24/25 26/23/26 20/35/11 19/34/9
f 26/23/26 21/36/21 15/29/1 20/35/11
f 1/7/14 2/8/13 22/38/22 21/37/21
f 2/8/13 3/9/16 23/11/23 22/38/22
f 3/9/16 4/4/17 24/10/24 23/11/23
f 4/4/17 5/5/18 25/24/25 24/10/24
f 5/5/18 6/12/19 26/23/26 25/24/25
f 6/12/19 1/13/14 21/36/21 26/23/26
