# This file uses centimeters as units for non-parametric coordinates.

mtllib MED_Fern1.mtl
g default
v -0.696627 0.337903 0.067440
v -0.541109 0.437755 0.191967
v -0.324297 0.415414 0.240478
v -0.130686 0.263364 0.240478
v -0.002619 0.000000 0.122783
v -0.696627 0.337903 -0.068974
v -0.541109 0.437755 -0.193501
v -0.324297 0.415414 -0.242012
v -0.130686 0.263364 -0.242012
v -0.002619 0.000000 -0.124318
v -0.110926 0.392735 0.658405
v 0.049742 0.481670 0.532150
v 0.151663 0.442898 0.337291
v 0.199888 0.276002 0.162868
v 0.116865 0.001713 0.030628
v -0.242853 0.390844 0.623737
v -0.323038 0.476325 0.434196
v -0.314943 0.436207 0.214683
v -0.266718 0.269311 0.040260
v -0.122095 -0.001713 -0.032166
v 0.565313 0.464617 0.248367
v 0.478826 0.532821 0.054641
v 0.322500 0.469352 -0.091630
v 0.183164 0.283023 -0.172074
v 0.059164 -0.000000 -0.107766
v 0.497106 0.464617 0.366508
v 0.286093 0.532821 0.388469
v 0.081251 0.469352 0.326221
v -0.058085 0.283023 0.245773
v -0.064387 0.000000 0.106231
v 0.477331 0.184609 -0.580464
v 0.297087 0.315530 -0.574677
v 0.110166 0.339540 -0.454903
v -0.045984 0.231638 -0.298131
v -0.090349 0.000576 -0.087761
v 0.574201 0.183973 -0.484417
v 0.570806 0.313734 -0.303269
v 0.452780 0.337292 -0.115185
v 0.296629 0.229390 0.041584
v 0.085111 -0.000576 0.086223
v -0.324930 0.564488 -0.422612
v -0.342272 0.601867 -0.203602
v -0.287111 0.503194 -0.011040
v -0.224047 0.291782 0.098197
v -0.109614 0.000000 0.061004
v -0.206789 0.564488 -0.490818
v -0.008448 0.601867 -0.396336
v 0.130735 0.503194 -0.252282
v 0.193800 0.291782 -0.143048
v 0.104376 0.000000 -0.062546
v -0.536867 0.126624 -0.316563
v -0.512835 0.237259 -0.173867
v -0.392985 0.263593 -0.038762
v -0.243502 0.182517 0.068817
v -0.061602 0.000000 0.081199
v -0.471735 0.126624 -0.407067
v -0.328791 0.237259 -0.429600
v -0.162615 0.263593 -0.358860
v -0.013140 0.182517 -0.251286
v 0.056379 0.000000 -0.082737
v -0.459269 0.052808 0.445262
v -0.324465 0.176264 0.468025
v -0.164560 0.223894 0.389118
v -0.013834 0.164635 0.265930
v 0.062010 0.000000 0.078308
v -0.530626 0.052808 0.357955
v -0.526095 0.176264 0.221321
v -0.416933 0.223894 0.080318
v -0.266207 0.164635 -0.042870
v -0.067248 0.000000 -0.079842
v 0.312872 0.131073 0.558837
v 0.365187 0.245595 0.418479
v 0.327665 0.272854 0.235332
v 0.249342 0.188930 0.061531
v 0.092687 0.000000 -0.043717
v 0.207640 0.131073 0.606262
v 0.067839 0.245595 0.552478
v -0.044520 0.272854 0.403057
v -0.122843 0.188930 0.229255
v -0.097925 0.000000 0.042182
v 0.563703 0.130220 -0.070263
v 0.464720 0.216913 -0.175213
v 0.301023 0.230833 -0.213292
v 0.133695 0.150449 -0.203003
v -0.002909 -0.011245 -0.093400
v 0.564024 0.142636 0.032009
v 0.465635 0.251997 0.113784
v 0.302175 0.274747 0.148445
v 0.134840 0.194363 0.158737
v -0.002321 0.011245 0.091861
v -0.000811 -0.002705 -0.704274
v -0.123408 0.139105 -0.628163
v -0.185099 0.206834 -0.447327
v -0.204188 0.160226 -0.229577
v -0.114313 -0.001690 -0.010926
v 0.122518 -0.000839 -0.693062
v 0.225073 0.144379 -0.596486
v 0.251089 0.213436 -0.407673
v 0.232000 0.166827 -0.189923
v 0.109075 0.001690 0.009384
v 0.525770 0.116977 -0.532441
v 0.433943 0.247318 -0.438973
v 0.281477 0.271102 -0.285042
v 0.125318 0.163200 -0.128273
v -0.002619 0.000000 -0.000771
v 0.060850 -0.069086 -0.698670
v 0.050833 0.074428 -0.612324
v 0.032995 0.142821 -0.427498
v 0.013906 0.096212 -0.209748
v -0.002619 0.000000 -0.000771
v 0.531210 0.397302 0.307437
v 0.382459 0.465507 0.221557
v 0.201872 0.402038 0.117294
v 0.062544 0.215709 0.036850
v -0.002611 -0.000000 -0.000767
v -0.696627 0.270589 -0.000767
v -0.541109 0.370441 -0.000767
v -0.324297 0.348100 -0.000767
v -0.130686 0.196050 -0.000767
v -0.002619 -0.000000 -0.000767
v -0.504305 0.059310 -0.361817
v -0.420809 0.169945 -0.301735
v -0.277804 0.196279 -0.198811
v -0.128321 0.115203 -0.091233
v -0.002611 -0.000000 -0.000771
v -0.265856 0.497174 -0.456715
v -0.175356 0.534553 -0.299969
v -0.078188 0.435879 -0.131661
v -0.015124 0.224468 -0.022423
v -0.002619 -0.000000 -0.000771
v -0.494951 -0.014506 0.401611
v -0.425280 0.108949 0.344673
v -0.290743 0.156580 0.234718
v -0.140017 0.097321 0.111530
v -0.002619 -0.000000 -0.000767
v 0.563864 0.069114 -0.019127
v 0.465177 0.167140 -0.030716
v 0.301603 0.185476 -0.032425
v 0.134268 0.105092 -0.022133
v -0.002611 -0.000000 -0.000771
v 0.260252 0.063758 0.582550
v 0.216513 0.178281 0.485481
v 0.141569 0.205539 0.319194
v 0.063246 0.121615 0.145393
v -0.002619 -0.000000 -0.000767
v -0.176890 0.324475 0.641071
v -0.136645 0.411683 0.483173
v -0.081637 0.372238 0.275985
v -0.033419 0.205343 0.101562
v -0.002611 -0.000000 -0.000771
vt 0.102185 0.947899
vt 0.074102 0.906222
vt 0.161029 0.906222
vt 0.132947 0.947899
vt 0.063163 0.857069
vt 0.171969 0.857070
vt 0.063163 0.801554
vt 0.171969 0.801554
vt 0.089704 0.735514
vt 0.145427 0.735514
vt 0.102185 0.947899
vt 0.074102 0.906222
vt 0.161029 0.906222
vt 0.132947 0.947899
vt 0.063163 0.857069
vt 0.171969 0.857070
vt 0.063163 0.801554
vt 0.171969 0.801554
vt 0.089704 0.735514
vt 0.145427 0.735514
vt 0.102185 0.947899
vt 0.074102 0.906222
vt 0.161029 0.906222
vt 0.132947 0.947899
vt 0.063163 0.857069
vt 0.171969 0.857070
vt 0.063163 0.801554
vt 0.171969 0.801554
vt 0.089704 0.735514
vt 0.145427 0.735514
vt 0.102185 0.947899
vt 0.074102 0.906222
vt 0.161029 0.906222
vt 0.132947 0.947899
vt 0.063163 0.857069
vt 0.171969 0.857070
vt 0.063163 0.801554
vt 0.171969 0.801554
vt 0.089704 0.735514
vt 0.145427 0.735514
vt 0.102185 0.947899
vt 0.074102 0.906222
vt 0.161029 0.906222
vt 0.132947 0.947899
vt 0.063163 0.857069
vt 0.171969 0.857070
vt 0.063163 0.801554
vt 0.171969 0.801554
vt 0.089704 0.735514
vt 0.145427 0.735514
vt 0.102185 0.947899
vt 0.074102 0.906222
vt 0.161029 0.906222
vt 0.132947 0.947899
vt 0.063163 0.857069
vt 0.171969 0.857070
vt 0.063163 0.801554
vt 0.171969 0.801554
vt 0.089704 0.735514
vt 0.145427 0.735514
vt 0.102185 0.947899
vt 0.074102 0.906222
vt 0.161029 0.906222
vt 0.132947 0.947899
vt 0.063163 0.857069
vt 0.171969 0.857070
vt 0.063163 0.801554
vt 0.171969 0.801554
vt 0.089704 0.735514
vt 0.145427 0.735514
vt 0.102185 0.947899
vt 0.074102 0.906222
vt 0.161029 0.906222
vt 0.132947 0.947899
vt 0.063163 0.857069
vt 0.171969 0.857070
vt 0.063163 0.801554
vt 0.171969 0.801554
vt 0.089704 0.735514
vt 0.145427 0.735514
vt 0.102185 0.947899
vt 0.074102 0.906222
vt 0.161029 0.906222
vt 0.132947 0.947899
vt 0.063163 0.857069
vt 0.171969 0.857070
vt 0.063163 0.801554
vt 0.171969 0.801554
vt 0.089704 0.735514
vt 0.145427 0.735514
vt 0.102185 0.947899
vt 0.074102 0.906222
vt 0.161029 0.906222
vt 0.132947 0.947899
vt 0.063163 0.857069
vt 0.171969 0.857070
vt 0.063163 0.801554
vt 0.171969 0.801554
vt 0.089704 0.735514
vt 0.145427 0.735514
vt 0.117566 0.947899
vt 0.117566 0.906222
vt 0.117566 0.857070
vt 0.117566 0.801554
vt 0.117566 0.735514
vt 0.117566 0.947899
vt 0.117566 0.906222
vt 0.117566 0.857070
vt 0.117566 0.801554
vt 0.117566 0.735514
vt 0.117566 0.947899
vt 0.117566 0.906222
vt 0.117566 0.857070
vt 0.117566 0.801554
vt 0.117566 0.735514
vt 0.117566 0.947899
vt 0.117566 0.906222
vt 0.117566 0.857070
vt 0.117566 0.801554
vt 0.117566 0.735514
vt 0.117566 0.947899
vt 0.117566 0.906222
vt 0.117566 0.857070
vt 0.117566 0.801554
vt 0.117566 0.735514
vt 0.117566 0.947899
vt 0.117566 0.906222
vt 0.117566 0.857070
vt 0.117566 0.801554
vt 0.117566 0.735514
vt 0.117566 0.947899
vt 0.117566 0.906222
vt 0.117566 0.857070
vt 0.117566 0.801554
vt 0.117566 0.735514
vt 0.117566 0.947899
vt 0.117566 0.906222
vt 0.117566 0.857070
vt 0.117566 0.801554
vt 0.117566 0.735514
vt 0.117566 0.947899
vt 0.117566 0.906222
vt 0.117566 0.857070
vt 0.117566 0.801554
vt 0.117566 0.735514
vt 0.117566 0.947899
vt 0.117566 0.906222
vt 0.117566 0.857070
vt 0.117566 0.801554
vt 0.117566 0.735514
vn -0.399308 0.916817 -0.000002
vn -0.045583 0.998961 -0.000001
vn 0.037941 0.944574 0.326099
vn -0.360980 0.828769 0.427593
vn 0.432410 0.901677 0.000000
vn 0.405392 0.876886 0.258319
vn 0.753433 0.657524 0.000000
vn 0.689486 0.701201 0.181454
vn 0.863079 0.505068 0.000000
vn 0.859359 0.502882 0.092794
vn 0.332746 0.942668 -0.025635
vn 0.343077 0.856256 0.386166
vn -0.095018 0.947204 0.306228
vn -0.003816 0.999208 -0.039600
vn 0.350816 0.849098 -0.394919
vn 0.116703 0.863244 -0.491111
vn 0.344041 0.647093 -0.680372
vn 0.197401 0.589713 -0.783117
vn 0.224317 0.423890 -0.877496
vn 0.299442 0.423865 -0.854794
vn 0.178041 0.978641 0.102782
vn -0.133680 0.988014 -0.077185
vn -0.017776 0.922264 -0.386153
vn 0.384285 0.873597 -0.298585
vn -0.521126 0.798685 -0.300881
vn -0.368717 0.793439 -0.484255
vn -0.757447 0.484795 -0.437319
vn -0.635045 0.555951 -0.536317
vn -0.825911 0.300822 -0.476841
vn -0.796922 0.300345 -0.524127
vn 0.425311 0.800148 -0.422935
vn 0.191218 0.963667 -0.186497
vn -0.113105 0.937456 -0.329217
vn 0.120879 0.741299 -0.660200
vn -0.155720 0.974182 0.163468
vn -0.347621 0.937051 -0.033099
vn -0.408374 0.811911 0.417171
vn -0.513863 0.827846 0.224980
vn -0.502742 0.696652 0.511787
vn -0.589261 0.691637 0.417624
vn -0.014491 0.999579 -0.025140
vn 0.163639 0.944925 0.283443
vn -0.096637 0.879019 0.466891
vn -0.409864 0.888382 0.206855
vn 0.367041 0.679067 0.635727
vn 0.165423 0.694452 0.700266
vn 0.475582 0.308771 0.823700
vn 0.359514 0.402495 0.841872
vn 0.497478 0.100625 0.861621
vn 0.481337 0.100607 0.870743
vn -0.492455 0.794902 -0.354428
vn -0.236706 0.956532 -0.170342
vn -0.356269 0.911793 0.204221
vn -0.702104 0.710505 0.047247
vn 0.154583 0.981697 0.111247
vn -0.043770 0.925263 0.376792
vn 0.436381 0.843175 0.314051
vn 0.228756 0.842595 0.487549
vn 0.539955 0.746621 0.388594
vn 0.435375 0.736226 0.518093
vn -0.551563 0.701813 0.450818
vn -0.320861 0.910095 0.262249
vn 0.011585 0.891912 0.452060
vn -0.251294 0.642845 0.723603
vn 0.051573 0.997779 -0.042149
vn 0.271890 0.939942 0.206362
vn 0.329654 0.904841 -0.269426
vn 0.455502 0.889956 -0.022277
vn 0.434044 0.828107 -0.354745
vn 0.541858 0.814304 -0.208082
vn 0.251454 0.790837 0.557985
vn 0.121034 0.955620 0.268590
vn 0.402120 0.915542 0.009098
vn 0.622499 0.712334 0.324152
vn -0.077918 0.981852 -0.172903
vn 0.216973 0.928733 -0.300630
vn -0.221819 0.841744 -0.492203
vn 0.036232 0.843413 -0.536043
vn -0.274988 0.743003 -0.610187
vn -0.125622 0.733436 -0.668050
vn 0.561107 0.818412 -0.123937
vn 0.246892 0.962027 -0.116399
vn 0.137206 0.860375 -0.490846
vn 0.509750 0.667874 -0.542309
vn -0.229329 0.966443 -0.115740
vn -0.216097 0.869264 -0.444615
vn -0.565686 0.819046 -0.095724
vn -0.497867 0.787967 -0.362266
vn -0.687374 0.720635 -0.090570
vn -0.681500 0.687592 -0.250548
vn 0.059756 0.614888 -0.786347
vn 0.032688 0.863542 -0.503217
vn -0.294583 0.871092 -0.392963
vn -0.266823 0.575303 -0.773196
vn -0.012733 0.999591 -0.025623
vn -0.317254 0.947971 -0.026474
vn -0.045446 0.937044 0.346242
vn -0.291751 0.916730 0.272922
vn -0.058247 0.869459 0.490559
vn -0.229639 0.853434 0.467884
vn 0.663464 0.737933 -0.123573
vn 0.336053 0.934735 0.115496
vn 0.041757 0.934696 0.352986
vn -0.215575 0.825937 0.520917
vn -0.408337 0.690300 0.597283
vn 0.390044 0.585779 -0.710443
vn 0.337386 0.880242 -0.333683
vn 0.290869 0.956320 0.029116
vn 0.212158 0.923940 0.318315
vn 0.117016 0.858985 0.498450
vn -0.066437 0.873591 0.482105
vn -0.343311 0.922262 0.177679
vn -0.603729 0.793443 -0.077198
vn -0.781977 0.555959 -0.281818
vn -0.852359 0.300373 -0.428089
vn -0.360946 0.828781 -0.427599
vn 0.037940 0.944574 -0.326099
vn 0.405391 0.876886 -0.258319
vn 0.689484 0.701203 -0.181454
vn 0.859351 0.502896 -0.092797
vn -0.178233 0.710463 -0.680790
vn 0.080496 0.911800 -0.402668
vn 0.343386 0.925262 -0.161173
vn 0.534973 0.842586 0.062074
vn 0.629519 0.736249 0.248281
vn 0.384027 0.888410 -0.251497
vn 0.452621 0.879039 0.149746
vn 0.523730 0.694462 0.493386
vn 0.549345 0.402498 0.732267
vn 0.513449 0.100609 0.852202
vn -0.759147 0.642836 0.102259
vn -0.440701 0.891917 -0.101329
vn -0.148124 0.939942 -0.307518
vn 0.112491 0.889959 -0.441948
vn 0.311772 0.814315 -0.489580
vn 0.463902 0.771346 0.435684
vn 0.122472 0.943600 0.307603
vn -0.213444 0.943109 0.254927
vn -0.490095 0.851045 0.188489
vn -0.671790 0.734783 0.093770
vn -0.169518 0.712344 0.681051
vn -0.259533 0.915542 0.307286
vn -0.368946 0.928730 -0.036589
vn -0.425595 0.843403 -0.327934
vn -0.417267 0.733440 -0.536615
vn -0.506964 0.845857 0.165871
vn -0.299929 0.934692 -0.190770
vn -0.132146 0.842646 -0.522002
vn 0.018861 0.642442 -0.766102
vn 0.148660 0.421347 -0.894633
s 1
g pasted__polySurface488 group
usemtl pasted__lambert14SG
f 116/116/1 117/117/2 7/3/3 6/4/4
f 117/117/2 118/118/5 8/6/6 7/3/3
f 118/118/5 119/119/7 9/8/8 8/6/6
f 119/119/7 120/120/9 10/10/10 9/8/8
s 2
f 17/13/11 16/14/12 146/146/13 147/147/14
f 18/16/15 17/13/11 147/147/14 148/148/16
f 19/18/17 18/16/15 148/148/16 149/149/18
f 149/149/18 150/150/19 20/20/20 19/18/17
s 3
f 111/111/21 112/112/22 27/23/23 26/24/24
f 112/112/22 113/113/25 28/26/26 27/23/23
f 113/113/25 114/114/27 29/28/28 28/26/26
f 114/114/27 115/115/29 30/30/30 29/28/28
s 4
f 101/101/31 102/102/32 37/33/33 36/34/34
f 102/102/32 103/103/35 38/36/36 37/33/33
f 103/103/35 104/104/37 39/38/38 38/36/36
f 104/104/37 105/105/39 40/40/40 39/38/38
s 5
f 126/126/41 127/127/42 47/43/43 46/44/44
f 127/127/42 128/128/45 48/46/46 47/43/43
f 128/128/45 129/129/47 49/48/48 48/46/46
f 129/129/47 130/130/49 50/50/50 49/48/48
s 6
f 121/121/51 122/122/52 57/53/53 56/54/54
f 122/122/52 123/123/55 58/56/56 57/53/53
f 123/123/55 124/124/57 59/58/58 58/56/56
f 124/124/57 125/125/59 60/60/60 59/58/58
s 7
f 131/131/61 132/132/62 67/63/63 66/64/64
f 132/132/62 133/133/65 68/66/66 67/63/63
f 133/133/65 134/134/67 69/68/68 68/66/66
f 134/134/67 135/135/69 70/70/70 69/68/68
s 8
f 141/141/71 142/142/72 77/73/73 76/74/74
f 142/142/72 143/143/75 78/76/76 77/73/73
f 143/143/75 144/144/77 79/78/78 78/76/76
f 144/144/77 145/145/79 80/80/80 79/78/78
s 9
f 136/136/81 137/137/82 87/83/83 86/84/84
f 137/137/82 138/138/85 88/86/86 87/83/83
f 138/138/85 139/139/87 89/88/88 88/86/86
f 139/139/87 140/140/89 90/90/90 89/88/88
s 10
f 106/106/91 107/107/92 97/93/93 96/94/94
f 107/107/92 108/108/95 98/96/96 97/93/93
f 108/108/95 109/109/97 99/98/98 98/96/96
f 109/109/97 110/110/99 100/100/100 99/98/98
s 4
f 31/31/101 32/32/102 102/102/32 101/101/31
f 32/32/102 33/35/103 103/103/35 102/102/32
f 33/35/103 34/37/104 104/104/37 103/103/35
f 34/37/104 35/39/105 105/105/39 104/104/37
s 10
f 91/91/106 92/92/107 107/107/92 106/106/91
f 92/92/107 93/95/108 108/108/95 107/107/92
f 93/95/108 94/97/109 109/109/97 108/108/95
f 94/97/109 95/99/110 110/110/99 109/109/97
s 3
f 21/21/111 22/22/112 112/112/22 111/111/21
f 22/22/112 23/25/113 113/113/25 112/112/22
f 23/25/113 24/27/114 114/114/27 113/113/25
f 24/27/114 25/29/115 115/115/29 114/114/27
s 1
f 1/1/116 2/2/117 117/117/2 116/116/1
f 2/2/117 3/5/118 118/118/5 117/117/2
f 3/5/118 4/7/119 119/119/7 118/118/5
f 4/7/119 5/9/120 120/120/9 119/119/7
s 6
f 51/51/121 52/52/122 122/122/52 121/121/51
f 52/52/122 53/55/123 123/123/55 122/122/52
f 53/55/123 54/57/124 124/124/57 123/123/55
f 54/57/124 55/59/125 125/125/59 124/124/57
s 5
f 41/41/126 42/42/127 127/127/42 126/126/41
f 42/42/127 43/45/128 128/128/45 127/127/42
f 43/45/128 44/47/129 129/129/47 128/128/45
f 44/47/129 45/49/130 130/130/49 129/129/47
s 7
f 61/61/131 62/62/132 132/132/62 131/131/61
f 62/62/132 63/65/133 133/133/65 132/132/62
f 63/65/133 64/67/134 134/134/67 133/133/65
f 64/67/134 65/69/135 135/135/69 134/134/67
s 9
f 81/81/136 82/82/137 137/137/82 136/136/81
f 82/82/137 83/85/138 138/138/85 137/137/82
f 83/85/138 84/87/139 139/139/87 138/138/85
f 84/87/139 85/89/140 140/140/89 139/139/87
s 8
f 71/71/141 72/72/142 142/142/72 141/141/71
f 72/72/142 73/75/143 143/143/75 142/142/72
f 73/75/143 74/77/144 144/144/77 143/143/75
f 74/77/144 75/79/145 145/145/79 144/144/77
s 2
f 147/147/14 146/146/13 11/11/146 12/12/147
f 148/148/16 147/147/14 12/12/147 13/15/148
f 149/149/18 148/148/16 13/15/148 14/17/149
f 15/19/150 150/150/19 149/149/18 14/17/149
