# This file uses centimeters as units for non-parametric coordinates.

mtllib TINY_Tallgrass1.mtl
g default
v -0.313530 0.000000 0.072570
v -0.313530 0.908468 0.219998
v 0.313530 0.000000 0.072570
v 0.313530 0.908468 0.219998
v 0.000000 0.000000 0.000000
v 0.000000 1.064503 0.177199
v -0.313530 0.496769 0.072570
v 0.000000 0.496769 0.000000
v 0.313522 0.496769 0.072570
v -0.313530 0.766599 0.134087
v 0.000000 0.855331 0.069622
v 0.313522 0.766599 0.134087
vt 0.373640 0.726421
vt 0.373640 0.933474
vt 0.224643 0.933474
vt 0.224643 0.726421
vt 0.299142 0.726421
vt 0.299142 0.933474
vt 0.373640 0.808374
vt 0.299142 0.808374
vt 0.224643 0.808374
vt 0.373640 0.874964
vt 0.299142 0.874964
vt 0.224643 0.874964
vn -0.000000 -0.303834 0.952725
vn -0.275715 -0.314468 0.908345
vn -0.320402 -0.457262 0.829611
vn -0.000000 -0.482713 0.875779
vn 0.275711 -0.314471 0.908346
vn 0.320399 -0.457269 0.829608
vn 0.225495 0.000000 0.974244
vn -0.000000 0.000000 1.000000
vn -0.000000 -0.072500 0.997368
vn 0.231166 -0.086242 0.969084
vn -0.225498 0.000000 0.974244
vn -0.231170 -0.086240 0.969084
s 1
g pasted__polySurface498 group
usemtl pasted__lambert14SG
f 11/11/1 12/12/2 4/3/3 6/6/4
f 10/10/5 11/11/1 6/6/4 2/2/6
f 1/1/7 5/5/8 8/8/9 7/7/10
f 5/5/8 3/4/11 9/9/12 8/8/9
f 7/7/10 8/8/9 11/11/1 10/10/5
f 8/8/9 9/9/12 12/12/2 11/11/1
