# This file uses centimeters as units for non-parametric coordinates.

mtllib MED_Fern4.mtl
g default
v -0.117454 -0.018827 -0.000484
v 0.117226 -0.018827 -0.000484
v -0.179092 0.235605 -0.070361
v 0.178864 0.235605 -0.103923
v -0.194648 0.401495 -0.231383
v 0.200509 0.350169 -0.239993
v -0.149002 0.455038 -0.486781
v 0.148774 0.455038 -0.486781
v -0.034835 0.344360 -0.695636
v 0.034607 0.344360 -0.695636
v 0.044465 -0.018829 0.108041
v -0.044700 -0.018824 -0.109016
v -0.021514 0.229029 0.198296
v -0.157524 0.223940 -0.132781
v -0.181289 0.376442 0.278481
v -0.329116 0.370911 -0.081367
v -0.439025 0.400967 0.334634
v -0.552162 0.396734 0.059220
v -0.662460 0.266416 0.305054
v -0.688842 0.265428 0.240815
v 0.045907 -0.018827 -0.108421
v -0.046134 -0.018827 0.107453
v 0.073136 0.238748 -0.103240
v -0.016738 0.238748 0.186993
v 0.252617 0.394320 -0.096706
v 0.117631 0.412333 0.261197
v 0.484551 0.449307 0.044301
v 0.367768 0.478334 0.318219
v 0.636658 0.378029 0.233266
v 0.609421 0.378029 0.297147
v 0.094987 -0.018840 -0.095290
v -0.095214 -0.018813 0.094315
v 0.263764 0.227464 -0.008605
v -0.026367 0.204291 0.280610
v 0.445138 0.329768 0.156243
v 0.129792 0.304584 0.470589
v 0.617463 0.267270 0.398331
v 0.376114 0.247994 0.638917
v 0.653077 0.048885 0.602219
v 0.596787 0.044390 0.658326
v -0.115508 -0.018827 -0.069583
v 0.115281 -0.018827 0.068616
v -0.079849 0.210314 -0.266650
v 0.272172 0.132308 -0.055858
v 0.032227 0.303861 -0.488528
v 0.414841 0.222886 -0.259410
v 0.226639 0.234842 -0.711337
v 0.519471 0.205121 -0.535983
v 0.460984 0.147562 -0.842628
v 0.529099 0.158643 -0.802943
v -0.037445 -0.018816 0.128583
v 0.037217 -0.018837 -0.129565
v -0.230834 0.187952 0.156293
v -0.116958 0.281774 -0.237476
v -0.471122 0.291273 0.110181
v -0.347351 0.386689 -0.317798
v -0.738098 0.237349 -0.024051
v -0.643371 0.328088 -0.351611
v -0.938514 0.209661 -0.206378
v -0.916419 0.213219 -0.282779
v 0.121064 -0.018835 0.057679
v -0.121292 -0.018818 -0.058646
v 0.097657 0.219147 0.252198
v -0.272018 0.204553 0.074769
v 0.003724 0.315482 0.481194
v -0.398071 0.299621 0.288346
v -0.167480 0.247254 0.722512
v -0.483169 0.193403 0.594941
v -0.349700 0.027534 0.817635
v -0.421432 0.024703 0.783219
v -0.000114 -0.018749 -0.000484
v 0.096161 0.165133 -0.161254
v 0.223534 0.258679 -0.373969
v 0.373055 0.189661 -0.623660
v 0.513207 0.117619 -0.844054
v -0.000114 -0.018749 -0.000484
v -0.000114 0.190424 -0.070361
v -0.000114 0.335997 -0.231383
v -0.000114 0.389540 -0.486781
v -0.000114 0.299179 -0.695636
v -0.000114 -0.018749 -0.000491
v -0.173896 0.172854 -0.040591
v -0.409240 0.276972 -0.103809
v -0.690734 0.220709 -0.187831
v -0.927467 0.203939 -0.244579
v -0.000122 -0.018749 -0.000487
v -0.089523 0.181304 0.032758
v -0.255203 0.304911 0.098557
v -0.495590 0.330086 0.196927
v -0.675651 0.220741 0.272935
v -0.000114 -0.018749 -0.000484
v -0.087181 0.166668 0.163483
v -0.197174 0.262370 0.384770
v -0.321243 0.196003 0.648717
v -0.385566 -0.019063 0.800427
v -0.000114 -0.018749 -0.000484
v 0.053460 0.193567 0.022355
v 0.193925 0.367152 0.082246
v 0.426163 0.433153 0.181260
v 0.623040 0.332848 0.265206
v -0.000114 -0.018749 -0.000487
v 0.118699 0.170696 0.136002
v 0.287461 0.271995 0.313416
v 0.496789 0.212451 0.518624
v 0.624932 0.001456 0.630273
v -0.464698 0.235114 0.584847
v 0.283753 0.352476 -0.074168
vt 0.414023 0.723392
vt 0.473816 0.723392
vt 0.489521 0.786006
vt 0.398317 0.786006
vt 0.493485 0.844910
vt 0.394354 0.844910
vt 0.481855 0.911396
vt 0.405984 0.911396
vt 0.452767 0.971620
vt 0.435072 0.971620
vt 0.414023 0.723392
vt 0.473816 0.723392
vt 0.489521 0.786006
vt 0.398317 0.786006
vt 0.493485 0.844910
vt 0.394354 0.844910
vt 0.481855 0.911396
vt 0.405984 0.911396
vt 0.452767 0.971620
vt 0.435072 0.971620
vt 0.414023 0.723392
vt 0.473816 0.723392
vt 0.489522 0.786006
vt 0.398317 0.786006
vt 0.493484 0.844910
vt 0.394354 0.844910
vt 0.481854 0.911396
vt 0.405984 0.911396
vt 0.452767 0.971620
vt 0.435072 0.971620
vt 0.414023 0.723392
vt 0.473816 0.723392
vt 0.489523 0.786006
vt 0.398317 0.786007
vt 0.493486 0.844909
vt 0.394355 0.844911
vt 0.481856 0.911397
vt 0.405985 0.911397
vt 0.452768 0.971622
vt 0.435074 0.971622
vt 0.414023 0.723392
vt 0.473816 0.723392
vt 0.489521 0.786006
vt 0.398317 0.786006
vt 0.493485 0.844910
vt 0.394354 0.844909
vt 0.481854 0.911396
vt 0.405985 0.911397
vt 0.452767 0.971620
vt 0.435072 0.971620
vt 0.414023 0.723392
vt 0.473816 0.723392
vt 0.489520 0.786006
vt 0.398316 0.786006
vt 0.493484 0.844911
vt 0.394352 0.844910
vt 0.481852 0.911398
vt 0.405983 0.911397
vt 0.452764 0.971622
vt 0.435069 0.971622
vt 0.414023 0.723392
vt 0.473816 0.723392
vt 0.489523 0.786005
vt 0.398317 0.786008
vt 0.493485 0.844910
vt 0.394355 0.844910
vt 0.481856 0.911397
vt 0.405985 0.911397
vt 0.452768 0.971622
vt 0.435074 0.971622
vt 0.443919 0.723392
vt 0.443919 0.786006
vt 0.443919 0.844910
vt 0.443919 0.911396
vt 0.443919 0.971620
vt 0.443919 0.723392
vt 0.443919 0.786006
vt 0.443919 0.844910
vt 0.443919 0.911396
vt 0.443919 0.971620
vt 0.443919 0.723392
vt 0.443918 0.786006
vt 0.443918 0.844910
vt 0.443918 0.911397
vt 0.443917 0.971622
vt 0.443919 0.723392
vt 0.443919 0.786006
vt 0.443919 0.844910
vt 0.443919 0.911396
vt 0.443919 0.971620
vt 0.443919 0.723392
vt 0.443920 0.786007
vt 0.443920 0.844910
vt 0.443921 0.911397
vt 0.443921 0.971622
vt 0.443919 0.723392
vt 0.443919 0.786006
vt 0.443919 0.844910
vt 0.443919 0.911396
vt 0.443919 0.971620
vt 0.443919 0.723392
vt 0.443920 0.786007
vt 0.443920 0.844910
vt 0.443920 0.911397
vt 0.443921 0.971622
vt 0.481856 0.911397
vt 0.394354 0.844910
vn 0.044733 0.293771 0.954829
vn 0.049380 0.318906 0.946499
vn 0.073607 0.521739 0.849924
vn 0.159408 0.587395 0.793446
vn 0.088697 0.869384 0.486111
vn 0.297680 0.851173 0.432310
vn 0.054846 0.993500 0.099744
vn 0.389664 0.913352 0.118106
vn -0.000000 0.953377 -0.301783
vn 0.498247 0.826615 -0.261644
vn 0.822418 0.397492 -0.406974
vn 0.846003 0.400589 -0.351862
vn 0.726256 0.615244 -0.306640
vn 0.591567 0.668946 -0.450068
vn 0.349751 0.923473 -0.157707
vn 0.184181 0.881659 -0.434459
vn -0.045299 0.998967 0.003573
vn -0.132766 0.910140 -0.392452
vn -0.377287 0.915630 0.138842
vn -0.515798 0.790355 -0.330593
vn -0.955647 0.178307 -0.234406
vn -0.917202 0.216012 -0.334782
vn -0.831693 0.466524 -0.301068
vn -0.833352 0.544315 -0.096153
vn -0.461840 0.848238 -0.259222
vn -0.715152 0.698737 -0.018026
vn -0.286208 0.947911 -0.139822
vn -0.043688 0.986775 -0.156096
vn -0.187455 0.982246 -0.007299
vn 0.312594 0.948474 0.051789
vn 0.141651 0.909549 0.390713
vn -0.612396 0.641095 -0.462567
vn -0.550644 0.655333 -0.517039
vn -0.434992 0.815534 -0.381688
vn -0.510205 0.828435 -0.231055
vn -0.110694 0.993353 -0.031578
vn -0.260159 0.958605 0.115730
vn 0.237106 0.920203 0.311459
vn -0.000538 0.913808 0.406146
vn 0.486709 0.677573 0.551371
vn 0.280414 0.635552 0.719334
vn -0.297731 0.677667 0.672402
vn -0.291461 0.706692 0.644699
vn -0.150572 0.845341 0.512569
vn -0.114692 0.855425 0.505068
vn 0.096326 0.983509 0.153075
vn 0.147258 0.974038 0.171945
vn 0.188572 0.976441 -0.104901
vn 0.308677 0.949394 -0.058058
vn 0.136158 0.978903 -0.152351
vn 0.365699 0.930183 -0.031993
vn 0.720888 0.669914 0.177584
vn 0.716062 0.630003 0.300585
vn 0.531971 0.789710 0.305558
vn 0.523317 0.846580 0.097168
vn 0.045441 0.966786 0.251517
vn 0.129130 0.990868 -0.038799
vn -0.191329 0.965326 0.177594
vn -0.123957 0.984678 -0.122654
vn -0.134146 0.974775 0.178376
vn -0.035247 0.992144 -0.120034
vn 0.228595 0.663125 -0.712748
vn 0.305296 0.673416 -0.673279
vn 0.219089 0.829654 -0.513492
vn 0.050113 0.844186 -0.533703
vn 0.003586 0.996166 -0.087405
vn -0.188326 0.965605 -0.179278
vn -0.214388 0.917135 0.336008
vn -0.373673 0.913338 0.161807
vn -0.375867 0.661548 0.648905
vn -0.575538 0.625467 0.526828
vn -0.284098 0.736932 0.613367
vn -0.146852 0.865717 0.478507
vn 0.031917 0.987884 0.151876
vn 0.071296 0.987594 -0.139907
vn -0.119140 0.955732 -0.269039
vn 0.053908 0.343364 0.937654
vn -0.011685 0.632649 0.774351
vn -0.139019 0.871898 0.469539
vn -0.282105 0.940591 0.188961
vn -0.498281 0.826589 -0.261662
vn 0.702798 0.588459 0.399738
vn 0.381546 0.783832 0.489929
vn -0.027655 0.877622 0.478554
vn -0.250923 0.868682 0.427117
vn -0.214555 0.871361 0.441244
vn 0.867126 0.402271 -0.293719
vn 0.729373 0.675273 -0.109636
vn 0.427710 0.889806 0.159087
vn 0.174589 0.919706 0.351652
vn -0.136223 0.801916 0.581699
vn 0.384214 0.678780 -0.625809
vn 0.336283 0.857473 -0.389428
vn 0.206601 0.978422 -0.002401
vn 0.093884 0.961955 0.256571
vn -0.129261 0.658056 0.741791
vn -0.129261 0.658056 0.741791
vn -0.876553 0.244996 -0.414286
vn -0.720996 0.535233 -0.440103
vn -0.378705 0.837564 -0.393788
vn -0.014707 0.944743 -0.327483
vn 0.432308 0.858728 -0.275129
vn -0.478133 0.665723 -0.572889
vn -0.279381 0.849545 -0.447459
vn 0.042224 0.981622 -0.186108
vn 0.333490 0.940376 0.066918
vn 0.672101 0.667083 0.321374
s 1
g pasted__polySurface500 group
usemtl pasted__lambert14SG
f 1/1/1 76/76/2 77/77/3 3/4/4
f 3/4/4 77/77/3 78/78/5 5/6/6
f 5/6/6 78/78/5 79/79/7 7/8/8
f 7/8/8 79/79/7 80/80/9 9/10/10
s 2
f 11/11/11 86/86/12 87/87/13 13/14/14
f 13/14/14 87/87/13 88/88/15 15/16/16
f 15/16/16 88/88/15 89/89/17 17/18/18
f 17/18/18 89/89/17 90/90/19 19/20/20
s 3
f 21/21/21 96/96/22 97/97/23 23/24/24
f 23/24/24 97/97/23 98/98/25 25/26/26
f 107/107/27 98/98/25 99/99/28 27/28/29
f 27/28/29 99/99/28 100/100/30 29/30/31
s 5
f 31/31/32 101/101/33 102/102/34 33/34/35
f 33/34/35 102/102/34 103/103/36 35/36/37
f 35/36/37 103/103/36 104/104/38 37/38/39
f 37/38/39 104/104/38 105/105/40 39/40/41
s 6
f 41/41/42 71/71/43 72/72/44 43/44/45
f 43/44/45 72/72/44 73/73/46 45/46/47
f 45/46/47 73/73/46 74/74/48 47/48/49
f 47/48/49 74/74/48 75/75/50 49/50/51
s 7
f 51/51/52 81/81/53 82/82/54 53/54/55
f 53/54/55 82/82/54 83/83/56 55/56/57
f 55/56/57 83/83/56 84/84/58 57/58/59
f 57/58/59 84/84/58 85/85/60 59/60/61
s 8
f 61/61/62 91/91/63 92/92/64 63/64/65
f 63/64/65 92/92/64 93/93/66 65/66/67
f 65/66/67 93/93/66 94/94/68 67/68/69
f 67/68/69 94/94/68 95/95/70 69/70/71
s 6
f 72/72/44 71/71/43 42/42/72 44/43/73
f 73/73/46 72/72/44 44/43/73 46/45/74
f 74/74/48 73/73/46 46/45/74 48/47/75
f 75/75/50 74/74/48 48/47/75 50/49/76
s 1
f 77/77/3 76/76/2 2/2/77 4/3/78
f 78/78/5 77/77/3 4/3/78 6/5/79
f 79/79/7 78/78/5 6/5/79 8/7/80
f 80/80/9 79/79/7 8/7/80 10/9/81
s 7
f 82/82/54 81/81/53 52/52/82 54/53/83
f 83/83/56 82/82/54 54/53/83 56/55/84
f 84/84/58 83/83/56 56/55/84 58/57/85
f 85/85/60 84/84/58 58/57/85 60/59/86
s 2
f 87/87/13 86/86/12 12/12/87 14/13/88
f 88/88/15 87/87/13 14/13/88 16/15/89
f 89/89/17 88/88/15 16/15/89 18/17/90
f 90/90/19 89/89/17 18/17/90 20/19/91
s 8
f 92/92/64 91/91/63 62/62/92 64/63/93
f 93/93/66 92/92/64 64/63/93 66/65/94
f 94/94/68 93/93/66 66/65/94 106/106/95
f 95/95/70 94/94/68 68/67/96 70/69/97
s 3
f 97/97/23 96/96/22 22/22/98 24/23/99
f 98/98/25 97/97/23 24/23/99 26/25/100
f 99/99/28 98/98/25 26/25/100 28/27/101
f 100/100/30 99/99/28 28/27/101 30/29/102
s 5
f 102/102/34 101/101/33 32/32/103 34/33/104
f 103/103/36 102/102/34 34/33/104 36/35/105
f 104/104/38 103/103/36 36/35/105 38/37/106
f 105/105/40 104/104/38 38/37/106 40/39/107
