# This file uses centimeters as units for non-parametric coordinates.

mtllib TINY_Tallgrass2.mtl
g default
v -0.432495 0.000000 0.012886
v -0.410713 0.976377 0.169830
v 0.235039 0.000000 -0.079781
v 0.256821 0.976377 0.077164
v -0.109451 0.000000 -0.110703
v -0.083267 1.144076 0.077934
v -0.432495 0.533903 0.012886
v -0.109451 0.533903 -0.110703
v 0.235031 0.533903 -0.079781
v -0.423409 0.823904 0.078377
v -0.099159 0.919268 -0.036583
v 0.244118 0.823904 -0.014297
v 0.091812 -0.008005 -0.410614
v -0.040718 0.869441 -0.401222
v 0.262489 0.011566 0.169106
v 0.129951 0.889013 0.178497
v 0.244278 0.000794 -0.140488
v 0.084869 1.029008 -0.128273
v 0.093910 0.470705 -0.427391
v 0.246376 0.479504 -0.157265
v 0.264587 0.490276 0.152321
v 0.038155 0.731562 -0.419785
v 0.183495 0.825977 -0.150452
v 0.208824 0.751133 0.159927
v -0.235085 0.000000 -0.337982
v -0.182678 0.814669 -0.474205
v 0.176865 0.000000 -0.102631
v 0.229271 0.814669 -0.238853
v -0.000053 0.000000 -0.271172
v 0.040436 0.940629 -0.386528
v -0.235085 0.401023 -0.337982
v -0.000053 0.401023 -0.271172
v 0.176857 0.401023 -0.102638
v -0.220245 0.651377 -0.379654
v 0.011543 0.723006 -0.307159
v 0.191696 0.651377 -0.144302
v 0.179260 -0.009099 0.237877
v 0.165634 0.803253 0.336884
v -0.241524 0.028213 -0.126175
v -0.255142 0.840565 -0.027161
v -0.072746 -0.007210 0.102234
v -0.086159 0.945698 0.215408
v 0.125572 0.416485 0.343544
v -0.126434 0.418375 0.207901
v -0.295197 0.453800 -0.020500
v 0.131699 0.661865 0.361618
v -0.125252 0.741644 0.239670
v -0.289078 0.699176 -0.002419
v 0.056671 -0.012925 0.323792
v 0.234444 0.633590 0.408485
v 0.254723 -0.012925 -0.091911
v 0.432495 0.633590 -0.007225
v 0.108025 -0.005764 0.093231
v 0.319260 0.751354 0.193863
v 0.100929 0.348558 0.344872
v 0.152275 0.355718 0.114311
v 0.298973 0.348558 -0.070824
v 0.165375 0.538834 0.375572
v 0.229958 0.609761 0.151321
v 0.363419 0.538834 -0.040123
v -0.427040 0.000000 0.076614
v -0.316017 0.698198 0.146355
v -0.130424 0.000000 -0.395607
v -0.019402 0.698198 -0.325874
v -0.333382 0.000000 -0.193817
v -0.199944 0.818118 -0.110001
v -0.427040 0.381790 0.076614
v -0.333382 0.381790 -0.193817
v -0.130424 0.381790 -0.395599
v -0.380714 0.589166 0.105713
v -0.280952 0.657360 -0.160881
v -0.084099 0.589166 -0.366501
vt 0.373640 0.726421
vt 0.373640 0.933474
vt 0.224643 0.933474
vt 0.224643 0.726421
vt 0.299142 0.726421
vt 0.299142 0.933474
vt 0.373640 0.808374
vt 0.299142 0.808374
vt 0.224643 0.808374
vt 0.373640 0.874964
vt 0.299142 0.874964
vt 0.224643 0.874964
vt 0.299142 0.874964
vt 0.224643 0.874964
vt 0.224643 0.933474
vt 0.299142 0.933474
vt 0.373640 0.874964
vt 0.373640 0.933474
vt 0.373640 0.726421
vt 0.299142 0.726421
vt 0.299142 0.808374
vt 0.373640 0.808374
vt 0.224643 0.726421
vt 0.224643 0.808374
vt 0.299142 0.874964
vt 0.224643 0.874964
vt 0.224643 0.933474
vt 0.299142 0.933474
vt 0.373640 0.874964
vt 0.373640 0.933474
vt 0.373640 0.726421
vt 0.299142 0.726421
vt 0.299142 0.808374
vt 0.373640 0.808374
vt 0.224643 0.726421
vt 0.224643 0.808374
vt 0.299142 0.874964
vt 0.224643 0.874964
vt 0.224643 0.933474
vt 0.299142 0.933474
vt 0.373640 0.874964
vt 0.373640 0.933474
vt 0.373640 0.726421
vt 0.299142 0.726421
vt 0.299142 0.808374
vt 0.373640 0.808374
vt 0.224643 0.726421
vt 0.224643 0.808374
vt 0.299142 0.874964
vt 0.224643 0.874964
vt 0.224643 0.933474
vt 0.299142 0.933474
vt 0.373640 0.874964
vt 0.373640 0.933474
vt 0.373640 0.726421
vt 0.299142 0.726421
vt 0.299142 0.808374
vt 0.373640 0.808374
vt 0.224643 0.726421
vt 0.224643 0.808374
vt 0.299142 0.874964
vt 0.224643 0.874964
vt 0.224643 0.933474
vt 0.299142 0.933474
vt 0.373640 0.874964
vt 0.373640 0.933474
vt 0.373640 0.726421
vt 0.299142 0.726421
vt 0.299142 0.808374
vt 0.373640 0.808374
vt 0.224643 0.726421
vt 0.224643 0.808374
vn 0.129721 -0.331610 0.934456
vn -0.138492 -0.289513 0.947102
vn -0.203295 -0.457262 0.865784
vn 0.120421 -0.482707 0.867464
vn 0.391231 -0.289524 0.873564
vn 0.431418 -0.457257 0.777685
vn 0.357311 0.000000 0.933985
vn 0.137496 -0.000001 0.990502
vn 0.137070 -0.079235 0.987387
vn 0.361951 -0.079926 0.928765
vn -0.089407 -0.000001 0.995995
vn -0.095284 -0.079915 0.992237
vn -0.906502 -0.318094 0.277616
vn -0.958433 -0.285026 0.012895
vn -0.888327 -0.455625 -0.057274
vn -0.842285 -0.470047 0.263840
vn -0.807469 -0.267718 0.525662
vn -0.707428 -0.434905 0.557139
vn -0.870958 0.021029 0.490907
vn -0.959321 0.014097 0.281966
vn -0.956654 -0.065130 0.283850
vn -0.865465 -0.058727 0.497516
vn -0.998267 0.006438 0.058499
vn -0.995769 -0.073668 0.054927
vn -0.471561 0.298489 0.829780
vn -0.602437 0.223667 0.766188
vn -0.431270 0.435936 0.789915
vn -0.447523 0.434869 0.781416
vn -0.361980 0.244220 0.899626
vn -0.461040 0.433861 0.774085
vn -0.273429 0.000000 0.961892
vn -0.496050 0.000000 0.868294
vn -0.496320 0.059054 0.866129
vn -0.286483 0.059210 0.956254
vn -0.689744 0.000000 0.724053
vn -0.679282 0.053045 0.731958
vn 0.648700 -0.074340 -0.757404
vn 0.829639 -0.058011 -0.555278
vn 0.832324 -0.246407 -0.496508
vn 0.623443 -0.237466 -0.744935
vn 0.426132 -0.022228 -0.904388
vn 0.348849 -0.203492 -0.914820
vn 0.458144 0.268204 -0.847450
vn 0.644898 0.259801 -0.718756
vn 0.652496 0.182660 -0.735448
vn 0.460929 0.190388 -0.866774
vn 0.798436 0.238016 -0.553036
vn 0.809225 0.159508 -0.565431
vn 0.803753 -0.455362 0.382919
vn 0.672087 -0.410380 0.616350
vn 0.548946 -0.564582 0.616364
vn 0.724918 -0.595998 0.345369
vn 0.902074 -0.410387 0.133584
vn 0.824498 -0.564592 0.037933
vn 0.968538 -0.130935 0.211639
vn 0.894592 -0.134381 0.426200
vn 0.882168 -0.212467 0.420282
vn 0.957071 -0.209508 0.200302
vn 0.774559 -0.130904 0.618807
vn 0.758536 -0.209490 0.617039
vn 0.785965 -0.372199 0.493687
vn 0.625158 -0.334217 0.705320
vn 0.514178 -0.511312 0.688608
vn 0.713957 -0.537721 0.448465
vn 0.906790 -0.334235 0.256943
vn 0.843574 -0.511283 0.164236
vn 0.944934 0.000000 0.327262
vn 0.846804 -0.000009 0.531904
vn 0.843263 -0.091351 0.529681
vn 0.942883 -0.092638 0.319985
vn 0.705066 -0.000017 0.709141
vn 0.697620 -0.092626 0.710456
s 1
g pasted__polySurface581
usemtl pasted__lambert14SG
f 11/11/1 12/12/2 4/3/3 6/6/4
f 10/10/5 11/11/1 6/6/4 2/2/6
f 1/1/7 5/5/8 8/8/9 7/7/10
f 5/5/8 3/4/11 9/9/12 8/8/9
f 7/7/10 8/8/9 11/11/1 10/10/5
f 8/8/9 9/9/12 12/12/2 11/11/1
s 3
f 23/13/13 24/14/14 16/15/15 18/16/16
f 22/17/17 23/13/13 18/16/16 14/18/18
f 13/19/19 17/20/20 20/21/21 19/22/22
f 17/20/20 15/23/23 21/24/24 20/21/21
f 19/22/22 20/21/21 23/13/13 22/17/17
f 20/21/21 21/24/24 24/14/14 23/13/13
s 5
f 35/25/25 36/26/26 28/27/27 30/28/28
f 34/29/29 35/25/25 30/28/28 26/30/30
f 25/31/31 29/32/32 32/33/33 31/34/34
f 29/32/32 27/35/35 33/36/36 32/33/33
f 31/34/34 32/33/33 35/25/25 34/29/29
f 32/33/33 33/36/36 36/26/26 35/25/25
s 7
f 47/37/37 48/38/38 40/39/39 42/40/40
f 46/41/41 47/37/37 42/40/40 38/42/42
f 37/43/43 41/44/44 44/45/45 43/46/46
f 41/44/44 39/47/47 45/48/48 44/45/45
f 43/46/46 44/45/45 47/37/37 46/41/41
f 44/45/45 45/48/48 48/38/38 47/37/37
s 9
f 59/49/49 60/50/50 52/51/51 54/52/52
f 58/53/53 59/49/49 54/52/52 50/54/54
f 49/55/55 53/56/56 56/57/57 55/58/58
f 53/56/56 51/59/59 57/60/60 56/57/57
f 55/58/58 56/57/57 59/49/49 58/53/53
f 56/57/57 57/60/60 60/50/50 59/49/49
s 11
f 71/61/61 72/62/62 64/63/63 66/64/64
f 70/65/65 71/61/61 66/64/64 62/66/66
f 61/67/67 65/68/68 68/69/69 67/70/70
f 65/68/68 63/71/71 69/72/72 68/69/69
f 67/70/70 68/69/69 71/61/61 70/65/65
f 68/69/69 69/72/72 72/62/62 71/61/61
