# This file uses centimeters as units for non-parametric coordinates.

mtllib TINY_Fern1.mtl
g default
v 0.230010 0.683411 -0.184510
v -0.164056 0.698847 -0.196717
v 0.194137 -0.028579 0.073188
v -0.199929 -0.013143 0.060981
v 0.035201 0.692264 -0.260880
v -0.000001 -0.000000 0.000003
v 0.216293 0.445040 -0.043068
v 0.020499 0.431558 -0.116204
v -0.177789 0.460476 -0.055279
v 0.205405 0.221960 0.026412
v 0.010062 0.218227 -0.049038
v -0.188676 0.237396 0.014205
vt 0.389312 0.691655
vt 0.271779 0.691655
vt 0.271779 0.469343
vt 0.389312 0.469343
vt 0.330546 0.691655
vt 0.330546 0.469343
vt 0.389312 0.602730
vt 0.330546 0.602730
vt 0.271779 0.602730
vt 0.389312 0.536036
vt 0.330546 0.536036
vt 0.271779 0.536036
vn -0.344359 0.247917 0.905513
vn -0.020166 0.250639 0.967870
vn -0.022448 0.201197 0.979294
vn -0.337763 0.203230 0.919029
vn 0.306055 0.222449 0.925660
vn 0.295191 0.178427 0.938630
vn -0.317589 0.485150 0.814719
vn -0.007383 0.497666 0.867337
vn -0.011967 0.414360 0.910035
vn -0.334451 0.400536 0.853061
vn 0.311345 0.375264 0.873064
vn 0.303556 0.460838 0.833956
s 1
g polySurface116 pasted__polySurface525 group
usemtl pasted__lambert14SG
f 10/10/1 11/11/2 6/6/3 3/4/4
f 6/6/3 11/11/2 12/12/5 4/3/6
f 1/1/7 5/5/8 8/8/9 7/7/10
f 9/9/11 8/8/9 5/5/8 2/2/12
f 7/7/10 8/8/9 11/11/2 10/10/1
f 12/12/5 11/11/2 8/8/9 9/9/11
