# This file uses centimeters as units for non-parametric coordinates.

mtllib filaments_gros_groupe.mtl
g default
v -0.136920 -0.716464 -0.217867
v 0.168126 -0.716464 0.278414
v -0.136920 0.014492 -0.217867
v 0.168126 0.014492 0.278414
v -0.164606 -0.716464 0.141042
v -0.164606 0.014492 0.141042
v 0.303819 -0.764596 -0.064266
v -0.054412 -0.752876 -0.228220
v 0.303819 -0.000643 -0.009656
v -0.054412 0.011076 -0.173610
v 0.184390 -0.749461 -0.275993
v 0.184390 0.014492 -0.221383
v -0.330437 -1.075872 -0.304417
v -0.496968 -1.059388 0.521750
v -0.226249 -0.023301 -0.304417
v -0.392781 -0.006817 0.521750
v -0.712241 -1.038080 0.047900
v -0.608054 0.014492 0.047900
v -0.367328 -0.812274 0.588759
v -0.105480 -0.812274 0.253417
v -0.367328 0.014492 0.588759
v -0.105480 0.014492 0.253417
v -0.114635 -0.812274 0.516171
v -0.114635 0.014492 0.516171
v -0.281179 -0.968371 0.147169
v -0.744851 -0.968371 -0.054906
v -0.281179 0.014492 0.147169
v -0.744851 0.014492 -0.054906
v -0.439638 -0.968371 -0.122237
v -0.439638 0.014492 -0.122237
v -0.157633 -1.111536 0.848674
v 0.641727 -1.047713 0.588852
v -0.296641 -0.077476 0.675014
v 0.502719 -0.013652 0.415192
v 0.330479 -1.019569 1.005581
v 0.191471 0.014492 0.831921
v 0.690415 -0.656298 -0.049452
v 0.658561 -0.656298 0.484183
v 0.690415 0.014492 -0.049452
v 0.658561 0.014492 0.484183
v 0.480715 -0.656298 0.205798
v 0.480715 0.014492 0.205798
v 0.360543 -1.090068 -0.900879
v 0.803846 -1.041861 -0.185536
v 0.415194 -0.038968 -1.005581
v 0.858496 0.009240 -0.290237
v 0.322330 -1.036609 -0.384147
v 0.376981 0.014492 -0.488848
v 0.479733 -0.986297 -0.822814
v 0.313727 -1.007433 0.003354
v 0.346147 0.062948 -0.822814
v 0.180141 0.041812 0.003354
v 0.099134 -1.034754 -0.470496
v -0.034452 0.014492 -0.470496
v 0.989265 -0.787766 -0.477202
v 0.950241 -0.794044 -0.053579
v 0.900047 0.034162 -0.473240
v 0.861023 0.027884 -0.049617
v 0.816816 -0.807437 -0.279724
v 0.727598 0.014491 -0.275762
v 0.500304 -1.221411 -0.518152
v 0.209419 -1.221411 -0.207661
v 0.500304 0.014492 -0.518152
v 0.209419 0.014492 -0.207661
v 0.242115 -1.221411 -0.468533
v 0.242115 0.014492 -0.468533
v 0.015273 -0.812274 -0.428783
v -0.371425 -0.812274 -0.606217
v 0.015273 0.014492 -0.428783
v -0.371425 0.014492 -0.606217
v -0.113647 -0.812274 -0.657918
v -0.113647 0.014492 -0.657918
v -0.921092 -1.654632 0.312947
v -0.770420 -1.627356 0.709903
v -0.741897 -0.020733 0.132660
v -0.591226 0.006543 0.529614
v -0.989265 -1.619408 0.564413
v -0.810070 0.014491 0.384126
v 0.024221 -0.751410 0.661794
v 0.017673 -0.751410 0.267706
v 0.024221 0.014492 0.661794
v 0.017673 0.014492 0.267706
v 0.164048 -0.751410 0.462372
v 0.164048 0.014492 0.462372
v 0.856491 -0.830459 0.163681
v 0.469792 -0.813418 -0.012933
v 0.856491 -0.007515 0.243087
v 0.469792 0.009526 0.066472
v 0.727571 -0.808452 -0.064395
v 0.727571 0.014492 0.015010
v 0.602420 -1.452036 0.866013
v 0.135454 -1.452036 0.651749
v 0.602420 0.014492 0.866013
v 0.135454 0.014492 0.651749
v 0.446740 -1.452036 0.589316
v 0.446740 0.014492 0.589316
v -0.833663 -0.819728 0.290868
v -0.843582 -0.824094 -0.134457
v -0.899713 0.004366 0.283949
v -0.909632 0.000000 -0.141376
v -0.684665 -0.809602 0.074490
v -0.750714 0.014492 0.067571
v -0.374620 -0.617795 -0.731560
v -0.403715 -0.614817 -0.241604
v -0.311908 -0.005113 -0.731560
v -0.341003 -0.002135 -0.241604
v -0.566156 -0.598190 -0.497201
v -0.503443 0.014492 -0.497202
v -0.481843 -0.835401 -0.179029
v -0.868542 -0.811808 -0.354888
v -0.481844 -0.015976 -0.069096
v -0.868542 0.007617 -0.244955
v -0.610763 -0.804933 -0.406130
v -0.610763 0.014492 -0.296197
v -0.241677 -1.344074 -0.015125
v -0.674265 -1.344074 -0.213614
v -0.241677 0.014492 -0.015125
v -0.674265 0.014492 -0.213614
v -0.385895 -1.344074 -0.271451
v -0.385895 0.014492 -0.271451
v -0.584306 -1.053079 -0.607074
v 0.217492 -1.080161 -0.865811
v -0.582430 -0.000526 -0.711432
v 0.219368 -0.027608 -0.970167
v -0.088943 -1.038061 -0.446697
v -0.087066 0.014492 -0.551055
vt 0.013588 0.766435
vt 0.218737 0.766435
vt 0.013588 0.987162
vt 0.218737 0.987162
vt 0.116163 0.766435
vt 0.116163 0.987162
vt 0.550836 0.774801
vt 0.550836 0.877375
vt 0.244930 0.877374
vt 0.244933 0.774801
vt 0.550836 0.979950
vt 0.244932 0.979950
vt 0.013588 0.766435
vt 0.116163 0.766435
vt 0.116163 0.987162
vt 0.013588 0.987162
vt 0.218737 0.766435
vt 0.218737 0.987162
vt 0.550836 0.774801
vt 0.550836 0.877375
vt 0.244930 0.877374
vt 0.244933 0.774801
vt 0.550836 0.979950
vt 0.244932 0.979950
vt 0.550836 0.774801
vt 0.550836 0.877375
vt 0.244930 0.877374
vt 0.244933 0.774801
vt 0.550836 0.979950
vt 0.244932 0.979950
vt 0.013588 0.766435
vt 0.116163 0.766435
vt 0.116163 0.987162
vt 0.013588 0.987162
vt 0.218737 0.766435
vt 0.218737 0.987162
vt 0.013588 0.766435
vt 0.116163 0.766435
vt 0.116163 0.987162
vt 0.013588 0.987162
vt 0.218737 0.766435
vt 0.218737 0.987162
vt 0.013588 0.766435
vt 0.116163 0.766435
vt 0.116163 0.987162
vt 0.013588 0.987162
vt 0.218737 0.766435
vt 0.218737 0.987162
vt 0.013588 0.766435
vt 0.116163 0.766435
vt 0.116163 0.987162
vt 0.013588 0.987162
vt 0.218737 0.766435
vt 0.218737 0.987162
vt 0.550836 0.774801
vt 0.550836 0.877375
vt 0.244930 0.877374
vt 0.244933 0.774801
vt 0.550836 0.979950
vt 0.244932 0.979950
vt 0.550836 0.774801
vt 0.550836 0.877375
vt 0.244930 0.877374
vt 0.244933 0.774801
vt 0.550836 0.979950
vt 0.244932 0.979950
vt 0.550836 0.774801
vt 0.550836 0.877375
vt 0.244930 0.877374
vt 0.244933 0.774801
vt 0.550836 0.979950
vt 0.244932 0.979950
vt 0.550836 0.774801
vt 0.550836 0.877375
vt 0.244930 0.877374
vt 0.244933 0.774801
vt 0.550836 0.979950
vt 0.244932 0.979950
vt 0.550836 0.774801
vt 0.550836 0.877375
vt 0.244930 0.877374
vt 0.244933 0.774801
vt 0.550836 0.979950
vt 0.244932 0.979950
vt 0.550836 0.774801
vt 0.550836 0.877375
vt 0.244930 0.877374
vt 0.244933 0.774801
vt 0.550836 0.979950
vt 0.244932 0.979950
vt 0.550836 0.774801
vt 0.550836 0.877375
vt 0.244930 0.877374
vt 0.244933 0.774801
vt 0.550836 0.979950
vt 0.244932 0.979950
vt 0.550836 0.774801
vt 0.550836 0.877375
vt 0.244930 0.877374
vt 0.244933 0.774801
vt 0.550836 0.979950
vt 0.244932 0.979950
vt 0.013588 0.766435
vt 0.116163 0.766435
vt 0.116163 0.987162
vt 0.013588 0.987162
vt 0.218737 0.766435
vt 0.218737 0.987162
vt 0.550836 0.774801
vt 0.550836 0.877375
vt 0.244930 0.877374
vt 0.244933 0.774801
vt 0.550836 0.979950
vt 0.244932 0.979950
vt 0.550836 0.774801
vt 0.550836 0.877375
vt 0.244930 0.877374
vt 0.244933 0.774801
vt 0.550836 0.979950
vt 0.244932 0.979950
vt 0.013588 0.766435
vt 0.116163 0.766435
vt 0.116163 0.987162
vt 0.013588 0.987162
vt 0.218737 0.766435
vt 0.218737 0.987162
vn -0.997038 0.000000 -0.076911
vn -0.851932 0.000000 0.523653
vn -0.851932 0.000000 0.523652
vn -0.997038 0.000000 -0.076911
vn -0.381616 0.000000 0.924321
vn -0.381616 0.000000 0.924321
vn 0.871525 0.034963 -0.489103
vn 0.417037 0.064806 -0.906576
vn 0.417038 0.064806 -0.906576
vn 0.871525 0.034963 -0.489103
vn -0.196650 0.069910 -0.977978
vn -0.196650 0.069910 -0.977978
vn -0.673080 0.066624 -0.736563
vn -0.975329 0.096542 -0.198525
vn -0.975329 0.096542 -0.198525
vn -0.673080 0.066624 -0.736563
vn -0.905263 0.089606 0.415295
vn -0.905263 0.089606 0.415295
vn 0.276094 0.000000 0.961131
vn 0.788182 0.000000 0.615443
vn 0.788182 0.000000 0.615443
vn 0.276094 0.000000 0.961131
vn 0.999394 0.000000 0.034821
vn 0.999394 0.000000 0.034821
vn 0.861957 0.000000 -0.506982
vn 0.399522 0.000000 -0.916724
vn 0.399522 0.000000 -0.916724
vn 0.861957 0.000000 -0.506982
vn -0.215426 0.000000 -0.976520
vn -0.215426 0.000000 -0.976520
vn -0.323478 0.114263 0.939312
vn 0.288906 0.196203 0.937037
vn 0.288906 0.196203 0.937037
vn -0.323478 0.114263 0.939312
vn 0.791005 0.203246 0.577064
vn 0.791005 0.203246 0.577064
vn -0.772680 0.000000 -0.634796
vn -0.998223 0.000000 -0.059587
vn -0.998223 0.000000 -0.059587
vn -0.772680 0.000000 -0.634796
vn -0.842711 0.000000 0.538367
vn -0.842711 0.000000 0.538367
vn -0.995966 0.043994 -0.078203
vn -0.848977 0.095905 0.519654
vn -0.848977 0.095905 0.519654
vn -0.995966 0.043994 -0.078203
vn -0.377906 0.111206 0.919141
vn -0.377906 0.111206 0.919141
vn -0.670955 -0.085423 -0.736561
vn -0.972248 -0.123783 -0.198525
vn -0.972248 -0.123783 -0.198525
vn -0.670955 -0.085423 -0.736561
vn -0.902402 -0.114890 0.415296
vn -0.902402 -0.114890 0.415296
vn -0.747081 -0.077911 -0.660151
vn -0.989920 -0.107006 -0.092777
vn -0.989920 -0.107006 -0.092777
vn -0.747081 -0.077911 -0.660151
vn -0.854875 -0.095253 0.510015
vn -0.854875 -0.095253 0.510015
vn -0.188730 0.000000 -0.982029
vn -0.729772 0.000000 -0.683691
vn -0.729772 0.000000 -0.683691
vn -0.188730 0.000000 -0.982029
vn -0.992237 0.000000 -0.124364
vn -0.992237 0.000000 -0.124364
vn 0.871524 0.000000 -0.490353
vn 0.417037 0.000000 -0.908890
vn 0.417037 0.000000 -0.908890
vn 0.871524 0.000000 -0.490353
vn -0.196645 0.000000 -0.980475
vn -0.196645 0.000000 -0.980475
vn -0.959698 0.075380 -0.270736
vn -0.928894 0.139720 0.342978
vn -0.928894 0.139720 0.342978
vn -0.959698 0.075380 -0.270736
vn -0.543501 0.150724 0.825766
vn -0.543501 0.150724 0.825766
vn 0.818785 0.000000 0.574100
vn 0.999862 0.000000 -0.016614
vn 0.999862 0.000000 -0.016614
vn 0.818785 0.000000 0.574100
vn 0.799259 0.000000 -0.600987
vn 0.799259 0.000000 -0.600987
vn 0.871525 0.047095 -0.488085
vn 0.417037 0.087292 -0.904688
vn 0.417037 0.087292 -0.904688
vn 0.871525 0.047095 -0.488085
vn -0.196648 0.094167 -0.975942
vn -0.196648 0.094167 -0.975942
vn 0.871525 0.000000 -0.490352
vn 0.417038 0.000000 -0.908889
vn 0.417038 0.000000 -0.908889
vn 0.871525 0.000000 -0.490352
vn -0.196646 0.000000 -0.980475
vn -0.196646 0.000000 -0.980475
vn 0.820023 0.070492 0.567973
vn 0.996531 0.079668 -0.024057
vn 0.996531 0.079668 -0.024057
vn 0.820023 0.070492 0.567973
vn 0.792630 0.058432 -0.606897
vn 0.792630 0.058432 -0.606897
vn -0.768665 0.078678 -0.634795
vn -0.993035 0.101644 -0.059586
vn -0.993035 0.101644 -0.059587
vn -0.768665 0.078678 -0.634795
vn -0.838331 0.085809 0.538366
vn -0.838331 0.085810 0.538366
vn 0.871525 0.065201 -0.485996
vn 0.417039 0.120853 -0.900818
vn 0.417039 0.120853 -0.900818
vn 0.871525 0.065201 -0.485996
vn -0.196647 0.130371 -0.971768
vn -0.196647 0.130371 -0.971768
vn 0.871523 0.000000 -0.490354
vn 0.417035 0.000000 -0.908891
vn 0.417035 0.000000 -0.908891
vn 0.871523 0.000000 -0.490354
vn -0.196646 0.000000 -0.980475
vn -0.196646 0.000000 -0.980475
vn -0.309228 0.094374 0.946294
vn 0.308615 0.093303 0.946600
vn 0.308616 0.093303 0.946600
vn -0.309228 0.094374 0.946294
vn 0.808651 0.056615 0.585558
vn 0.808651 0.056615 0.585558
s 1
g pPlane34
usemtl lambert2SG
f 1/1/1 5/5/2 6/6/3 3/3/4
f 6/6/3 5/5/2 2/2/5 4/4/6
s 2
f 7/7/7 11/8/8 12/9/9 9/10/10
f 12/9/9 11/8/8 8/11/11 10/12/12
s 3
f 13/13/13 17/14/14 18/15/15 15/16/16
f 18/15/15 17/14/14 14/17/17 16/18/18
s 4
f 19/19/19 23/20/20 24/21/21 21/22/22
f 24/21/21 23/20/20 20/23/23 22/24/24
s 5
f 25/25/25 29/26/26 30/27/27 27/28/28
f 30/27/27 29/26/26 26/29/29 28/30/30
s 6
f 31/31/31 35/32/32 36/33/33 33/34/34
f 36/33/33 35/32/32 32/35/35 34/36/36
s 7
f 37/37/37 41/38/38 42/39/39 39/40/40
f 42/39/39 41/38/38 38/41/41 40/42/42
s 8
f 43/43/43 47/44/44 48/45/45 45/46/46
f 48/45/45 47/44/44 44/47/47 46/48/48
s 9
f 49/49/49 53/50/50 54/51/51 51/52/52
f 54/51/51 53/50/50 50/53/53 52/54/54
s 10
f 55/55/55 59/56/56 60/57/57 57/58/58
f 60/57/57 59/56/56 56/59/59 58/60/60
s 11
f 61/61/61 65/62/62 66/63/63 63/64/64
f 66/63/63 65/62/62 62/65/65 64/66/66
s 12
f 67/67/67 71/68/68 72/69/69 69/70/70
f 72/69/69 71/68/68 68/71/71 70/72/72
s 13
f 73/73/73 77/74/74 78/75/75 75/76/76
f 78/75/75 77/74/74 74/77/77 76/78/78
s 14
f 79/79/79 83/80/80 84/81/81 81/82/82
f 84/81/81 83/80/80 80/83/83 82/84/84
s 15
f 85/85/85 89/86/86 90/87/87 87/88/88
f 90/87/87 89/86/86 86/89/89 88/90/90
s 16
f 91/91/91 95/92/92 96/93/93 93/94/94
f 96/93/93 95/92/92 92/95/95 94/96/96
s 17
f 97/97/97 101/98/98 102/99/99 99/100/100
f 102/99/99 101/98/98 98/101/101 100/102/102
s 18
f 103/103/103 107/104/104 108/105/105 105/106/106
f 108/105/105 107/104/104 104/107/107 106/108/108
s 19
f 109/109/109 113/110/110 114/111/111 111/112/112
f 114/111/111 113/110/110 110/113/113 112/114/114
s 20
f 115/115/115 119/116/116 120/117/117 117/118/118
f 120/117/117 119/116/116 116/119/119 118/120/120
s 21
f 121/121/121 125/122/122 126/123/123 123/124/124
f 126/123/123 125/122/122 122/125/125 124/126/126
