# This file uses centimeters as units for non-parametric coordinates.

mtllib Stalac_3.mtl
g default
v -0.061166 -0.005834 -0.095862
v -0.104360 0.004170 -0.015185
v -0.078052 -0.002904 0.065439
v -0.001405 -0.002892 0.094685
v 0.059993 -0.013104 0.088371
v 0.008445 -0.003324 -0.113262
v 0.078351 -0.003002 -0.082279
v 0.110789 0.000000 0.006805
v 0.009240 -1.321603 -0.022165
v -0.004342 -1.317763 -0.022245
v -0.010095 -1.316237 -0.012607
v -0.008636 -1.306952 -0.005919
v -0.005883 -1.313011 -0.000190
v -0.002965 -1.314161 0.008242
v 0.004857 -1.320211 0.010051
v 0.016541 -1.318314 -0.003000
v 0.001147 -1.346519 -0.011060
v 0.001588 -1.346690 -0.012347
v -0.005925 -1.276960 -0.033752
v 0.014352 -1.290074 -0.026006
v 0.026351 -1.289009 -0.004738
v 0.017047 -1.282954 0.014312
v -0.000690 -1.275777 0.017715
v -0.016088 -1.267499 0.010718
v -0.024327 -1.263052 -0.003492
v -0.021667 -1.266888 -0.021626
v 0.033467 -1.167377 -0.042670
v 0.050597 -1.164048 -0.008331
v 0.040561 -1.154135 0.015535
v 0.009446 -1.149526 0.033313
v -0.021380 -1.136620 0.023456
v -0.025073 -1.143098 -0.002907
v -0.014268 -1.149044 -0.024625
v -0.002904 -1.161356 -0.047037
v 0.032386 -1.055543 -0.041264
v 0.056861 -1.055281 -0.007264
v 0.034568 -1.060083 0.026807
v 0.000600 -1.052576 0.051675
v -0.034915 -1.046513 0.033571
v -0.043199 -1.046048 -0.004369
v -0.035687 -1.047958 -0.043000
v -0.005729 -1.053091 -0.062116
v 0.040771 -0.947446 -0.054441
v 0.075793 -0.935820 -0.001843
v 0.048734 -0.944485 0.037405
v -0.000474 -0.947722 0.053672
v -0.042081 -0.948079 0.034464
v -0.063466 -0.949310 -0.007430
v -0.043548 -0.947181 -0.051035
v -0.012143 -0.945885 -0.063031
v 0.045909 -0.856069 -0.060248
v 0.062942 -0.844121 0.013474
v 0.037757 -0.851582 0.047275
v -0.007695 -0.848289 0.072379
v -0.059873 -0.847444 0.046693
v -0.076583 -0.849044 -0.009829
v -0.050931 -0.853093 -0.061270
v -0.012151 -0.856147 -0.074440
v 0.047721 -0.750070 -0.058939
v 0.083175 -0.741448 0.022513
v 0.041324 -0.745827 0.056257
v -0.013103 -0.738850 0.071264
v -0.077706 -0.737478 0.059711
v -0.088244 -0.741307 -0.007933
v -0.048238 -0.750964 -0.070541
v -0.009097 -0.753611 -0.083571
v 0.057303 -0.636032 -0.067765
v 0.083882 -0.623104 0.020144
v 0.046828 -0.629420 0.066651
v -0.014169 -0.619645 0.089008
v -0.071836 -0.615988 0.053052
v -0.098252 -0.622118 -0.012477
v -0.055722 -0.636446 -0.083290
v -0.002574 -0.643740 -0.095631
v 0.085509 -0.486386 -0.072584
v 0.102899 -0.461177 0.028943
v 0.060113 -0.482398 0.087432
v -0.010743 -0.483551 0.085740
v -0.075635 -0.483762 0.051969
v -0.109752 -0.486711 -0.014280
v -0.074325 -0.490854 -0.090427
v 0.008075 -0.493802 -0.122926
v 0.115687 -0.341129 -0.095447
v 0.124919 -0.328925 0.016335
v 0.068538 -0.337112 0.088664
v -0.012990 -0.346732 0.103380
v -0.075620 -0.346696 0.047505
v -0.137046 -0.346047 -0.020656
v -0.086270 -0.345804 -0.107183
v 0.014297 -0.346028 -0.126207
v 0.109239 -0.185636 -0.095822
v 0.152684 -0.168993 0.016285
v 0.084067 -0.191311 0.113282
v -0.015271 -0.210907 0.136779
v -0.104554 -0.217762 0.074787
v -0.143756 -0.204025 -0.027410
v -0.078162 -0.206951 -0.101889
v 0.013927 -0.204220 -0.129716
v 0.084134 -0.032775 -0.092307
v 0.119702 -0.025212 0.012436
v 0.065574 -0.036945 0.101727
v -0.004422 -0.029583 0.103513
v -0.079730 -0.031537 0.064100
v -0.127233 -0.017781 -0.029630
v -0.066903 -0.031539 -0.109104
v 0.010919 -0.033243 -0.123836
v 0.138051 -0.097685 0.015112
v 0.098372 -0.104135 -0.097616
v 0.014010 -0.109396 -0.136779
v -0.080787 -0.109190 -0.119046
v -0.152684 -0.081934 -0.038835
v -0.106717 -0.102022 0.088885
v -0.011960 -0.103848 0.115991
v 0.084479 -0.105929 0.122626
vt 0.744059 0.341684
vt 0.742913 0.361688
vt 0.733096 0.353806
vt 0.738318 0.338249
vt 0.749390 0.340896
vt 0.752915 0.366437
vt 0.737600 0.420182
vt 0.719323 0.415176
vt 0.744520 0.325043
vt 0.750682 0.426047
vt 0.734253 0.476280
vt 0.712337 0.471876
vt 0.752370 0.480113
vt 0.731826 0.532276
vt 0.703964 0.527936
vt 0.897851 0.421586
vt 0.899823 0.478733
vt 0.749618 0.533159
vt 0.725992 0.579882
vt 0.694903 0.575172
vt 0.900155 0.542156
vt 0.747622 0.583577
vt 0.716159 0.633345
vt 0.684848 0.630106
vt 0.737116 0.637049
vt 0.705176 0.688077
vt 0.673017 0.685652
vt 0.731103 0.694866
vt 0.690548 0.757556
vt 0.648974 0.753213
vt 0.774500 0.645127
vt 0.770784 0.704316
vt 0.729608 0.763892
vt 0.679011 0.821047
vt 0.632536 0.818939
vt 0.721503 0.826074
vt 0.675177 0.881656
vt 0.631045 0.887133
vt 0.715469 0.882618
vt 0.674088 0.921262
vt 0.634200 0.922707
vt 0.761694 0.830606
vt 0.754361 0.886328
vt 0.712375 0.922022
vt 0.675846 0.954326
vt 0.638572 0.954476
vt 0.749970 0.930832
vt 0.712518 0.955017
vt 0.676983 0.969160
vt 0.637974 0.969160
vt 0.751041 0.956005
vt 0.715992 0.969161
vt 0.798801 0.327642
vt 0.802412 0.333119
vt 0.800066 0.358914
vt 0.790275 0.355578
vt 0.802548 0.309590
vt 0.806174 0.329784
vt 0.834337 0.354476
vt 0.794567 0.425385
vt 0.781550 0.420477
vt 0.846388 0.323374
vt 0.842547 0.327556
vt 0.844166 0.350112
vt 0.809119 0.430052
vt 0.789794 0.480311
vt 0.768246 0.476888
vt 0.811291 0.480656
vt 0.783852 0.534399
vt 0.757580 0.531943
vt 0.809700 0.535140
vt 0.778637 0.589275
vt 0.892691 0.341953
vt 0.810999 0.592000
vt 0.936042 0.583096
vt 0.917404 0.417841
vt 0.808022 0.648947
vt 0.805079 0.707929
vt 0.932553 0.533323
vt 0.801913 0.770313
vt 0.767627 0.768850
vt 0.799306 0.830511
vt 0.955709 0.833915
vt 0.896278 0.324263
vt 0.885001 0.338290
vt 0.835460 0.771927
vt 0.834753 0.833389
vt 0.795378 0.883295
vt 0.957130 0.897068
vt 0.893815 0.356458
vt 0.834109 0.887367
vt 0.797031 0.924990
vt 0.945738 0.769207
vt 0.794516 0.955757
vt 0.956929 0.929873
vt 0.794009 0.969160
vt 0.755000 0.969160
vt 0.943511 0.697714
vt 0.896012 0.647859
vt 0.809273 0.356940
vt 0.847168 0.324130
vt 0.882771 0.358709
vt 0.854290 0.345539
vt 0.901788 0.337640
vt 0.833980 0.957265
vt 0.870639 0.418583
vt 0.850449 0.422914
vt 0.869429 0.472488
vt 0.846368 0.478337
vt 0.884403 0.426541
vt 0.831707 0.429556
vt 0.875152 0.537793
vt 0.846003 0.536908
vt 0.824159 0.480871
vt 0.950043 0.969160
vt 0.911034 0.969160
vt 0.870834 0.589314
vt 0.842695 0.592106
vt 0.820279 0.535787
vt 0.894763 0.592658
vt 0.869374 0.645003
vt 0.840498 0.648221
vt 0.921966 0.476241
vt 0.909933 0.958328
vt 0.869603 0.703805
vt 0.837955 0.707750
vt 0.868705 0.955351
vt 0.899040 0.706408
vt 0.867629 0.773914
vt 0.953858 0.957880
vt 0.833017 0.969160
vt 0.900203 0.783327
vt 0.870222 0.837755
vt 0.872026 0.969160
vt 0.906076 0.354013
vt 0.908865 0.841112
vt 0.869895 0.895772
vt 0.940134 0.640678
vt 0.911948 0.903503
vt 0.868897 0.926255
vt 0.833184 0.926849
vt 0.911253 0.929563
vt 0.878187 0.475866
vt 0.836272 0.307078
vt 0.837444 0.327326
vn -0.394439 -0.296299 -0.869842
vn -0.202729 -0.138325 -0.969416
vn 0.639332 -0.202409 -0.741812
vn 0.596564 -0.438448 -0.672216
vn -0.890482 -0.319913 -0.323571
vn -0.884420 -0.041976 -0.464800
vn -0.930328 -0.288670 0.226185
vn -0.998600 -0.048646 0.020774
vn -0.808676 -0.297577 0.507435
vn -0.674935 -0.110269 0.729592
vn -0.469771 -0.271456 0.840016
vn 0.019454 -0.129352 0.991408
vn 0.411977 -0.466731 0.782583
vn 0.652817 -0.162721 0.739833
vn 0.923217 -0.367379 0.112706
vn 0.974365 -0.215866 -0.063357
vn -0.849441 -0.483711 -0.210888
vn 0.856726 -0.496961 0.138022
vn -0.198865 -0.102488 -0.974653
vn 0.620186 -0.106812 -0.777149
vn 0.989899 -0.110551 -0.088761
vn 0.701174 -0.093110 0.706884
vn 0.080175 -0.125507 0.988848
vn -0.738104 -0.155579 0.656504
vn -0.992396 -0.120563 -0.024778
vn -0.869230 -0.115638 -0.480694
vn 0.624930 -0.071613 -0.777389
vn 0.991305 -0.108760 -0.074067
vn 0.681190 -0.096194 0.725760
vn 0.051713 -0.104052 0.993227
vn -0.740581 -0.126365 0.659979
vn -0.985672 -0.168575 -0.005826
vn -0.812145 -0.158513 -0.561510
vn -0.068780 -0.100986 -0.992508
vn 0.639735 -0.062383 -0.766060
vn 0.998534 -0.041141 -0.035165
vn 0.652956 -0.086280 0.752465
vn 0.012065 -0.113405 0.993476
vn -0.727040 -0.143630 0.671404
vn -0.988466 -0.151150 -0.009413
vn -0.749837 -0.127435 -0.649234
vn -0.020054 -0.093341 -0.995432
vn 0.716006 -0.044593 -0.696668
vn 0.996403 -0.056642 0.063031
vn 0.569384 -0.064840 0.819511
vn -0.010606 -0.104794 0.994437
vn -0.730867 -0.155463 0.664579
vn -0.986633 -0.125491 -0.103962
vn -0.717220 -0.094319 -0.690434
vn 0.026572 -0.083560 -0.996148
vn 0.774817 -0.082913 -0.626724
vn 0.993270 -0.085014 0.078667
vn 0.525545 -0.083767 0.846632
vn -0.029907 -0.074631 0.996763
vn -0.748043 -0.069061 0.660047
vn -0.985545 -0.083419 -0.147454
vn -0.687114 -0.091500 -0.720765
vn 0.095192 -0.090475 -0.991339
vn 0.803141 -0.133133 -0.580724
vn 0.987265 -0.122754 0.101186
vn 0.524761 -0.102359 0.845073
vn -0.128044 -0.051011 0.990456
vn -0.742833 -0.019689 0.669187
vn -0.990830 -0.077211 -0.110882
vn -0.656112 -0.117905 -0.745396
vn 0.122248 -0.138462 -0.982794
vn 0.825781 -0.174430 -0.536340
vn 0.969275 -0.148573 0.196041
vn 0.507963 -0.096200 0.855990
vn -0.221638 -0.046205 0.974034
vn -0.722536 -0.036653 0.690361
vn -0.993680 -0.111648 -0.011588
vn -0.642669 -0.122243 -0.756329
vn 0.103093 -0.127466 -0.986471
vn 0.794384 -0.111773 -0.597044
vn 0.974693 -0.135032 0.178156
vn 0.553505 -0.145077 0.820113
vn -0.229470 -0.165790 0.959092
vn -0.727836 -0.133991 0.672534
vn -0.993707 -0.109431 -0.023919
vn -0.590140 -0.055966 -0.805359
vn 0.074423 -0.052426 -0.995848
vn 0.769481 -0.005702 -0.638644
vn 0.990884 -0.028792 0.131608
vn 0.574375 -0.092647 0.813333
vn -0.186208 -0.120865 0.975048
vn -0.763378 -0.114910 0.635649
vn -0.992589 -0.086852 -0.084990
vn -0.556716 -0.051635 -0.829096
vn 0.061466 -0.028123 -0.997713
vn 0.977749 0.190570 0.087693
vn 0.734806 0.129771 -0.665747
vn 0.733554 0.235474 -0.637535
vn 0.948392 0.305664 0.084391
vn 0.536105 0.157400 0.829347
vn 0.517401 0.329657 0.789698
vn -0.209521 0.133904 0.968592
vn -0.191961 0.275236 0.942017
vn -0.748961 0.113703 0.652785
vn -0.670019 0.342213 0.658760
vn -0.984737 0.111248 -0.133856
vn -0.893703 0.437271 -0.100446
vn -0.535821 0.004802 -0.844318
vn -0.473915 0.306430 -0.825534
vn 0.083430 0.021963 -0.996272
vn 0.104146 0.219912 -0.969944
vn 0.730983 0.325750 -0.599626
vn 0.929736 0.367556 0.022228
vn 0.533942 0.444655 0.719158
vn -0.191894 0.275078 0.942077
vn -0.690294 0.243891 0.681184
vn -0.861862 0.506336 0.028604
vn -0.460601 0.569447 -0.680865
vn 0.099419 0.387718 -0.916401
s 1
g Stalac_3
usemtl lambert2SG
f 10/1/1 19/2/2 20/3/3 9/4/4
f 10/1/1 11/5/5 26/6/6 19/2/2
f 11/53/5 12/54/7 25/55/8 26/56/6
f 12/54/7 13/58/9 24/100/10 25/55/8
f 13/145/9 14/63/11 23/64/12 24/59/10
f 14/63/11 15/101/13 22/103/14 23/64/12
f 15/85/13 16/73/15 21/90/16 22/102/14
f 16/73/15 9/104/4 20/135/3 21/90/16
f 12/54/7 11/53/5 17/57/17 13/58/9
f 15/62/13 14/63/11 13/145/9 17/144/17
f 10/1/1 9/4/4 17/9/17 11/5/5
f 15/85/13 18/84/18 9/104/4 16/73/15
f 20/3/3 19/2/2 34/7/19 27/8/20
f 21/90/16 20/135/3 27/76/20 28/16/21
f 22/102/14 21/90/16 28/16/21 29/110/22
f 23/64/12 22/103/14 29/106/22 30/107/23
f 24/59/10 23/64/12 30/107/23 31/111/24
f 25/55/8 24/100/10 31/65/24 32/60/25
f 26/56/6 25/55/8 32/60/25 33/61/26
f 19/2/2 26/6/6 33/10/26 34/7/19
f 28/16/21 27/76/20 35/123/27 36/17/28
f 29/110/22 28/16/21 36/17/28 37/143/29
f 30/107/23 29/106/22 37/108/29 38/109/30
f 31/111/24 30/107/23 38/109/30 39/114/31
f 32/60/25 31/65/24 39/68/31 40/66/32
f 33/61/26 32/60/25 40/66/32 41/67/33
f 34/7/19 33/10/26 41/13/33 42/11/34
f 27/8/20 34/7/19 42/11/34 35/12/27
f 36/17/28 35/123/27 43/79/35 44/21/36
f 37/143/29 36/17/28 44/21/36 45/112/37
f 38/109/30 37/108/29 45/112/37 46/113/38
f 39/114/31 38/109/30 46/113/38 47/119/39
f 40/66/32 39/68/31 47/71/39 48/69/40
f 41/67/33 40/66/32 48/69/40 49/70/41
f 42/11/34 41/13/33 49/18/41 50/14/42
f 35/12/27 42/11/34 50/14/42 43/15/35
f 44/21/36 43/79/35 51/75/43 52/120/44
f 45/112/37 44/21/36 52/120/44 53/117/45
f 46/113/38 45/112/37 53/117/45 54/118/46
f 47/119/39 46/113/38 54/118/46 55/74/47
f 48/69/40 47/71/39 55/74/47 56/72/48
f 49/70/41 48/69/40 56/72/48 57/22/49
f 50/14/42 49/18/41 57/22/49 58/19/50
f 43/15/35 50/14/42 58/19/50 51/20/43
f 52/120/44 51/75/43 59/138/51 60/99/52
f 53/117/45 52/120/44 60/99/52 61/121/53
f 54/118/46 53/117/45 61/121/53 62/122/54
f 55/74/47 54/118/46 62/122/54 63/77/55
f 56/72/48 55/74/47 63/77/55 64/31/56
f 57/22/49 56/72/48 64/31/56 65/25/57
f 58/19/50 57/22/49 65/25/57 66/23/58
f 51/20/43 58/19/50 66/23/58 59/24/51
f 60/99/52 59/138/51 67/98/59 68/128/60
f 61/121/53 60/99/52 68/128/60 69/125/61
f 62/122/54 61/121/53 69/125/61 70/126/62
f 63/77/55 62/122/54 70/126/62 71/78/63
f 64/31/56 63/77/55 71/78/63 72/32/64
f 65/25/57 64/31/56 72/32/64 73/28/65
f 66/23/58 65/25/57 73/28/65 74/26/66
f 59/24/51 66/23/58 74/26/66 67/27/59
f 68/128/60 67/98/59 75/93/67 76/132/68
f 69/125/61 68/128/60 76/132/68 77/129/69
f 70/126/62 69/125/61 77/129/69 78/86/70
f 71/78/63 70/126/62 78/86/70 79/80/71
f 72/32/64 71/78/63 79/80/71 80/81/72
f 73/28/65 72/32/64 80/81/72 81/33/73
f 74/26/66 73/28/65 81/33/73 82/29/74
f 67/27/59 74/26/66 82/29/74 75/30/67
f 76/132/68 75/93/67 83/83/75 84/136/76
f 77/129/69 76/132/68 84/136/76 85/133/77
f 78/86/70 77/129/69 85/133/77 86/87/78
f 79/80/71 78/86/70 86/87/78 87/82/79
f 80/81/72 79/80/71 87/82/79 88/42/80
f 81/33/73 80/81/72 88/42/80 89/36/81
f 82/29/74 81/33/73 89/36/81 90/34/82
f 75/30/67 82/29/74 90/34/82 83/35/75
f 84/136/76 83/83/75 91/89/83 92/139/84
f 85/133/77 84/136/76 92/139/84 93/137/85
f 86/87/78 85/133/77 93/137/85 94/91/86
f 87/82/79 86/87/78 94/91/86 95/88/87
f 88/42/80 87/82/79 95/88/87 96/43/88
f 89/36/81 88/42/80 96/43/88 97/39/89
f 90/34/82 89/36/81 97/39/89 98/37/90
f 83/35/75 90/34/82 98/37/90 91/38/83
f 107/142/91 108/95/92 99/130/93 100/124/94
f 114/140/95 107/142/91 100/124/94 101/127/96
f 113/141/97 114/140/95 101/127/96 102/105/98
f 112/92/99 113/141/97 102/105/98 103/94/100
f 111/47/101 112/92/99 103/94/100 104/51/102
f 110/44/103 111/47/101 104/51/102 105/48/104
f 109/40/105 110/44/103 105/48/104 106/45/106
f 108/41/92 109/40/105 106/45/106 99/46/93
f 100/124/94 99/130/93 7/115/107 8/116/108
f 101/127/96 100/124/94 8/116/108 5/134/109
f 102/105/98 101/127/96 5/134/109 4/131/110
f 103/94/100 102/105/98 4/131/110 3/96/111
f 104/51/102 103/94/100 3/96/111 2/97/112
f 105/48/104 104/51/102 2/97/112 1/52/113
f 106/45/106 105/48/104 1/52/113 6/49/114
f 99/46/93 106/45/106 6/49/114 7/50/107
f 92/139/84 91/89/83 108/95/92 107/142/91
f 91/38/83 98/37/90 109/40/105 108/41/92
f 98/37/90 97/39/89 110/44/103 109/40/105
f 97/39/89 96/43/88 111/47/101 110/44/103
f 96/43/88 95/88/87 112/92/99 111/47/101
f 95/88/87 94/91/86 113/141/97 112/92/99
f 94/91/86 93/137/85 114/140/95 113/141/97
f 93/137/85 92/139/84 107/142/91 114/140/95
