# This file uses centimeters as units for non-parametric coordinates.

mtllib filaments_long.mtl
g default
v -0.081344 -0.826766 -0.250012
v 0.262913 -0.826766 0.000000
v -0.081344 -0.000000 -0.250012
v 0.262913 -0.000000 0.000000
v 0.000000 -0.826766 0.000000
v 0.000000 -0.000000 0.000000
vt 0.550836 0.774801
vt 0.550836 0.979950
vt 0.244933 0.774801
vt 0.244932 0.979950
vt 0.550836 0.877375
vt 0.244930 0.877374
vn -0.950934 0.000000 0.309394
vn -0.587625 0.000000 0.809133
vn -0.587625 0.000000 0.809133
vn -0.950934 0.000000 0.309394
vn 0.000000 0.000000 1.000000
vn 0.000000 0.000000 1.000000
s 1
g pPlane2
usemtl blinn1SG
f 1/1/1 5/5/2 6/6/3 3/3/4
f 6/6/3 5/5/2 2/2/5 4/4/6
