# This file uses centimeters as units for non-parametric coordinates.

mtllib filaments_gros_groupe.mtl
g default
v -0.154904 -0.730955 -0.240503
v 0.150142 -0.730956 0.255777
v -0.154904 -0.000000 -0.240503
v 0.150142 -0.000000 0.255777
v -0.182590 -0.730956 0.118405
v -0.182590 -0.000000 0.118405
vt 0.013588 0.766435
vt 0.218737 0.766435
vt 0.013588 0.987162
vt 0.218737 0.987162
vt 0.116163 0.766435
vt 0.116163 0.987162
vn -0.997038 0.000000 -0.076911
vn -0.851932 0.000000 0.523653
vn -0.851932 0.000000 0.523653
vn -0.997038 0.000000 -0.076911
vn -0.381615 0.000000 0.924321
vn -0.381615 0.000000 0.924321
s 1
g pPlane8 group5 group3
usemtl blinn1SG
f 1/1/1 5/5/2 6/6/3 3/3/4
f 6/6/3 5/5/2 2/2/5 4/4/6
g default
v 0.285834 -0.779087 -0.086903
v -0.072397 -0.767367 -0.250856
v 0.285834 -0.015135 -0.032293
v -0.072397 -0.003415 -0.196246
v 0.166405 -0.763952 -0.298629
v 0.166405 -0.000000 -0.244019
vt 0.550836 0.774801
vt 0.550836 0.979950
vt 0.244933 0.774801
vt 0.244932 0.979950
vt 0.550836 0.877375
vt 0.244930 0.877374
vn 0.871525 0.034963 -0.489104
vn 0.417037 0.064805 -0.906576
vn 0.417037 0.064805 -0.906576
vn 0.871525 0.034963 -0.489104
vn -0.196647 0.069909 -0.977979
vn -0.196647 0.069909 -0.977979
s 1
g group5 group3 pPlane9
usemtl blinn1SG
f 7/7/7 11/11/8 12/12/9 9/9/10
f 12/12/9 11/11/8 8/8/11 10/10/12
g default
v -0.348421 -1.090364 -0.327053
v -0.514953 -1.073880 0.499115
v -0.244234 -0.037792 -0.327053
v -0.410766 -0.021309 0.499115
v -0.730226 -1.052571 0.025264
v -0.626039 -0.000000 0.025264
vt 0.013588 0.766435
vt 0.218737 0.766435
vt 0.013588 0.987162
vt 0.218737 0.987162
vt 0.116163 0.766435
vt 0.116163 0.987162
vn -0.673081 0.066624 -0.736562
vn -0.975330 0.096542 -0.198525
vn -0.975330 0.096542 -0.198525
vn -0.673081 0.066624 -0.736562
vn -0.905263 0.089606 0.415296
vn -0.905263 0.089606 0.415296
s 1
g group5 group3 pPlane10
usemtl blinn1SG
f 13/13/13 17/17/14 18/18/15 15/15/16
f 18/18/15 17/17/14 14/14/17 16/16/18
g default
v -0.385313 -0.826766 0.566123
v -0.123465 -0.826766 0.230781
v -0.385313 -0.000000 0.566123
v -0.123465 -0.000000 0.230781
v -0.132620 -0.826766 0.493534
v -0.132620 -0.000000 0.493534
vt 0.550836 0.774801
vt 0.550836 0.979950
vt 0.244933 0.774801
vt 0.244932 0.979950
vt 0.550836 0.877375
vt 0.244930 0.877374
vn 0.276092 0.000000 0.961131
vn 0.788181 0.000000 0.615444
vn 0.788181 0.000000 0.615444
vn 0.276092 0.000000 0.961131
vn 0.999394 0.000000 0.034821
vn 0.999394 0.000000 0.034821
s 1
g group5 group3 pPlane11
usemtl blinn1SG
f 19/19/19 23/23/20 24/24/21 21/21/22
f 24/24/21 23/23/20 20/20/23 22/22/24
g default
v -0.299164 -0.982863 0.124532
v -0.762835 -0.982863 -0.077543
v -0.299164 -0.000000 0.124532
v -0.762835 -0.000000 -0.077543
v -0.457622 -0.982863 -0.144874
v -0.457622 -0.000000 -0.144874
vt 0.550836 0.774801
vt 0.550836 0.979950
vt 0.244933 0.774801
vt 0.244932 0.979950
vt 0.550836 0.877375
vt 0.244930 0.877374
vn 0.861956 0.000000 -0.506983
vn 0.399521 0.000000 -0.916724
vn 0.399521 0.000000 -0.916724
vn 0.861956 0.000000 -0.506983
vn -0.215425 0.000000 -0.976520
vn -0.215425 0.000000 -0.976520
s 1
g group5 group3 pPlane12
usemtl blinn1SG
f 25/25/25 29/29/26 30/30/27 27/27/28
f 30/30/27 29/29/26 26/26/29 28/28/30
g default
v -0.175618 -1.126027 0.826037
v 0.623743 -1.062205 0.566215
v -0.314626 -0.091968 0.652378
v 0.484734 -0.028144 0.392556
v 0.312494 -1.034060 0.982944
v 0.173486 -0.000000 0.809285
vt 0.013588 0.766435
vt 0.218737 0.766435
vt 0.013588 0.987162
vt 0.218737 0.987162
vt 0.116163 0.766435
vt 0.116163 0.987162
vn -0.323477 0.114263 0.939312
vn 0.288907 0.196203 0.937036
vn 0.288907 0.196203 0.937037
vn -0.323477 0.114263 0.939312
vn 0.791005 0.203246 0.577063
vn 0.791005 0.203246 0.577063
s 1
g group5 group3 pPlane13
usemtl blinn1SG
f 31/31/31 35/35/32 36/36/33 33/33/34
f 36/36/33 35/35/32 32/32/35 34/34/36
g default
v 0.672431 -0.670789 -0.072088
v 0.640576 -0.670789 0.461547
v 0.672431 -0.000000 -0.072088
v 0.640576 -0.000000 0.461547
v 0.462730 -0.670789 0.183162
v 0.462730 -0.000000 0.183162
vt 0.013588 0.766435
vt 0.218737 0.766435
vt 0.013588 0.987162
vt 0.218737 0.987162
vt 0.116163 0.766435
vt 0.116163 0.987162
vn -0.772681 0.000000 -0.634795
vn -0.998223 0.000000 -0.059587
vn -0.998223 0.000000 -0.059587
vn -0.772681 0.000000 -0.634795
vn -0.842711 0.000000 0.538367
vn -0.842711 0.000000 0.538367
s 1
g group5 group3 pPlane14
usemtl blinn1SG
f 37/37/37 41/41/38 42/42/39 39/39/40
f 42/42/39 41/41/38 38/38/41 40/40/42
g default
v 0.342558 -1.104560 -0.923516
v 0.785861 -1.056353 -0.208172
v 0.397209 -0.053459 -1.028217
v 0.840512 -0.005252 -0.312874
v 0.304346 -1.051101 -0.406783
v 0.358997 -0.000000 -0.511484
vt 0.013588 0.766435
vt 0.218737 0.766435
vt 0.013588 0.987162
vt 0.218737 0.987162
vt 0.116163 0.766435
vt 0.116163 0.987162
vn -0.995966 0.043994 -0.078203
vn -0.848977 0.095905 0.519654
vn -0.848977 0.095905 0.519653
vn -0.995966 0.043994 -0.078203
vn -0.377906 0.111206 0.919141
vn -0.377906 0.111206 0.919141
s 1
g group5 group3 pPlane15
usemtl blinn1SG
f 43/43/43 47/47/44 48/48/45 45/45/46
f 48/48/45 47/47/44 44/44/47 46/46/48
g default
v 0.461748 -1.000789 -0.845450
v 0.295743 -1.021925 -0.019282
v 0.328163 0.048456 -0.845450
v 0.162157 0.027321 -0.019282
v 0.081150 -1.049246 -0.493133
v -0.052436 -0.000000 -0.493133
vt 0.013588 0.766435
vt 0.218737 0.766435
vt 0.013588 0.987162
vt 0.218737 0.987162
vt 0.116163 0.766435
vt 0.116163 0.987162
vn -0.670954 -0.085423 -0.736562
vn -0.972248 -0.123783 -0.198525
vn -0.972248 -0.123783 -0.198525
vn -0.670954 -0.085423 -0.736562
vn -0.902402 -0.114890 0.415296
vn -0.902402 -0.114890 0.415296
s 1
g group5 group3 pPlane16
usemtl blinn1SG
f 49/49/49 53/53/50 54/54/51 51/51/52
f 54/54/51 53/53/50 50/50/53 52/52/54
g default
v 0.971280 -0.802257 -0.499838
v 0.932257 -0.808536 -0.076215
v 0.882062 0.019671 -0.495876
v 0.843039 0.013393 -0.072253
v 0.798832 -0.821928 -0.302360
v 0.709614 -0.000000 -0.298397
vt 0.550836 0.774801
vt 0.550836 0.979950
vt 0.244933 0.774801
vt 0.244932 0.979950
vt 0.550836 0.877375
vt 0.244930 0.877374
vn -0.747082 -0.077911 -0.660151
vn -0.989921 -0.107006 -0.092775
vn -0.989921 -0.107006 -0.092775
vn -0.747082 -0.077911 -0.660151
vn -0.854874 -0.095253 0.510016
vn -0.854874 -0.095253 0.510016
s 1
g group5 group3 pPlane17
usemtl blinn1SG
f 55/55/55 59/59/56 60/60/57 57/57/58
f 60/60/57 59/59/56 56/56/59 58/58/60
g default
v 0.482319 -1.235903 -0.540789
v 0.191434 -1.235903 -0.230298
v 0.482319 -0.000000 -0.540789
v 0.191434 -0.000000 -0.230298
v 0.224131 -1.235903 -0.491169
v 0.224131 -0.000000 -0.491169
vt 0.550836 0.774801
vt 0.550836 0.979950
vt 0.244933 0.774801
vt 0.244932 0.979950
vt 0.550836 0.877375
vt 0.244930 0.877374
vn -0.188731 0.000000 -0.982029
vn -0.729773 0.000000 -0.683690
vn -0.729773 0.000000 -0.683690
vn -0.188731 0.000000 -0.982029
vn -0.992237 0.000000 -0.124364
vn -0.992237 0.000000 -0.124364
s 1
g group5 group3 pPlane18
usemtl blinn1SG
f 61/61/61 65/65/62 66/66/63 63/63/64
f 66/66/63 65/65/62 62/62/65 64/64/66
g default
v -0.002711 -0.826766 -0.451419
v -0.389410 -0.826766 -0.628853
v -0.002711 -0.000000 -0.451419
v -0.389410 -0.000000 -0.628853
v -0.131631 -0.826766 -0.680554
v -0.131631 -0.000000 -0.680554
vt 0.550836 0.774801
vt 0.550836 0.979950
vt 0.244933 0.774801
vt 0.244932 0.979950
vt 0.550836 0.877375
vt 0.244930 0.877374
vn 0.871525 0.000000 -0.490352
vn 0.417037 0.000000 -0.908890
vn 0.417037 0.000000 -0.908890
vn 0.871525 0.000000 -0.490352
vn -0.196647 0.000000 -0.980474
vn -0.196647 0.000000 -0.980474
s 1
g group5 group3 pPlane19
usemtl blinn1SG
f 67/67/67 71/71/68 72/72/69 69/69/70
f 72/72/69 71/71/68 68/68/71 70/70/72
g default
v -0.939076 -1.669123 0.290311
v -0.788405 -1.641847 0.687265
v -0.759882 -0.035224 0.110023
v -0.609210 -0.007948 0.506978
v -1.007250 -1.633899 0.541776
v -0.828055 -0.000000 0.361489
vt 0.550836 0.774801
vt 0.550836 0.979950
vt 0.244933 0.774801
vt 0.244932 0.979950
vt 0.550836 0.877375
vt 0.244930 0.877374
vn -0.959698 0.075380 -0.270735
vn -0.928894 0.139720 0.342978
vn -0.928894 0.139720 0.342978
vn -0.959698 0.075380 -0.270735
vn -0.543501 0.150724 0.825766
vn -0.543501 0.150724 0.825766
s 1
g group5 group3 pPlane20
usemtl blinn1SG
f 73/73/73 77/77/74 78/78/75 75/75/76
f 78/78/75 77/77/74 74/74/77 76/76/78
g default
v 0.006237 -0.765902 0.639157
v -0.000312 -0.765902 0.245070
v 0.006237 -0.000000 0.639157
v -0.000312 -0.000000 0.245070
v 0.146063 -0.765902 0.439736
v 0.146063 -0.000000 0.439736
vt 0.550836 0.774801
vt 0.550836 0.979950
vt 0.244933 0.774801
vt 0.244932 0.979950
vt 0.550836 0.877375
vt 0.244930 0.877374
vn 0.818786 0.000000 0.574100
vn 0.999862 0.000000 -0.016615
vn 0.999862 0.000000 -0.016615
vn 0.818786 0.000000 0.574100
vn 0.799258 0.000000 -0.600988
vn 0.799258 0.000000 -0.600988
s 1
g group5 group3 pPlane21
usemtl blinn1SG
f 79/79/79 83/83/80 84/84/81 81/81/82
f 84/84/81 83/83/80 80/80/83 82/82/84
g default
v 0.838506 -0.844951 0.141045
v 0.451808 -0.827909 -0.035569
v 0.838506 -0.022007 0.220450
v 0.451808 -0.004966 0.043836
v 0.709587 -0.822944 -0.087031
v 0.709587 -0.000000 -0.007626
vt 0.550836 0.774801
vt 0.550836 0.979950
vt 0.244933 0.774801
vt 0.244932 0.979950
vt 0.550836 0.877375
vt 0.244930 0.877374
vn 0.871525 0.047095 -0.488085
vn 0.417037 0.087292 -0.904688
vn 0.417037 0.087292 -0.904688
vn 0.871525 0.047095 -0.488085
vn -0.196647 0.094168 -0.975942
vn -0.196647 0.094168 -0.975942
s 1
g group5 group3 pPlane22
usemtl blinn1SG
f 85/85/85 89/89/86 90/90/87 87/87/88
f 90/90/87 89/89/86 86/86/89 88/88/90
g default
v 0.584435 -1.466527 0.843376
v 0.117470 -1.466527 0.629112
v 0.584435 -0.000000 0.843376
v 0.117470 -0.000000 0.629112
v 0.428756 -1.466527 0.566680
v 0.428756 -0.000000 0.566680
vt 0.550836 0.774801
vt 0.550836 0.979950
vt 0.244933 0.774801
vt 0.244932 0.979950
vt 0.550836 0.877375
vt 0.244930 0.877374
vn 0.871524 0.000000 -0.490352
vn 0.417037 0.000000 -0.908890
vn 0.417037 0.000000 -0.908890
vn 0.871524 0.000000 -0.490352
vn -0.196647 0.000000 -0.980474
vn -0.196647 0.000000 -0.980474
s 1
g group5 group3 pPlane23
usemtl blinn1SG
f 91/91/91 95/95/92 96/96/93 93/93/94
f 96/96/93 95/95/92 92/92/95 94/94/96
g default
v -0.851648 -0.834220 0.268231
v -0.861567 -0.838586 -0.157093
v -0.917698 -0.010125 0.261312
v -0.927616 -0.014491 -0.164013
v -0.702649 -0.824094 0.051853
v -0.768699 -0.000000 0.044933
vt 0.550836 0.774801
vt 0.550836 0.979950
vt 0.244933 0.774801
vt 0.244932 0.979950
vt 0.550836 0.877375
vt 0.244930 0.877374
vn 0.820024 0.070492 0.567971
vn 0.996531 0.079668 -0.024057
vn 0.996531 0.079668 -0.024057
vn 0.820024 0.070492 0.567971
vn 0.792629 0.058432 -0.606898
vn 0.792629 0.058432 -0.606898
s 1
g group5 group3 pPlane24
usemtl blinn1SG
f 97/97/97 101/101/98 102/102/99 99/99/100
f 102/102/99 101/101/98 98/98/101 100/100/102
g default
v -0.392605 -0.632287 -0.754196
v -0.421700 -0.629308 -0.264240
v -0.329892 -0.019605 -0.754196
v -0.358988 -0.016627 -0.264240
v -0.584140 -0.612682 -0.519838
v -0.521428 -0.000000 -0.519838
vt 0.013588 0.766435
vt 0.218737 0.766435
vt 0.013588 0.987162
vt 0.218737 0.987162
vt 0.116163 0.766435
vt 0.116163 0.987162
vn -0.768664 0.078678 -0.634795
vn -0.993035 0.101644 -0.059587
vn -0.993035 0.101644 -0.059588
vn -0.768664 0.078678 -0.634795
vn -0.838331 0.085810 0.538366
vn -0.838331 0.085810 0.538366
s 1
g group5 group3 pPlane25
usemtl blinn1SG
f 103/103/103 107/107/104 108/108/105 105/105/106
f 108/108/105 107/107/104 104/104/107 106/106/108
g default
v -0.499828 -0.849892 -0.201665
v -0.886527 -0.826299 -0.377524
v -0.499828 -0.030468 -0.091732
v -0.886527 -0.006875 -0.267590
v -0.628748 -0.819424 -0.428766
v -0.628748 -0.000000 -0.318833
vt 0.550836 0.774801
vt 0.550836 0.979950
vt 0.244933 0.774801
vt 0.244932 0.979950
vt 0.550836 0.877375
vt 0.244930 0.877374
vn 0.871525 0.065201 -0.485997
vn 0.417037 0.120853 -0.900819
vn 0.417037 0.120853 -0.900819
vn 0.871525 0.065201 -0.485997
vn -0.196649 0.130371 -0.971768
vn -0.196649 0.130371 -0.971768
s 1
g group5 group3 pPlane26
usemtl blinn1SG
f 109/109/109 113/113/110 114/114/111 111/111/112
f 114/114/111 113/113/110 110/110/113 112/112/114
g default
v -0.259661 -1.358566 -0.037761
v -0.692250 -1.358566 -0.236251
v -0.259661 -0.000000 -0.037761
v -0.692250 -0.000000 -0.236251
v -0.403880 -1.358566 -0.294087
v -0.403880 -0.000000 -0.294087
vt 0.550836 0.774801
vt 0.550836 0.979950
vt 0.244933 0.774801
vt 0.244932 0.979950
vt 0.550836 0.877375
vt 0.244930 0.877374
vn 0.871524 0.000000 -0.490353
vn 0.417036 0.000000 -0.908890
vn 0.417036 0.000000 -0.908890
vn 0.871524 0.000000 -0.490353
vn -0.196646 0.000000 -0.980475
vn -0.196646 0.000000 -0.980475
s 1
g group5 group3 pPlane27
usemtl blinn1SG
f 115/115/115 119/119/116 120/120/117 117/117/118
f 120/120/117 119/119/116 116/116/119 118/118/120
g default
v -0.602290 -1.067571 -0.629710
v 0.199508 -1.094653 -0.888447
v -0.600414 -0.015018 -0.734068
v 0.201384 -0.042100 -0.992804
v -0.106927 -1.052553 -0.469334
v -0.105051 -0.000000 -0.573691
vt 0.013588 0.766435
vt 0.218737 0.766435
vt 0.013588 0.987162
vt 0.218737 0.987162
vt 0.116163 0.766435
vt 0.116163 0.987162
vn -0.309230 0.094374 0.946293
vn 0.308613 0.093302 0.946600
vn 0.308613 0.093302 0.946600
vn -0.309230 0.094374 0.946293
vn 0.808650 0.056615 0.585559
vn 0.808650 0.056615 0.585559
s 1
g group5 group3 pPlane28
usemtl blinn1SG
f 121/121/121 125/125/122 126/126/123 123/123/124
f 126/126/123 125/125/122 122/122/125 124/124/126
