# This file uses centimeters as units for non-parametric coordinates.

mtllib filaments_gros.mtl
g default
v -0.161162 -1.057715 -0.495336
v 0.520894 -1.057715 -0.000000
v -0.161162 0.000000 -0.495336
v 0.520894 -0.000000 0.000000
v 0.000000 -1.057715 -0.000000
v 0.000000 -0.000000 0.000000
vt 0.013588 0.766435
vt 0.218737 0.766435
vt 0.013588 0.987162
vt 0.218737 0.987162
vt 0.116163 0.766435
vt 0.116163 0.987162
vn -0.950934 0.000000 0.309394
vn -0.587625 0.000000 0.809133
vn -0.587625 0.000000 0.809133
vn -0.950934 0.000000 0.309394
vn 0.000000 -0.000000 1.000000
vn 0.000000 -0.000000 1.000000
s 1
g pPlane1
usemtl blinn1SG
f 1/1/1 5/5/2 6/6/3 3/3/4
f 6/6/3 5/5/2 2/2/5 4/4/6
