# This file uses centimeters as units for non-parametric coordinates.

mtllib filaments_groupe.mtl
g default
v -0.075001 -1.079523 -0.479641
v 0.362540 -1.095635 0.240676
v 0.048924 -0.030371 -0.531449
v 0.486465 -0.046483 0.188867
v -0.115387 -1.049152 0.038796
v 0.008537 0.000000 -0.013012
vt 0.013588 0.766435
vt 0.218737 0.766435
vt 0.013588 0.987162
vt 0.218737 0.987162
vt 0.116163 0.766435
vt 0.116163 0.987162
vn -0.990082 0.112812 -0.083737
vn -0.846669 0.125542 0.517099
vn -0.846669 0.125542 0.517099
vn -0.990082 0.112812 -0.083737
vn -0.380054 0.090349 0.920541
vn -0.380054 0.090349 0.920541
s 1
g pPlane3 group6 group4
usemtl blinn1SG
f 1/1/1 5/5/2 6/6/3 3/3/4
f 6/6/3 5/5/2 2/2/5 4/4/6
g default
v 0.596996 -0.829495 -0.290227
v 0.213901 -0.849872 -0.474188
v 0.485201 -0.022984 -0.146754
v 0.102106 -0.043362 -0.330715
v 0.469328 -0.806510 -0.518909
v 0.357533 0.000000 -0.375437
vt 0.550836 0.774801
vt 0.550836 0.979950
vt 0.244933 0.774801
vt 0.244932 0.979950
vt 0.550836 0.877375
vt 0.244930 0.877374
vn 0.863665 0.201882 -0.461873
vn 0.413475 0.214720 -0.884835
vn 0.413475 0.214720 -0.884835
vn 0.863665 0.201882 -0.461873
vn -0.194552 0.145593 -0.970027
vn -0.194552 0.145593 -0.970027
s 1
g group6 group4 pPlane4
usemtl blinn1SG
f 7/7/7 11/11/8 12/12/9 9/9/10
f 12/12/9 11/11/8 8/8/11 10/10/12
g default
v -0.227840 -1.085465 -0.517224
v -0.403174 -1.103776 0.307082
v -0.052195 -0.044191 -0.456733
v -0.227528 -0.062502 0.367573
v -0.610556 -1.041274 -0.166644
v -0.434911 0.000000 -0.106153
vt 0.013588 0.766435
vt 0.218737 0.766435
vt 0.013588 0.987162
vt 0.218737 0.987162
vt 0.116163 0.766435
vt 0.116163 0.987162
vn -0.657721 0.153784 -0.737396
vn -0.963929 0.174285 -0.201160
vn -0.963929 0.174285 -0.201160
vn -0.657721 0.153784 -0.737396
vn -0.902174 0.128255 0.411866
vn -0.902174 0.128255 0.411866
s 1
g group6 group4 pPlane5
usemtl blinn1SG
f 13/13/13 17/17/14 18/18/15 15/15/16
f 18/18/15 17/17/14 14/14/17 16/16/18
g default
v -0.119762 -0.833459 0.524078
v 0.144322 -0.846126 0.190735
v -0.193871 -0.014934 0.434263
v 0.070213 -0.027601 0.100919
v 0.132617 -0.818525 0.451933
v 0.058508 0.000000 0.362117
vt 0.550836 0.774801
vt 0.550836 0.979950
vt 0.244933 0.774801
vt 0.244932 0.979950
vt 0.550836 0.877375
vt 0.244930 0.877374
vn 0.265504 0.128880 0.955457
vn 0.778909 0.137658 0.611843
vn 0.778909 0.137658 0.611843
vn 0.265504 0.128880 0.955457
vn 0.994979 0.093888 0.034667
vn 0.994979 0.093888 0.034667
s 1
g group6 group4 pPlane6
usemtl blinn1SG
f 19/19/19 23/23/20 24/24/21 21/21/22
f 24/24/21 23/23/20 20/20/23 22/22/24
g default
v -0.096826 -0.845407 -0.180556
v -0.486116 -0.835885 -0.351965
v -0.133803 -0.029650 -0.051265
v -0.523093 -0.020129 -0.222674
v -0.229517 -0.815756 -0.405582
v -0.266495 0.000000 -0.276291
vt 0.550836 0.774801
vt 0.550836 0.979950
vt 0.244933 0.774801
vt 0.244932 0.979950
vt 0.550836 0.877375
vt 0.244930 0.877374
vn 0.862137 0.117206 -0.492933
vn 0.401011 0.161105 -0.901796
vn 0.401011 0.161105 -0.901796
vn 0.862137 0.117206 -0.492933
vn -0.213194 0.143505 -0.966413
vn -0.213194 0.143505 -0.966413
s 1
g group6 group4 pPlane7
usemtl blinn1SG
f 25/25/25 29/29/26 30/30/27 27/27/28
f 30/30/27 29/29/26 26/26/29 28/28/30
