# This file uses centimeters as units for non-parametric coordinates.

v -16.002026 8.361043 -51.684387
v -21.366978 8.163513 -54.640892
v -23.301062 1.554437 -51.336178
v -18.502930 2.651766 -48.980896
v -21.809792 0.111144 -46.988060
v -18.464485 1.568250 -45.142403
v -25.744057 -6.118887 -51.677773
v -22.617775 -7.402415 -48.014084
v -18.448843 -3.970833 -43.519638
v -14.730628 9.059811 -47.039345
v -11.762510 7.520106 -45.348618
v -14.213140 0.333761 -44.537617
v -14.884494 -3.530449 -44.790737
v -8.149528 6.831961 -44.735558
v -8.162343 1.634430 -43.812336
v -10.564994 -6.436935 -41.728935
v -4.170389 -0.616932 -44.983841
v -4.353365 -5.663321 -43.737797
v -6.280541 4.149092 -50.796524
v -7.836015 7.071215 -49.403927
v -10.819086 8.856994 -49.332405
v -14.812932 10.523720 -53.501049
v -20.607702 10.230241 -56.512016
v -10.508258 8.025515 -52.683807
v -22.871532 9.103771 -57.948044
v -23.736212 7.221614 -56.548206
v -26.541584 2.196664 -54.644882
v -27.404812 -1.676243 -53.083260
v -26.596649 -4.521434 -56.624641
v -26.550943 0.454960 -58.548206
v -24.613768 4.798510 -59.288681
v -22.658607 6.544970 -60.443665
v -24.573429 -7.047329 -59.511166
v -25.753231 -0.924973 -62.286034
v -24.657850 3.386124 -61.684334
v -21.685249 4.356099 -61.355400
v -21.396870 -0.344423 -63.714355
v -19.163109 -8.303473 -61.120979
v -23.867054 -7.271508 -54.086273
v -20.501541 -9.193039 -51.296787
v -22.863857 -9.966017 -57.533348
v -21.142477 -11.818949 -56.144920
v -15.852433 -7.908769 -46.807194
v -16.272585 -9.860333 -49.589851
v -11.304547 -8.927917 -44.167999
v -15.276016 -11.450475 -54.917721
v -10.110914 -9.244068 -48.474564
v -8.393556 -11.281553 -54.002998
v -8.162304 -12.651005 -59.151661
v -13.546881 -11.282591 -58.767925
v -4.945571 -7.401943 -58.776428
v -4.318011 -8.274014 -54.457329
v -6.102316 -8.351974 -47.723793
v -6.128085 -8.738791 -45.128792
v -1.626189 -7.437374 -45.740849
v -1.771825 -5.362010 -44.635319
v -1.883699 -7.713426 -50.116982
v -1.976255 -7.703522 -47.837608
v -1.786281 -1.840675 -46.383316
v -4.034694 1.258160 -48.363556
v -2.332950 -0.599610 -49.153313
v 0.075221 -5.610087 -46.188526
v -0.552594 -4.209479 -47.729576
v -1.218369 -3.498325 -49.797672
v -4.068009 0.486645 -51.807800
v -2.702127 -3.248291 -52.506699
v -0.379397 -6.072908 -49.915699
v -3.149325 -5.956655 -53.090248
v -3.673588 -5.282446 -58.347557
v -4.054497 -3.097239 -56.938656
v -5.402955 0.949338 -56.765308
v -6.861868 4.158529 -55.062874
v -8.229426 6.565326 -53.417080
v -10.358421 7.542988 -56.956074
v -12.276270 9.601031 -57.190121
v -8.677000 5.742757 -57.187485
v -7.283523 3.483436 -59.215126
v -5.013988 1.037767 -60.138424
v -3.482148 -2.680930 -59.972157
v -18.057751 8.712723 -59.636337
v -16.827911 6.128489 -60.694847
v -15.731451 0.380669 -62.343674
v -12.367670 7.382241 -60.934792
v -10.390643 6.635205 -61.069141
v -8.813119 5.821857 -61.175228
v -8.310863 3.632613 -62.088837
v -7.622877 0.187205 -62.388557
v -5.923406 -3.734293 -62.966057
v -3.836725 -4.769261 -60.197754
v -5.792835 -5.590643 -63.177399
v -9.770771 -9.379135 -62.829033
v -14.283854 -8.601984 -61.597385
v -15.193951 -7.805340 -62.009674
v -10.445104 4.728447 -62.106960
v -11.189375 1.709647 -62.747673
v -10.687902 -4.981819 -63.400711
vt 0.290127 0.875146
vt 0.246861 0.829588
vt 0.272934 0.776392
vt 0.313964 0.804715
vt 0.309214 0.763349
vt 0.348573 0.779074
vt 0.254217 0.724429
vt 0.283916 0.707392
vt 0.345232 0.721804
vt 0.366938 0.889708
vt 0.404528 0.768664
vt 0.435681 0.901174
vt 0.386455 0.713102
vt 0.490433 0.788852
vt 0.486120 0.866895
vt 0.452854 0.665885
vt 0.352863 0.960936
vt 0.253947 0.895025
vt 0.228648 0.840200
vt 0.282729 0.971969
vt 0.231265 0.812966
vt 0.222856 0.824170
vt 0.241683 0.775007
vt 0.246424 0.752586
vt 0.219527 0.767416
vt 0.226472 0.737149
vt 0.214190 0.795875
vt 0.205515 0.811689
vt 0.199762 0.762822
vt 0.205374 0.721246
vt 0.201738 0.786383
vt 0.190307 0.802545
vt 0.173550 0.768549
vt 0.167520 0.695386
vt 0.238593 0.710386
vt 0.258378 0.678924
vt 0.537063 0.692304
vt 0.543177 0.754093
vt 0.909731 0.766196
vt 0.870764 0.882033
vt 0.590437 0.855401
vt 0.547357 0.900421
vt 0.829571 0.937222
vt 0.510520 0.958220
vt 0.832654 0.739926
vt 0.691125 0.656668
vt 0.705034 0.553105
vt 0.835934 0.585616
vt 0.211341 0.697952
vt 0.216804 0.680099
vt 0.335620 0.656908
vt 0.286334 0.641553
vt 0.430829 0.603314
vt 0.211972 0.625771
vt 0.312732 0.549434
vt 0.213787 0.522843
vt 0.157830 0.617198
vt 0.121153 0.536746
vt 0.187543 0.967221
vt 0.201519 0.922226
vt 0.195870 0.849894
vt 0.167628 0.842108
vt 0.123177 0.784142
vt 0.141383 0.897114
vt 0.112471 0.921427
vt 0.123538 0.663087
vt 0.061232 0.611302
vt 0.126678 0.681068
vt 0.083081 0.880464
vt 0.065740 0.823940
vt 0.047074 0.705302
vt 0.771965 0.687032
vt 0.570658 0.624420
vt 0.548024 0.542152
vt 0.534876 0.644335
vt 0.898149 0.672781
vt 0.573271 0.686400
vt 0.563293 0.701547
vt 0.616344 0.680567
vt 0.590561 0.678149
vt 0.571956 0.738530
vt 0.578504 0.788786
vt 0.597077 0.761721
vt 0.590186 0.716579
vt 0.580600 0.702476
vt 0.610433 0.728195
vt 0.628374 0.793701
vt 0.648394 0.737786
vt 0.609593 0.700897
vt 0.663685 0.699041
vt 0.749543 0.724192
vt 0.719447 0.755630
vt 0.707072 0.822986
vt 0.665955 0.879986
vt 0.620897 0.924828
vt 0.589591 0.977348
vt 0.702658 0.932472
vt 0.691449 0.986289
vt 0.748465 0.881698
vt 0.762302 0.824868
vt 0.765430 0.766241
vt 0.784392 0.936163
vt 0.787802 0.973247
vt 0.804436 0.896017
vt 0.821100 0.833823
vt 0.827060 0.764460
vt 0.776160 0.738622
vn -0.485988 0.714966 0.502633
vn -0.486252 0.572747 0.659939
vn -0.624549 0.410111 0.664641
vn -0.651912 0.598526 0.465593
vn -0.734581 0.292011 0.612470
vn -0.523468 0.365167 0.769828
vn -0.874834 -0.270157 0.402094
vn -0.664303 -0.382760 0.642025
vn -0.315722 -0.215848 0.923975
vn -0.469504 0.703913 0.532985
vn -0.180494 0.209860 0.960927
vn -0.069238 0.513580 0.855244
vn -0.244758 -0.103068 0.964090
vn 0.225741 0.313798 0.922265
vn 0.484281 0.426437 0.763953
vn -0.089353 -0.119812 0.988768
vn 0.340783 -0.068543 0.937640
vn 0.454431 0.414852 0.788283
vn 0.866769 0.493434 0.072350
vn 0.812326 0.570629 0.120454
vn 0.240735 0.963728 0.115221
vn 0.050682 0.994349 0.093281
vn -0.227901 0.972959 -0.037582
vn 0.455458 0.889991 0.021755
vn -0.779379 0.545833 0.307629
vn -0.509798 0.788024 -0.345144
vn -0.862331 0.371020 0.344572
vn -0.896582 0.053278 0.439662
vn -0.971981 0.103431 -0.211082
vn -0.942189 -0.310859 -0.125087
vn -0.861540 0.428840 -0.271744
vn -0.340643 0.573223 -0.745237
vn -0.624063 -0.179281 -0.760529
vn -0.622468 -0.508829 -0.594666
vn -0.589341 0.390835 -0.707054
vn -0.037778 0.384024 -0.922550
vn -0.093400 -0.058221 -0.993925
vn -0.119837 -0.522917 -0.843918
vn -0.736726 -0.663001 0.132908
vn -0.331808 -0.874560 0.353622
vn -0.640170 -0.735117 -0.223128
vn -0.339449 -0.939418 -0.047619
vn -0.227175 -0.755123 0.614964
vn -0.102931 -0.925084 0.365549
vn -0.215145 -0.753800 0.620885
vn -0.072843 -0.992926 0.093765
vn 0.108479 -0.960895 0.254782
vn 0.272973 -0.941023 0.199903
vn -0.145997 -0.940286 -0.307486
vn 0.340410 -0.902054 -0.265366
vn 0.668057 -0.743981 0.013865
vn 0.769072 -0.572763 -0.283673
vn 0.277691 -0.950735 0.137805
vn 0.224978 -0.811976 0.538591
vn 0.470922 -0.549297 0.690294
vn 0.554841 -0.018289 0.831756
vn 0.465074 -0.875011 -0.134397
vn 0.417288 -0.907103 0.055088
vn 0.719369 0.487382 0.494942
vn 0.640574 0.722154 0.261070
vn 0.831263 0.545793 -0.105411
vn 0.920707 0.384312 0.067840
vn 0.951481 -0.076805 0.297967
vn 0.883344 0.317516 -0.344799
vn 0.859231 0.464482 -0.214428
vn 0.904256 0.262022 -0.337143
vn 0.912318 -0.207797 -0.352840
vn 0.915389 -0.147706 -0.374495
vn 0.949394 -0.263365 -0.171142
vn 0.965285 0.239526 -0.104178
vn 0.889269 0.449117 -0.086571
vn 0.822658 0.549786 -0.144807
vn 0.707379 0.689903 -0.153781
vn 0.595573 0.796058 -0.107632
vn 0.291338 0.909551 -0.296376
vn 0.718708 0.677612 -0.155890
vn 0.817449 0.531097 -0.222964
vn 0.832286 0.435812 -0.342590
vn 0.909482 0.268995 -0.316992
vn -0.007863 0.801441 -0.598023
vn -0.008959 0.435436 -0.900175
vn -0.047671 0.083860 -0.995337
vn 0.121163 0.655940 -0.745025
vn 0.372537 0.698239 -0.611292
vn 0.707141 0.627505 -0.325867
vn 0.543000 0.381186 -0.748230
vn 0.339094 0.239790 -0.909679
vn 0.352522 0.127459 -0.927083
vn 0.905435 -0.249456 -0.343452
vn 0.505114 -0.321341 -0.800999
vn 0.258601 -0.635710 -0.727323
vn -0.192314 -0.736249 -0.648809
vn -0.046461 -0.230466 -0.971971
vn -0.055550 0.269973 -0.961264
vn -0.095084 0.133281 -0.986507
vn -0.081015 0.027494 -0.996334
vn 0.217048 -0.975337 -0.040087
vn 0.217048 -0.975337 -0.040087
vn 0.217048 -0.975337 -0.040087
vn 0.217049 -0.975337 -0.040087
vn -0.216301 -0.254652 -0.942532
vn -0.216301 -0.254652 -0.942532
vn -0.216301 -0.254652 -0.942532
vn -0.216301 -0.254652 -0.942532
s 1
f 1/1/1 2/2/2 3/3/3 4/4/4
f 4/4/4 3/3/3 5/5/5 6/6/6
f 3/3/3 7/7/7 8/8/8 5/5/5
f 9/9/9 6/6/6 5/5/5 8/8/8
f 1/1/1 4/4/4 6/6/6 10/10/10
f 12/11/11 11/12/12 10/10/10 6/6/6
f 13/13/13 12/11/11 6/6/6 9/9/9
f 15/14/14 14/15/15 11/12/12 12/11/11
f 16/16/16 15/14/14 12/11/11 13/13/13
f 18/37/17 17/38/18 15/14/14 16/16/16
f 15/14/14 19/41/19 20/42/20 14/15/15
f 14/15/15 20/42/20 21/44/21 11/12/12
f 1/1/1 10/10/10 11/12/12 21/17/21
f 2/2/2 1/1/1 22/18/22 23/19/23
f 24/20/24 22/18/22 1/1/1 21/17/21
f 26/21/25 2/2/2 23/19/23 25/22/26
f 7/7/7 3/3/3 27/23/27 28/24/28
f 3/3/3 2/2/2 26/21/25 27/23/27
f 30/25/29 29/26/30 28/24/28 27/23/27
f 31/27/31 30/25/29 27/23/27 26/21/25
f 31/27/31 26/21/25 25/22/26 32/28/32
f 34/29/33 33/30/34 29/26/30 30/25/29
f 35/31/35 34/29/33 30/25/29 31/27/31
f 36/32/36 35/31/35 31/27/31 32/28/32
f 34/29/33 35/31/35 36/32/36 37/33/37
f 33/30/34 34/29/33 37/33/37 38/34/38
f 7/7/7 28/24/28 29/26/30 39/35/39
f 8/8/8 7/7/7 39/35/39 40/36/40
f 29/26/30 33/30/34 41/49/41 39/35/39
f 39/35/39 41/49/41 42/50/42 40/36/40
f 43/51/43 13/13/13 9/9/9 8/8/8
f 40/36/40 44/52/44 43/51/43 8/8/8
f 43/51/43 45/53/45 16/16/16 13/13/13
f 42/50/42 46/54/46 44/52/44 40/36/40
f 45/53/45 43/51/43 44/52/44 47/55/47
f 47/55/47 44/52/44 46/54/46 48/56/48
f 50/57/49 49/58/50 48/56/48 46/54/46
f 52/46/51 48/47/48 49/48/50 51/72/52
f 52/46/51 53/73/53 47/74/47 48/47/48
f 47/74/47 53/73/53 54/75/54 45/53/45
f 18/37/17 16/16/16 45/53/45 54/75/54
f 18/37/17 54/75/54 55/77/55 56/78/56
f 52/46/51 57/79/57 58/80/58 53/73/53
f 56/78/56 59/81/59 17/38/18 18/37/17
f 17/38/18 60/82/60 19/41/19 15/14/14
f 17/38/18 59/81/59 61/83/61 60/82/60
f 63/84/62 59/81/59 56/78/56 62/85/63
f 64/86/64 61/83/61 59/81/59 63/84/62
f 60/82/60 61/83/61 65/87/65 19/41/19
f 66/88/66 65/87/65 61/83/61 64/86/64
f 56/78/56 55/77/55 58/80/58 62/85/63
f 62/85/63 58/80/58 57/79/57 67/89/67
f 64/86/64 63/84/62 62/85/63 67/89/67
f 66/88/66 64/86/64 67/89/67 68/90/68
f 68/90/68 67/89/67 57/79/57 52/46/51
f 69/91/69 68/90/68 52/46/51 51/72/52
f 70/92/70 66/88/66 68/90/68 69/91/69
f 71/93/71 65/87/65 66/88/66 70/92/70
f 72/94/72 19/41/19 65/87/65 71/93/71
f 73/95/73 20/42/20 19/41/19 72/94/72
f 21/44/21 20/42/20 73/95/73 24/96/24
f 22/18/22 24/20/24 74/59/74 75/60/75
f 73/95/73 76/97/76 74/98/74 24/96/24
f 76/97/76 73/95/73 72/94/72 77/99/77
f 71/93/71 78/100/78 77/99/77 72/94/72
f 78/100/78 71/93/71 70/92/70 79/101/79
f 23/19/23 22/18/22 75/60/75 80/61/80
f 32/28/32 25/22/26 23/19/23 80/61/80
f 81/62/81 36/32/36 32/28/32 80/61/80
f 37/33/37 36/32/36 81/62/81 82/63/82
f 83/64/83 81/62/81 80/61/80 75/60/75
f 83/64/83 75/60/75 74/59/74 84/65/84
f 76/97/76 85/102/85 84/103/84 74/98/74
f 77/99/77 86/104/86 85/102/85 76/97/76
f 77/99/77 78/100/78 87/105/87 86/104/86
f 88/106/88 87/105/87 78/100/78 79/101/79
f 79/101/79 70/92/70 69/91/69 89/107/89
f 88/106/88 79/101/79 89/107/89 90/45/90
f 90/45/90 89/107/89 69/91/69 51/72/52
f 51/72/52 49/48/50 91/76/91 90/45/90
f 41/49/41 33/30/34 38/34/38 42/50/42
f 38/34/38 50/57/49 46/54/46 42/50/42
f 49/58/50 50/57/49 92/66/92 91/67/91
f 82/63/82 93/68/93 38/34/38 37/33/37
f 92/66/92 50/57/49 38/34/38 93/68/93
f 94/43/94 84/103/84 85/102/85 86/104/86
f 81/62/81 83/64/83 84/65/84 94/69/94
f 95/70/95 82/63/82 81/62/81 94/69/94
f 87/105/87 95/40/95 94/43/94 86/104/86
f 95/40/95 87/105/87 88/106/88 96/39/96
f 93/68/93 82/63/82 95/70/95 96/71/96
f 90/45/90 91/76/91 96/39/96 88/106/88
s off
f 54/75/97 53/73/98 58/80/99 55/77/100
f 91/67/101 92/66/102 93/68/103 96/71/104
