# This file uses centimeters as units for non-parametric coordinates.

v -4.391514 0.245100 36.005194
v 5.754161 0.000000 36.166480
v -3.397001 15.866442 35.043788
v 4.388807 15.688415 34.622721
v -3.373086 15.847227 26.776251
v 4.743101 15.901146 26.701617
v -4.391514 0.245100 25.702776
v 5.597776 0.245100 25.702776
v -3.476097 11.457709 26.653335
v 4.675858 11.457709 26.653335
v 4.675858 11.457708 35.060821
v -3.476097 11.457708 35.060821
v 5.260871 5.681370 35.657729
v 5.119462 5.753983 26.196095
v -3.913199 5.753983 26.196095
v -3.913199 5.753983 35.511885
v 1.399460 0.000000 25.541489
v 1.331597 5.279857 25.935896
v 0.529156 11.355883 26.409936
v 1.377678 16.146246 26.571602
v 1.377678 16.146246 35.136401
v 0.864489 11.437011 35.543414
v 1.323199 5.681370 36.107667
v 2.040405 0.000000 36.166480
v -3.874672 4.844868 30.114691
v -3.993009 10.242507 31.627618
v -3.781288 16.105237 30.425772
v 1.377678 16.146246 30.439536
v 4.872726 15.947905 30.439536
v 4.940664 11.598246 30.725656
v 5.793238 5.625706 30.552801
v 6.185592 0.000000 31.705471
v 1.399460 0.000000 30.339818
v -4.547899 0.000000 30.339818
vt 0.116541 0.865473
vt 0.333525 0.585406
vt 0.595332 0.849710
vt 0.657158 0.786093
vt 0.722094 0.855590
vt 0.663491 0.918627
vt 0.111510 0.388278
vt 0.644621 0.184643
vt 0.543850 0.235710
vt 0.221245 0.313136
vt 0.517546 0.431761
vt 0.619628 0.367617
vt 0.149997 0.778924
vt 0.275144 0.823696
vt 0.226961 0.931698
vt 0.800526 0.449553
vt 0.698959 0.505636
vt 0.454467 0.096243
vt 0.406184 0.512341
vt 0.362327 0.932353
vt 0.503424 0.630953
vt 0.840425 0.258427
vt 0.604358 0.570103
vt 0.304889 0.991334
vt 0.707348 0.310591
vt 0.001907 0.805257
vt 0.784068 0.118078
vt 0.841635 0.574736
vt 0.759667 0.612345
vt 0.502933 0.938903
vt 0.573922 0.998008
vt 0.429008 0.697466
vt 0.571180 0.720602
vt 0.515555 0.771594
vt 0.012964 0.510296
vt 0.055358 0.710520
vt 0.242469 0.683477
vt 0.351739 0.776290
vt 0.431390 0.848858
vt 0.951189 0.508499
vt 0.899150 0.402530
vt 0.735188 0.001992
vt 0.672809 0.666776
vt 0.404114 0.325098
vt 0.240397 0.471977
vt 0.588547 0.069595
vt 0.305613 0.398618
vt 0.133494 0.598853
vn -0.010947 0.073449 0.997239
vn 0.760478 0.124468 0.637323
vn 0.767384 0.126714 0.628542
vn 0.000547 0.084643 0.996411
vn 0.013443 0.999896 0.005191
vn 0.806379 0.591002 0.021683
vn 0.632380 0.458429 -0.624451
vn 0.004809 0.658523 -0.752546
vn -0.006808 0.059006 -0.998234
vn 0.699962 0.084118 -0.709210
vn 0.730560 0.114427 -0.673193
vn 0.001956 0.082477 -0.996591
vn -0.004192 -0.999979 -0.005031
vn 0.002389 -0.673347 -0.739322
vn 0.662860 -0.495076 -0.561708
vn 0.823410 -0.567431 -0.004300
vn 0.994900 0.099224 -0.018131
vn 0.996629 0.081737 0.007078
vn -0.652392 0.101539 -0.751049
vn -0.997064 0.076492 -0.003515
vn -0.999501 0.030202 0.009276
vn -0.695604 0.058590 -0.716032
vn 0.662258 0.527374 0.532250
vn 0.032424 0.738603 0.673361
vn -0.726281 0.687311 -0.010956
vn -0.609275 0.526700 -0.592766
vn -0.521202 -0.533933 -0.665781
vn -0.669241 -0.743045 0.001029
vn -0.015006 -0.704676 0.709371
vn 0.663818 -0.483433 0.570647
vn -0.684671 0.069910 0.725492
vn -0.549827 0.611436 0.569065
vn -0.681549 0.089912 0.726228
vn -0.559427 -0.582237 0.589951
s 1
f 23/2/1 13/19/2 11/21/3 22/32/4
f 28/3/5 29/4/6 6/5/7 20/6/8
f 19/16/9 10/17/10 14/12/11 18/25/12
f 33/46/13 17/8/14 8/9/15 32/18/16
f 31/11/17 14/12/11 10/17/10 30/23/18
f 15/1/19 25/13/20 26/14/21 9/15/22
f 20/28/8 6/29/7 10/17/10 19/16/9
f 30/23/18 10/17/10 6/29/7 29/43/6
f 22/32/4 11/21/3 4/33/23 21/34/24
f 9/15/22 26/14/21 27/20/25 5/24/26
f 32/44/16 8/9/15 14/12/11 31/11/17
f 18/25/12 14/12/11 8/9/15 17/8/14
f 7/26/27 34/36/28 25/13/20 15/1/19
f 24/45/29 2/47/30 13/19/2 23/2/1
f 15/22/19 18/25/12 17/8/14 7/27/27
f 9/41/22 19/16/9 18/25/12 15/22/19
f 5/40/26 20/28/8 19/16/9 9/41/22
f 27/30/25 28/3/5 20/6/8 5/31/26
f 12/38/31 22/32/4 21/34/24 3/39/32
f 16/37/33 23/2/1 22/32/4 12/38/31
f 1/48/34 24/45/29 23/2/1 16/37/33
f 7/27/27 17/8/14 33/46/13 34/42/28
f 25/13/20 16/37/33 12/38/31 26/14/21
f 27/20/25 26/14/21 12/38/31 3/39/32
f 3/39/32 21/34/24 28/3/5 27/30/25
f 21/34/24 4/33/23 29/4/6 28/3/5
f 11/21/3 30/23/18 29/43/6 4/33/23
f 13/19/2 31/11/17 30/23/18 11/21/3
f 2/47/30 32/44/16 31/11/17 13/19/2
f 24/45/29 33/7/13 32/10/16 2/47/30
f 34/35/28 33/7/13 24/45/29 1/48/34
f 25/13/20 34/36/28 1/48/34 16/37/33
v -4.391514 0.245100 36.005194
v 5.754161 0.000000 36.166480
v -3.397001 15.866442 35.043788
v 4.388807 15.688415 34.622721
v -3.373086 15.847227 26.776251
v 4.743101 15.901146 26.701617
v -4.391514 0.245100 25.702776
v 5.597776 0.245100 25.702776
v -3.476097 11.457709 26.653335
v 4.675858 11.457709 26.653335
v 4.675858 11.457708 35.060821
v -3.476097 11.457708 35.060821
v 5.260871 5.681370 35.657729
v 5.119462 5.753983 26.196095
v -3.913199 5.753983 26.196095
v -3.913199 5.753983 35.511885
v 1.399460 0.000000 25.541489
v 1.331597 5.279857 25.935896
v 0.529156 11.355883 26.409936
v 1.377678 16.146246 26.571602
v 1.377678 16.146246 35.136401
v 0.864489 11.437011 35.543414
v 1.323199 5.681370 36.107667
v 2.040405 0.000000 36.166480
v -3.874672 4.844868 30.114691
v -3.993009 10.242507 31.627618
v -3.781288 16.105237 30.425772
v 1.377678 16.146246 30.439536
v 4.872726 15.947905 30.439536
v 4.940664 11.598246 30.725656
v 5.793238 5.625706 30.552801
v 6.185592 0.000000 31.705471
v 1.399460 0.000000 30.339818
v -4.547899 0.000000 30.339818
vt 0.116541 0.865473
vt 0.333525 0.585406
vt 0.595332 0.849710
vt 0.657158 0.786093
vt 0.722094 0.855590
vt 0.663491 0.918627
vt 0.111510 0.388278
vt 0.644621 0.184643
vt 0.543850 0.235710
vt 0.221245 0.313136
vt 0.517546 0.431761
vt 0.619628 0.367617
vt 0.149997 0.778924
vt 0.275144 0.823696
vt 0.226961 0.931698
vt 0.800526 0.449553
vt 0.698959 0.505636
vt 0.454467 0.096243
vt 0.406184 0.512341
vt 0.362327 0.932353
vt 0.503424 0.630953
vt 0.840425 0.258427
vt 0.604358 0.570103
vt 0.304889 0.991334
vt 0.707348 0.310591
vt 0.001907 0.805257
vt 0.784068 0.118078
vt 0.841635 0.574736
vt 0.759667 0.612345
vt 0.502933 0.938903
vt 0.573922 0.998008
vt 0.429008 0.697466
vt 0.571180 0.720602
vt 0.515555 0.771594
vt 0.012964 0.510296
vt 0.055358 0.710520
vt 0.242469 0.683477
vt 0.351739 0.776290
vt 0.431390 0.848858
vt 0.951189 0.508499
vt 0.899150 0.402530
vt 0.735188 0.001992
vt 0.672809 0.666776
vt 0.404114 0.325098
vt 0.240397 0.471977
vt 0.588547 0.069595
vt 0.305613 0.398618
vt 0.133494 0.598853
vn -0.010947 0.073449 0.997239
vn 0.760478 0.124468 0.637323
vn 0.767384 0.126714 0.628542
vn 0.000547 0.084643 0.996411
vn 0.013443 0.999896 0.005191
vn 0.806379 0.591002 0.021683
vn 0.632380 0.458429 -0.624451
vn 0.004809 0.658523 -0.752546
vn -0.006808 0.059006 -0.998234
vn 0.699962 0.084118 -0.709210
vn 0.730560 0.114427 -0.673193
vn 0.001956 0.082477 -0.996591
vn -0.004192 -0.999979 -0.005031
vn 0.002389 -0.673347 -0.739322
vn 0.662860 -0.495076 -0.561708
vn 0.823410 -0.567431 -0.004300
vn 0.994900 0.099224 -0.018131
vn 0.996629 0.081737 0.007078
vn -0.652392 0.101539 -0.751049
vn -0.997064 0.076492 -0.003515
vn -0.999501 0.030202 0.009276
vn -0.695604 0.058590 -0.716032
vn 0.662258 0.527374 0.532250
vn 0.032424 0.738603 0.673361
vn -0.726281 0.687311 -0.010956
vn -0.609275 0.526700 -0.592766
vn -0.521202 -0.533933 -0.665781
vn -0.669241 -0.743045 0.001029
vn -0.015006 -0.704676 0.709371
vn 0.663818 -0.483433 0.570647
vn -0.684671 0.069910 0.725492
vn -0.549827 0.611436 0.569065
vn -0.681549 0.089912 0.726228
vn -0.559427 -0.582237 0.589951
s 1
f 57/50/35 47/67/36 45/69/37 56/80/38
f 62/51/39 63/52/40 40/53/41 54/54/42
f 53/64/43 44/65/44 48/60/45 52/73/46
f 67/94/47 51/56/48 42/57/49 66/66/50
f 65/59/51 48/60/45 44/65/44 64/71/52
f 49/49/53 59/61/54 60/62/55 43/63/56
f 54/76/42 40/77/41 44/65/44 53/64/43
f 64/71/52 44/65/44 40/77/41 63/91/40
f 56/80/38 45/69/37 38/81/57 55/82/58
f 43/63/56 60/62/55 61/68/59 39/72/60
f 66/92/50 42/57/49 48/60/45 65/59/51
f 52/73/46 48/60/45 42/57/49 51/56/48
f 41/74/61 68/84/62 59/61/54 49/49/53
f 58/93/63 36/95/64 47/67/36 57/50/35
f 49/70/53 52/73/46 51/56/48 41/75/61
f 43/89/56 53/64/43 52/73/46 49/70/53
f 39/88/60 54/76/42 53/64/43 43/89/56
f 61/78/59 62/51/39 54/54/42 39/79/60
f 46/86/65 56/80/38 55/82/58 37/87/66
f 50/85/67 57/50/35 56/80/38 46/86/65
f 35/96/68 58/93/63 57/50/35 50/85/67
f 41/75/61 51/56/48 67/94/47 68/90/62
f 59/61/54 50/85/67 46/86/65 60/62/55
f 61/68/59 60/62/55 46/86/65 37/87/66
f 37/87/66 55/82/58 62/51/39 61/78/59
f 55/82/58 38/81/57 63/52/40 62/51/39
f 45/69/37 64/71/52 63/91/40 38/81/57
f 47/67/36 65/59/51 64/71/52 45/69/37
f 36/95/64 66/92/50 65/59/51 47/67/36
f 58/93/63 67/55/47 66/58/50 36/95/64
f 68/83/62 67/55/47 58/93/63 35/96/68
f 59/61/54 68/84/62 35/96/68 50/85/67
