# This file uses centimeters as units for non-parametric coordinates.

mtllib MED_Fern5.mtl
g default
v -0.012287 -0.015961 0.205345
v 0.178699 0.205041 0.245277
v 0.383694 0.290360 0.227306
v 0.602123 0.260785 0.152805
v 0.829861 0.151653 0.062893
v -0.012287 -0.015961 -0.131660
v 0.178699 0.205041 -0.171593
v 0.383694 0.290360 -0.153622
v 0.602123 0.260785 -0.079121
v 0.829861 0.151653 0.010792
v -0.089298 -0.015916 0.135639
v -0.046589 0.231938 0.223793
v 0.055851 0.340490 0.296513
v 0.216045 0.373972 0.353851
v 0.405392 0.354206 0.414452
v 0.064716 -0.015899 -0.061954
v 0.143925 0.254221 -0.020622
v 0.229939 0.360852 0.073170
v 0.322041 0.386369 0.217869
v 0.429203 0.356990 0.383907
v -0.176006 -0.015979 0.121311
v -0.139172 0.167863 0.331348
v -0.032070 0.241732 0.512360
v 0.143383 0.207130 0.665031
v 0.343128 0.094724 0.809978
v 0.151432 -0.015942 -0.047626
v 0.265858 0.215236 0.122379
v 0.338039 0.285020 0.321404
v 0.368725 0.233486 0.522640
v 0.393749 0.100645 0.783863
v -0.124134 -0.015973 -0.014175
v -0.236904 0.171677 0.114689
v -0.300976 0.278507 0.279327
v -0.332912 0.309330 0.473888
v -0.368855 0.288345 0.703156
v 0.099560 -0.015948 0.087860
v 0.039799 0.204040 0.240902
v -0.048130 0.308081 0.394657
v -0.178967 0.327336 0.544109
v -0.334270 0.292389 0.718929
v -0.078609 -0.015968 -0.091415
v -0.300900 0.170701 -0.025890
v -0.497005 0.189704 0.089230
v -0.667599 0.143753 0.252678
v -0.829861 0.076048 0.431526
v 0.054035 -0.015953 0.165100
v -0.136822 0.189892 0.291412
v -0.347073 0.207241 0.379173
v -0.576305 0.154430 0.429211
v -0.809353 0.078447 0.471184
v 0.008404 -0.015972 -0.055145
v -0.068409 0.166942 -0.091206
v -0.195415 0.287608 -0.101151
v -0.343235 0.296999 -0.089809
v -0.525166 0.274147 -0.073219
v -0.026081 -0.015973 0.128826
v -0.111065 0.165792 0.136364
v -0.225117 0.267797 0.105343
v -0.366970 0.296360 0.036800
v -0.530491 0.274003 -0.044777
v 0.113529 -0.015946 -0.074272
v -0.017574 0.134473 -0.261120
v -0.177914 0.188021 -0.409786
v -0.367023 0.147432 -0.521175
v -0.558338 0.109488 -0.622402
v -0.138111 -0.015975 0.147957
v -0.328846 0.145678 0.013771
v -0.462353 0.154753 -0.158596
v -0.540203 0.127176 -0.368240
v -0.597240 0.104938 -0.588047
v 0.154797 -0.015966 0.057995
v 0.226238 0.184423 -0.139393
v 0.237118 0.255806 -0.350132
v 0.188931 0.213523 -0.573799
v 0.123363 0.091768 -0.803436
v -0.179371 -0.015955 0.015686
v -0.187115 0.197874 -0.191730
v -0.140598 0.330068 -0.397957
v -0.041042 0.221006 -0.602917
v 0.071705 0.093449 -0.809978
v 0.114033 -0.015946 0.125870
v 0.205143 0.245864 0.020042
v 0.262852 0.333738 -0.113102
v 0.290440 0.329548 -0.290203
v 0.340260 0.201123 -0.488373
v -0.138599 -0.015975 -0.052185
v -0.107357 0.209314 -0.200203
v -0.022701 0.300339 -0.314358
v 0.116581 0.309213 -0.412739
v 0.301205 0.196555 -0.515896
v -0.012287 -0.016041 0.036842
v -0.218861 0.097501 0.132759
v -0.422039 0.157434 0.234200
v -0.621952 0.101856 0.340942
v -0.819607 0.077248 0.451355
v -0.008839 -0.016053 0.036842
v -0.089741 0.083572 0.022579
v -0.205631 0.185527 0.001369
v -0.355106 0.213884 -0.026505
v -0.527828 0.274075 -0.058998
v -0.012287 -0.016041 0.036842
v -0.173206 0.081086 -0.123672
v -0.320133 0.125245 -0.284191
v -0.453617 0.097261 -0.444710
v -0.577793 0.107213 -0.605225
v -0.012287 -0.016041 0.036842
v 0.019558 0.108353 -0.165562
v 0.048260 0.179157 -0.374046
v 0.073940 0.134469 -0.588356
v 0.097530 0.092608 -0.806709
v -0.012287 -0.016041 0.036842
v 0.048893 0.144794 -0.090080
v 0.120075 0.234244 -0.213730
v 0.203510 0.236585 -0.351471
v 0.320736 0.198839 -0.502136
v -0.012287 -0.015989 0.036842
v 0.048672 0.160284 0.101585
v 0.142895 0.267876 0.184841
v 0.269039 0.297376 0.285858
v 0.417294 0.355598 0.399178
v -0.012287 -0.016041 0.036842
v 0.063343 0.108754 0.226864
v 0.152981 0.180581 0.416882
v 0.256054 0.137513 0.606903
v 0.368435 0.097684 0.796921
v -0.012287 -0.016041 0.036842
v 0.178699 0.122246 0.036842
v 0.383694 0.207565 0.036842
v 0.602123 0.177989 0.036842
v 0.829861 0.151653 0.036842
v -0.012287 -0.016041 0.036842
v -0.098553 0.105063 0.177795
v -0.174549 0.210499 0.336990
v -0.255939 0.235538 0.508999
v -0.351566 0.290367 0.711044
v -0.164181 0.268848 -0.100906
v 0.368725 0.233486 0.569439
v -0.140598 0.268098 -0.425606
vt 0.238664 0.464399
vt 0.250705 0.551635
vt 0.245289 0.618593
vt 0.222825 0.685063
vt 0.195717 0.761226
vt 0.137037 0.464401
vt 0.124997 0.551639
vt 0.130417 0.618596
vt 0.152883 0.685068
vt 0.179997 0.761209
vt 0.238664 0.464399
vt 0.250705 0.551632
vt 0.125003 0.551638
vt 0.137043 0.464401
vt 0.245289 0.618584
vt 0.130428 0.618583
vt 0.222818 0.685046
vt 0.152889 0.685055
vt 0.195712 0.761200
vt 0.180003 0.761195
vt 0.238664 0.464399
vt 0.250704 0.551628
vt 0.125013 0.551630
vt 0.137048 0.464403
vt 0.245292 0.618577
vt 0.130427 0.618581
vt 0.222830 0.685040
vt 0.152900 0.685043
vt 0.195722 0.761183
vt 0.180012 0.761190
vt 0.238664 0.464399
vt 0.250704 0.551632
vt 0.125000 0.551626
vt 0.137046 0.464397
vt 0.245283 0.618581
vt 0.130426 0.618582
vt 0.222819 0.685047
vt 0.152880 0.685047
vt 0.195694 0.761192
vt 0.180003 0.761191
vt 0.238664 0.464399
vt 0.250707 0.551636
vt 0.124998 0.551637
vt 0.137038 0.464401
vt 0.245286 0.618589
vt 0.130418 0.618596
vt 0.222822 0.685065
vt 0.152885 0.685061
vt 0.195718 0.761219
vt 0.179996 0.761209
vt 0.238664 0.464399
vt 0.250706 0.551632
vt 0.125004 0.551629
vt 0.137043 0.464399
vt 0.245285 0.618582
vt 0.130425 0.618589
vt 0.222815 0.685050
vt 0.152885 0.685049
vt 0.195708 0.761201
vt 0.179999 0.761196
vt 0.238664 0.464399
vt 0.250705 0.551636
vt 0.124999 0.551634
vt 0.137041 0.464400
vt 0.245289 0.618586
vt 0.130428 0.618589
vt 0.222818 0.685052
vt 0.152882 0.685058
vt 0.195702 0.761207
vt 0.180006 0.761200
vt 0.238664 0.464399
vt 0.250703 0.551639
vt 0.124990 0.551635
vt 0.137035 0.464397
vt 0.245283 0.618594
vt 0.130406 0.618596
vt 0.222815 0.685069
vt 0.152876 0.685065
vt 0.195694 0.761214
vt 0.179989 0.761230
vt 0.238664 0.464399
vt 0.250703 0.551633
vt 0.124996 0.551627
vt 0.137043 0.464395
vt 0.245280 0.618584
vt 0.130420 0.618583
vt 0.222813 0.685050
vt 0.152876 0.685050
vt 0.195691 0.761203
vt 0.179994 0.761192
vt 0.187851 0.464400
vt 0.187853 0.551636
vt 0.187852 0.618593
vt 0.187854 0.685063
vt 0.187857 0.761214
vt 0.187853 0.464399
vt 0.187855 0.551631
vt 0.187855 0.618585
vt 0.187850 0.685050
vt 0.187854 0.761198
vt 0.187853 0.464399
vt 0.187852 0.551635
vt 0.187858 0.618588
vt 0.187850 0.685055
vt 0.187854 0.761204
vt 0.187849 0.464398
vt 0.187846 0.551637
vt 0.187845 0.618595
vt 0.187846 0.685067
vt 0.187842 0.761222
vt 0.187853 0.464397
vt 0.187850 0.551630
vt 0.187850 0.618584
vt 0.187845 0.685050
vt 0.187842 0.761197
vt 0.187854 0.464400
vt 0.187854 0.551635
vt 0.187858 0.618583
vt 0.187854 0.685050
vt 0.187858 0.761198
vt 0.187856 0.464401
vt 0.187859 0.551629
vt 0.187860 0.618579
vt 0.187865 0.685041
vt 0.187867 0.761186
vt 0.187850 0.464400
vt 0.187851 0.551637
vt 0.187853 0.618595
vt 0.187854 0.685066
vt 0.187857 0.761218
vt 0.187855 0.464398
vt 0.187852 0.551629
vt 0.187855 0.618581
vt 0.187850 0.685047
vt 0.187849 0.761192
vt 0.245285 0.618582
vt 0.152900 0.685043
vt 0.130406 0.618596
vn -0.676087 0.736822 0.000000
vn -0.566686 0.823934 0.000000
vn -0.505992 0.816565 0.277836
vn -0.667389 0.727339 0.159907
vn -0.220876 0.975302 0.000000
vn -0.215121 0.885421 0.412011
vn 0.091052 0.995846 -0.000001
vn 0.063076 0.874752 0.480448
vn 0.179382 0.983780 -0.000003
vn 0.155591 0.853375 0.497537
vn -0.741829 0.379544 -0.552844
vn -0.695253 0.510901 -0.505573
vn -0.794699 0.563439 -0.225808
vn -0.803306 0.364239 -0.471200
vn -0.459966 0.841605 -0.283075
vn -0.673719 0.726684 0.134285
vn -0.255517 0.959767 -0.116443
vn -0.552387 0.756210 0.350735
vn -0.228043 0.971097 -0.070472
vn -0.525731 0.748961 0.403316
vn -0.334071 0.778198 -0.531793
vn -0.292470 0.858801 -0.420622
vn -0.503178 0.820122 -0.272418
vn -0.465801 0.739782 -0.485543
vn -0.151261 0.984138 -0.092701
vn -0.475197 0.877550 0.063991
vn 0.015121 0.983666 0.179365
vn -0.376936 0.862589 0.337430
vn 0.002253 0.959402 0.282033
vn -0.393695 0.789514 0.470821
vn -0.393695 0.789514 0.470821
vn 0.238945 0.714603 -0.657456
vn 0.211043 0.774776 -0.595973
vn -0.138212 0.720894 -0.679124
vn 0.072674 0.668841 -0.739845
vn 0.083290 0.901715 -0.424231
vn -0.373752 0.750341 -0.545250
vn -0.004159 0.971554 -0.236781
vn -0.514003 0.745293 -0.424663
vn -0.027308 0.978406 -0.204882
vn -0.546742 0.734063 -0.402771
vn 0.477090 0.832920 -0.280409
vn 0.340208 0.914967 -0.217013
vn 0.168341 0.879664 -0.444806
vn 0.386996 0.800259 -0.458061
vn -0.002641 0.998265 -0.058824
vn -0.132617 0.925508 -0.354750
vn -0.174470 0.984124 0.032555
vn -0.317541 0.914902 -0.249244
vn -0.157941 0.987338 0.014784
vn -0.313261 0.904907 -0.288116
vn 0.841876 0.515358 0.160157
vn 0.785175 0.600396 0.151740
vn 0.732084 0.621246 -0.279477
vn 0.861130 0.506709 -0.041251
vn 0.542854 0.833925 0.099388
vn 0.504353 0.692590 -0.515700
vn 0.262423 0.961699 0.079173
vn 0.331220 0.694611 -0.638599
vn 0.242686 0.968711 0.051988
vn 0.302893 0.680819 -0.666890
vn 0.321953 0.878676 0.352526
vn 0.228018 0.937181 0.264006
vn 0.339090 0.936524 0.089113
vn 0.425042 0.868398 0.255391
vn 0.003794 0.996624 0.082011
vn 0.194974 0.975030 -0.106307
vn -0.108284 0.994096 0.006905
vn 0.098284 0.979307 -0.176914
vn -0.070473 0.995007 0.070676
vn 0.160287 0.981137 -0.108064
vn -0.061055 0.785040 0.616430
vn -0.014824 0.848711 0.528649
vn 0.298768 0.788446 0.537671
vn 0.102603 0.764233 0.636727
vn 0.042928 0.977118 0.208320
vn 0.418190 0.783608 0.459430
vn 0.046121 0.986026 -0.160079
vn 0.512684 0.856185 -0.064048
vn 0.506218 0.861478 -0.040002
vn 0.066897 0.967099 -0.245449
vn 0.535046 0.829730 -0.158978
vn -0.505033 0.570296 0.647846
vn -0.464989 0.673853 0.574201
vn -0.195975 0.731943 0.652574
vn -0.366950 0.596264 0.714015
vn -0.307044 0.910699 0.276319
vn 0.098646 0.867135 0.488207
vn -0.057052 0.996803 -0.055929
vn 0.354521 0.892772 0.277980
vn 0.072263 0.957259 -0.280061
vn 0.503895 0.859033 0.090289
vn 0.553037 0.829860 -0.074043
vn 0.413031 0.908261 0.066847
vn 0.169507 0.957264 0.234335
vn -0.015980 0.946817 0.321374
vn 0.030654 0.940536 0.338308
vn 0.789196 0.503228 0.352039
vn 0.592265 0.589667 0.549104
vn 0.498105 0.610497 0.615780
vn 0.042689 0.663655 0.746819
vn 0.041431 0.667855 0.743138
vn 0.038461 0.677664 0.734366
vn 0.219941 0.872294 0.436726
vn 0.077631 0.914911 0.396121
vn -0.155253 0.946668 0.282340
vn -0.314001 0.934610 0.167055
vn -0.267527 0.937585 0.222182
vn -0.232574 0.783413 0.576345
vn -0.319419 0.856248 0.405970
vn -0.407550 0.906839 0.107451
vn -0.436787 0.881897 -0.177412
vn -0.440882 0.855618 -0.271184
vn -0.605388 0.540110 0.584625
vn -0.638365 0.667696 0.382979
vn -0.613739 0.788261 0.044365
vn -0.503433 0.819438 -0.274000
vn -0.327111 0.782715 -0.529486
vn -0.659393 0.392354 -0.641295
vn -0.437922 0.603459 -0.666379
vn -0.075922 0.777631 -0.624120
vn 0.154435 0.808524 -0.567837
vn 0.200498 0.799670 -0.565976
vn -0.165795 0.802800 -0.572734
vn -0.028611 0.876370 -0.480788
vn 0.187982 0.938820 -0.288581
vn 0.378034 0.923278 -0.068177
vn 0.436082 0.899903 0.002625
vn -0.667385 0.727342 -0.159908
vn -0.505990 0.816567 -0.277836
vn -0.215121 0.885421 -0.412011
vn 0.063081 0.874752 -0.480448
vn 0.155616 0.853371 -0.497535
vn 0.433695 0.734993 -0.521243
vn 0.501600 0.778150 -0.377994
vn 0.552866 0.821154 -0.141585
vn 0.561288 0.825037 0.065337
vn 0.569904 0.814323 0.109947
s 1
g pasted__pPlane47 group
usemtl pasted__lambert14SG
f 126/126/1 127/127/2 7/7/3 6/6/4
f 127/127/2 128/128/5 8/8/6 7/7/3
f 128/128/5 129/129/7 9/9/8 8/8/6
f 129/129/7 130/130/9 10/10/10 9/9/8
s 2
f 116/116/11 117/117/12 17/13/13 16/14/14
f 117/117/12 118/118/15 18/16/16 17/13/13
f 118/118/15 119/119/17 19/18/18 18/16/16
f 119/119/17 120/120/19 20/20/20 19/18/18
s 3
f 121/121/21 122/122/22 27/23/23 26/24/24
f 122/122/22 123/123/25 28/26/26 27/23/23
f 123/123/25 124/124/27 29/28/28 28/26/26
f 124/124/27 125/125/29 30/30/30 137/137/31
s 5
f 131/131/32 132/132/33 37/33/34 36/34/35
f 132/132/33 133/133/36 38/36/37 37/33/34
f 133/133/36 134/134/38 39/38/39 38/36/37
f 134/134/38 135/135/40 40/40/41 39/38/39
s 6
f 91/91/42 92/92/43 47/43/44 46/44/45
f 92/92/43 93/93/46 48/46/47 47/43/44
f 93/93/46 94/94/48 49/48/49 48/46/47
f 94/94/48 95/95/50 50/50/51 49/48/49
s 7
f 96/96/52 97/97/53 57/53/54 56/54/55
f 97/97/53 98/98/56 58/56/57 57/53/54
f 98/98/56 99/99/58 59/58/59 58/56/57
f 99/99/58 100/100/60 60/60/61 59/58/59
s 8
f 101/101/62 102/102/63 67/63/64 66/64/65
f 102/102/63 103/103/66 68/66/67 67/63/64
f 103/103/66 104/104/68 69/68/69 68/66/67
f 104/104/68 105/105/70 70/70/71 69/68/69
s 9
f 106/106/72 107/107/73 77/73/74 76/74/75
f 107/107/73 108/108/76 78/76/77 77/73/74
f 108/108/76 109/109/78 79/78/79 138/138/80
f 109/109/78 110/110/81 80/80/82 79/78/79
s 11
f 111/111/83 112/112/84 87/83/85 86/84/86
f 112/112/84 113/113/87 88/86/88 87/83/85
f 113/113/87 114/114/89 89/88/90 88/86/88
f 114/114/89 115/115/91 90/90/92 89/88/90
s 6
f 41/41/93 42/42/94 92/92/43 91/91/42
f 42/42/94 43/45/95 93/93/46 92/92/43
f 43/45/95 44/47/96 94/94/48 93/93/46
f 44/47/96 45/49/97 95/95/50 94/94/48
s 7
f 51/51/98 52/52/99 97/97/53 96/96/52
f 52/52/99 136/136/100 98/98/56 97/97/53
f 53/55/101 54/57/102 99/99/58 98/98/56
f 54/57/102 55/59/103 100/100/60 99/99/58
s 8
f 61/61/104 62/62/105 102/102/63 101/101/62
f 62/62/105 63/65/106 103/103/66 102/102/63
f 63/65/106 64/67/107 104/104/68 103/103/66
f 64/67/107 65/69/108 105/105/70 104/104/68
s 9
f 71/71/109 72/72/110 107/107/73 106/106/72
f 72/72/110 73/75/111 108/108/76 107/107/73
f 73/75/111 74/77/112 109/109/78 108/108/76
f 74/77/112 75/79/113 110/110/81 109/109/78
s 11
f 81/81/114 82/82/115 112/112/84 111/111/83
f 82/82/115 83/85/116 113/113/87 112/112/84
f 83/85/116 84/87/117 114/114/89 113/113/87
f 84/87/117 85/89/118 115/115/91 114/114/89
s 2
f 11/11/119 12/12/120 117/117/12 116/116/11
f 12/12/120 13/15/121 118/118/15 117/117/12
f 13/15/121 14/17/122 119/119/17 118/118/15
f 14/17/122 15/19/123 120/120/19 119/119/17
s 3
f 21/21/124 22/22/125 122/122/22 121/121/21
f 22/22/125 23/25/126 123/123/25 122/122/22
f 23/25/126 24/27/127 124/124/27 123/123/25
f 24/27/127 25/29/128 125/125/29 124/124/27
s 1
f 1/1/129 2/2/130 127/127/2 126/126/1
f 2/2/130 3/3/131 128/128/5 127/127/2
f 3/3/131 4/4/132 129/129/7 128/128/5
f 4/4/132 5/5/133 130/130/9 129/129/7
s 5
f 31/31/134 32/32/135 132/132/33 131/131/32
f 32/32/135 33/35/136 133/133/36 132/132/33
f 33/35/136 34/37/137 134/134/38 133/133/36
f 34/37/137 35/39/138 135/135/40 134/134/38
