# This file uses centimeters as units for non-parametric coordinates.

mtllib filaments_groupe.mtl
g default
v -0.068220 -1.059394 -0.475955
v 0.369321 -1.075506 0.244361
v 0.055704 -0.010242 -0.527764
v 0.493245 -0.026354 0.192553
v -0.108607 -1.029023 0.042482
v 0.015317 0.020130 -0.009326
v 0.603776 -0.809366 -0.286541
v 0.220682 -0.829743 -0.470502
v 0.491981 -0.002855 -0.143069
v 0.108886 -0.023232 -0.327029
v 0.476108 -0.786381 -0.515223
v 0.364313 0.020129 -0.371751
v -0.221060 -1.065336 -0.513538
v -0.396393 -1.083647 0.310768
v -0.045415 -0.024062 -0.453047
v -0.220748 -0.042373 0.371259
v -0.603776 -1.021144 -0.162958
v -0.428131 0.020129 -0.102467
v -0.112982 -0.813329 0.527764
v 0.151102 -0.825996 0.194421
v -0.187090 0.005196 0.437948
v 0.076993 -0.007472 0.104604
v 0.139397 -0.798395 0.455618
v 0.065288 0.020129 0.365802
v -0.090046 -0.825277 -0.176870
v -0.479336 -0.815756 -0.348279
v -0.127023 -0.009521 -0.047579
v -0.516313 0.000000 -0.218988
v -0.222737 -0.795627 -0.401897
v -0.259714 0.020129 -0.272606
vt 0.013588 0.766435
vt 0.218737 0.766435
vt 0.013588 0.987162
vt 0.218737 0.987162
vt 0.116163 0.766435
vt 0.116163 0.987162
vt 0.550836 0.774801
vt 0.550836 0.877375
vt 0.244930 0.877374
vt 0.244933 0.774801
vt 0.550836 0.979950
vt 0.244932 0.979950
vt 0.013588 0.766435
vt 0.116163 0.766435
vt 0.116163 0.987162
vt 0.013588 0.987162
vt 0.218737 0.766435
vt 0.218737 0.987162
vt 0.550836 0.774801
vt 0.550836 0.877375
vt 0.244930 0.877374
vt 0.244933 0.774801
vt 0.550836 0.979950
vt 0.244932 0.979950
vt 0.550836 0.774801
vt 0.550836 0.877375
vt 0.244930 0.877374
vt 0.244933 0.774801
vt 0.550836 0.979950
vt 0.244932 0.979950
vn -0.990082 0.112812 -0.083737
vn -0.846669 0.125542 0.517099
vn -0.846669 0.125542 0.517099
vn -0.990082 0.112812 -0.083737
vn -0.380055 0.090349 0.920541
vn -0.380055 0.090349 0.920541
vn 0.863665 0.201882 -0.461874
vn 0.413474 0.214720 -0.884836
vn 0.413473 0.214720 -0.884836
vn 0.863665 0.201882 -0.461874
vn -0.194552 0.145593 -0.970027
vn -0.194552 0.145593 -0.970027
vn -0.657721 0.153784 -0.737396
vn -0.963929 0.174285 -0.201160
vn -0.963929 0.174285 -0.201160
vn -0.657721 0.153784 -0.737396
vn -0.902174 0.128255 0.411866
vn -0.902174 0.128255 0.411866
vn 0.265503 0.128880 0.955457
vn 0.778908 0.137658 0.611843
vn 0.778909 0.137658 0.611843
vn 0.265503 0.128880 0.955457
vn 0.994979 0.093888 0.034667
vn 0.994979 0.093888 0.034667
vn 0.862136 0.117206 -0.492934
vn 0.401012 0.161105 -0.901795
vn 0.401011 0.161105 -0.901796
vn 0.862136 0.117206 -0.492934
vn -0.213191 0.143505 -0.966414
vn -0.213191 0.143505 -0.966414
s 1
g pPlane29
usemtl lambert2SG
f 1/1/1 5/5/2 6/6/3 3/3/4
f 6/6/3 5/5/2 2/2/5 4/4/6
s 2
f 7/7/7 11/8/8 12/9/9 9/10/10
f 12/9/9 11/8/8 8/11/11 10/12/12
s 3
f 13/13/13 17/14/14 18/15/15 15/16/16
f 18/15/15 17/14/14 14/17/17 16/18/18
s 4
f 19/19/19 23/20/20 24/21/21 21/22/22
f 24/21/21 23/20/20 20/23/23 22/24/24
s 5
f 25/25/25 29/26/26 30/27/27 27/28/28
f 30/27/27 29/26/26 26/29/29 28/30/30
