# This file uses centimeters as units for non-parametric coordinates.

mtllib Prism_Short.mtl
g default
v 0.095170 -0.209356 -0.164839
v -0.087827 -0.209802 -0.152122
v -0.175655 -0.214592 0.000000
v -0.087827 -0.220481 0.152122
v 0.087828 -0.220481 0.152122
v 0.175656 -0.214592 0.000000
v 0.087319 0.204648 -0.151239
v -0.087318 0.219535 -0.151239
v -0.174634 0.219535 0.000000
v -0.087318 0.204648 0.151239
v 0.087319 0.188569 0.151239
v 0.174635 0.188569 0.000000
v 0.000001 -0.214592 0.000000
v 0.000001 0.204648 0.000000
v 0.095170 0.181311 -0.164839
v -0.095169 0.196000 -0.164839
v -0.190340 0.196000 0.000000
v -0.095169 0.181311 0.164839
v 0.095170 0.165446 0.164839
v 0.190341 0.165446 0.000000
v 0.095170 -0.185568 -0.164839
v -0.095169 -0.185568 -0.164839
v -0.190340 -0.190267 0.000000
v -0.095169 -0.196044 0.164839
v 0.095170 -0.196044 0.164839
v 0.190341 -0.190267 0.000000
vt 0.033112 0.326057
vt 0.058483 0.364282
vt 0.102431 0.364582
vt 0.124689 0.326678
vt 0.102991 0.288477
vt 0.059036 0.288182
vt 0.013500 0.364186
vt 0.229997 0.373783
vt 0.187981 0.371747
vt 0.145666 0.364486
vt 0.188097 0.365372
vt 0.229981 0.367540
vt 0.272521 0.369227
vt 0.013500 0.462454
vt 0.057468 0.466638
vt 0.101470 0.466299
vt 0.144645 0.462542
vt 0.187197 0.458726
vt 0.228944 0.458801
vt 0.269358 0.463686
vt 0.102059 0.542909
vt 0.123765 0.504418
vt 0.145510 0.370924
vt 0.102270 0.371104
vt 0.035761 0.505098
vt 0.058058 0.543249
vt 0.080733 0.326382
vt 0.079773 0.504762
vt 0.271415 0.457505
vt 0.013500 0.458079
vt 0.057490 0.460134
vt 0.101443 0.459810
vt 0.144616 0.456185
vt 0.187175 0.452507
vt 0.229099 0.452707
vt 0.272601 0.374775
vt 0.013500 0.368518
vt 0.058298 0.370817
vn 0.002004 0.024723 -0.999692
vn 0.002430 0.029992 -0.999547
vn 0.040640 0.501496 -0.864205
vn 0.040640 0.501496 -0.864205
vn -0.865717 0.026594 -0.499827
vn -0.865717 0.026594 -0.499827
vn -0.749806 0.500388 -0.432900
vn -0.749806 0.500388 -0.432900
vn -0.864453 0.029432 0.501851
vn -0.864784 0.024256 0.501558
vn -0.728061 0.501584 0.467270
vn -0.728061 0.501584 0.467270
vn 0.002675 0.030568 0.999529
vn 0.002172 0.024816 0.999690
vn 0.044174 0.504738 0.862142
vn 0.044174 0.504738 0.862142
vn 0.865675 0.028328 0.499804
vn 0.865675 0.028328 0.499804
vn 0.746455 0.507024 0.430966
vn 0.746455 0.507024 0.430966
vn 0.866851 0.025354 -0.497921
vn 0.866963 0.031223 -0.497393
vn 0.768680 0.504824 -0.392791
vn 0.768680 0.504824 -0.392790
vn 0.000129 -0.999502 -0.031542
vn 0.000121 -0.999498 -0.031677
vn 0.000042 -0.999386 -0.035054
vn 0.000000 -0.999385 -0.035077
vn 0.000000 -0.999251 -0.038688
vn 0.000000 -0.999251 -0.038688
vn 0.000000 -0.999389 -0.034967
vn 0.088199 0.994800 0.050922
vn 0.084840 0.995190 0.048982
vn 0.088198 0.994801 0.050921
vn 0.084838 0.995190 0.048981
vn 0.088199 0.994800 0.050922
vn 0.091553 0.994396 0.052857
vn 0.091551 0.994397 0.052856
vn -0.001997 -0.015983 -0.999870
vn -0.001681 -0.013449 -0.999908
vn -0.865446 -0.024481 -0.500404
vn -0.865391 -0.026052 -0.500419
vn -0.866153 -0.024444 0.499180
vn -0.866141 -0.026386 0.499102
vn 0.000000 -0.026208 0.999656
vn 0.000000 -0.026208 0.999656
vn 0.866129 -0.027999 0.499035
vn 0.866145 -0.025945 0.499120
vn 0.866652 -0.014348 -0.498707
vn 0.866714 -0.016039 -0.498547
vn -0.032557 -0.260504 -0.964924
vn -0.032557 -0.260504 -0.964924
vn -0.761075 -0.463991 -0.453296
vn -0.761075 -0.463991 -0.453296
vn -0.775119 -0.462454 0.430497
vn -0.775119 -0.462454 0.430497
vn 0.000000 -0.461622 0.887077
vn 0.000000 -0.461622 0.887077
vn 0.775128 -0.462432 0.430503
vn 0.775128 -0.462432 0.430503
vn 0.849108 -0.259244 -0.460226
vn 0.849108 -0.259244 -0.460226
s 1
g Prism_3
usemtl lambert2SG
f 15/30/1 16/31/2 8/15/3 7/14/4
s 2
f 16/31/5 17/32/6 9/16/7 8/15/8
s 3
f 17/32/9 18/33/10 10/17/11 9/16/12
s 4
f 18/33/13 19/34/14 11/18/15 10/17/16
s 5
f 19/34/17 20/35/18 12/19/19 11/18/20
s 6
f 20/35/21 15/29/22 7/20/23 12/19/24
s 7
f 2/2/25 1/1/26 13/27/27
f 3/3/28 2/2/25 13/27/27
f 4/4/29 3/3/28 13/27/27
f 5/5/30 4/4/29 13/27/27
f 6/6/31 5/5/30 13/27/27
f 1/1/26 6/6/31 13/27/27
s 8
f 7/25/32 8/15/33 14/28/34
f 8/15/33 9/16/35 14/28/34
f 9/16/35 10/22/36 14/28/34
f 10/22/36 11/21/37 14/28/34
f 11/21/37 12/26/38 14/28/34
f 12/26/38 7/25/32 14/28/34
s 1
f 21/37/39 22/38/40 16/31/2 15/30/1
s 2
f 22/38/41 23/24/42 17/32/6 16/31/5
s 3
f 23/24/43 24/23/44 18/33/10 17/32/9
s 4
f 24/23/45 25/9/46 19/34/14 18/33/13
s 5
f 25/9/47 26/8/48 20/35/18 19/34/17
s 6
f 26/8/49 21/36/50 15/29/22 20/35/21
s 1
f 1/7/51 2/2/52 22/38/40 21/37/39
s 2
f 2/2/53 3/3/54 23/24/42 22/38/41
s 3
f 3/3/55 4/10/56 24/23/44 23/24/43
s 4
f 4/10/57 5/11/58 25/9/46 24/23/45
s 5
f 5/11/59 6/12/60 26/8/48 25/9/47
s 6
f 6/12/61 1/13/62 21/36/50 26/8/49
