# This file uses centimeters as units for non-parametric coordinates.

mtllib Stalac_1.mtl
g default
v 0.155042 -0.001510 -0.140620
v 0.009776 0.002299 -0.198988
v -0.120364 0.002029 -0.136285
v -0.186627 0.001908 0.007435
v -0.127687 0.002168 0.143284
v 0.150533 0.000006 0.153234
v 0.005456 0.001691 0.202878
v 0.213820 0.000000 0.009226
v 0.058242 -1.400910 0.012936
v 0.068145 -1.387144 -0.013360
v 0.051921 -1.393581 0.046558
v -0.004592 -1.382646 0.047341
v -0.034047 -1.382295 0.015459
v -0.031007 -1.406962 -0.021977
v -0.010343 -1.401794 -0.036955
v 0.034587 -1.377167 -0.040355
v 0.012851 -1.419489 -0.000437
v 0.086944 -1.237343 0.013739
v 0.067435 -1.216328 0.062961
v -0.000348 -1.214035 0.070548
v -0.041631 -1.217620 0.031342
v -0.052445 -1.217951 -0.017430
v -0.031724 -1.213655 -0.070562
v 0.038499 -1.216503 -0.098495
v 0.085803 -1.223197 -0.042460
v 0.122283 -1.029898 0.011607
v 0.079715 -1.031122 0.075065
v 0.003362 -1.038591 0.094906
v -0.058770 -1.043189 0.052440
v -0.073052 -1.038433 -0.019201
v -0.045419 -1.022725 -0.090037
v 0.034656 -1.024231 -0.131771
v 0.112388 -1.028136 -0.071060
v 0.178565 -0.738963 0.016143
v 0.128779 -0.739237 0.118455
v -0.000304 -0.745498 0.177492
v -0.102698 -0.753402 0.112635
v -0.135373 -0.752804 -0.014025
v -0.070645 -0.738933 -0.115486
v 0.032739 -0.733799 -0.177920
v 0.135655 -0.736119 -0.099591
v 0.225078 -0.452394 0.013444
v 0.154407 -0.449380 0.147206
v 0.001254 -0.448886 0.191369
v -0.140609 -0.457911 0.133788
v -0.209939 -0.469274 -0.008244
v -0.106511 -0.455991 -0.139540
v 0.038217 -0.453897 -0.193651
v 0.172996 -0.452335 -0.124775
v 0.233108 -0.174760 0.010019
v 0.164346 -0.200997 0.149532
v 0.014636 -0.212458 0.225318
v -0.150344 -0.215499 0.159147
v -0.233108 -0.211024 -0.005353
v -0.132672 -0.199811 -0.166620
v 0.037086 -0.177138 -0.210783
v 0.172843 -0.149575 -0.133238
v 0.138593 -0.629576 -0.099280
v 0.028970 -0.619436 -0.169816
v -0.085628 -0.611512 -0.121937
v -0.181569 -0.636773 -0.016009
v -0.118896 -0.640266 0.124709
v 0.004128 -0.623690 0.179992
v 0.123408 -0.623013 0.124646
v 0.179133 -0.628196 0.015519
v 0.157540 -0.312004 -0.117362
v 0.033298 -0.322572 -0.207212
v -0.116399 -0.334947 -0.156515
v -0.220836 -0.348094 -0.005022
v -0.135747 -0.344995 0.139237
v 0.007289 -0.336033 0.188923
v 0.152801 -0.328181 0.144299
v 0.212893 -0.316542 0.012857
v 0.231973 -0.076837 0.007315
v 0.163844 -0.084242 0.150528
v 0.012422 -0.086771 0.214345
v -0.134419 -0.082784 0.140038
v -0.209760 -0.083406 -0.004230
v -0.133790 -0.083662 -0.154086
v 0.030164 -0.071553 -0.225318
v 0.168210 -0.066446 -0.133002
v 0.112639 -0.876874 -0.077562
v 0.030654 -0.872514 -0.135947
v -0.059499 -0.877359 -0.101387
v -0.109958 -0.892197 -0.018311
v -0.071687 -0.892715 0.071572
v 0.004249 -0.883381 0.113122
v 0.089047 -0.880024 0.083802
v 0.125266 -0.877570 0.008939
v 0.185699 -0.545211 0.015349
v 0.120044 -0.540698 0.121689
v 0.001496 -0.543020 0.177636
v -0.129405 -0.551005 0.126970
v -0.166585 -0.552299 -0.009100
v -0.090882 -0.541279 -0.118693
v 0.032344 -0.541055 -0.154894
v 0.143495 -0.545319 -0.101270
vt 0.582745 0.678300
vt 0.600178 0.624372
vt 0.615592 0.629210
vt 0.612743 0.675297
vt 0.568946 0.621883
vt 0.570346 0.672940
vt 0.595633 0.568941
vt 0.618844 0.570887
vt 0.630957 0.625274
vt 0.622390 0.674145
vt 0.567216 0.565850
vt 0.597647 0.524641
vt 0.623123 0.527563
vt 0.639730 0.574248
vt 0.567256 0.521199
vt 0.600980 0.486036
vt 0.631308 0.488314
vt 0.645821 0.532536
vt 0.568717 0.482526
vt 0.603325 0.458413
vt 0.634923 0.461070
vt 0.658484 0.494380
vt 0.569657 0.454397
vt 0.605307 0.436132
vt 0.638083 0.439449
vt 0.665988 0.465780
vt 0.607926 0.412046
vt 0.640889 0.415149
vt 0.670008 0.445235
vt 0.609979 0.379242
vt 0.644445 0.382806
vt 0.676701 0.420400
vt 0.611492 0.340716
vt 0.646714 0.348122
vt 0.680250 0.389919
vt 0.573955 0.379610
vt 0.573670 0.409717
vt 0.611772 0.321436
vt 0.647125 0.325050
vt 0.683922 0.357372
vt 0.575540 0.346735
vt 0.609082 0.305748
vt 0.647971 0.305748
vt 0.685436 0.327362
vt 0.574255 0.323331
vt 0.686860 0.305748
vt 0.456690 0.628203
vt 0.475963 0.623720
vt 0.485134 0.672293
vt 0.469562 0.678091
vt 0.442152 0.576604
vt 0.464731 0.573236
vt 0.492697 0.623333
vt 0.497600 0.671420
vt 0.429297 0.535419
vt 0.453717 0.528625
vt 0.486774 0.571517
vt 0.409987 0.499737
vt 0.442817 0.490116
vt 0.479423 0.527022
vt 0.403010 0.471015
vt 0.434930 0.462349
vt 0.472207 0.488632
vt 0.397718 0.450123
vt 0.431004 0.442415
vt 0.468332 0.460052
vt 0.385724 0.426092
vt 0.426228 0.418706
vt 0.466393 0.437934
vt 0.380553 0.394079
vt 0.420442 0.390440
vt 0.463583 0.415238
vt 0.373250 0.360424
vt 0.415203 0.359222
vt 0.458394 0.388603
vt 0.371856 0.328814
vt 0.414022 0.328677
vt 0.455793 0.358361
vt 0.375749 0.305748
vt 0.414638 0.305748
vt 0.455419 0.326944
vt 0.453527 0.305748
vt 0.582024 0.688145
vt 0.507443 0.623211
vt 0.508395 0.678741
vt 0.540725 0.566903
vt 0.553460 0.689574
vt 0.508528 0.569450
vt 0.524225 0.622669
vt 0.515893 0.677925
vt 0.605410 0.670629
vt 0.508038 0.524803
vt 0.531593 0.566436
vt 0.569129 0.707800
vt 0.505870 0.485329
vt 0.537415 0.522706
vt 0.571949 0.433411
vt 0.504107 0.455175
vt 0.537677 0.483872
vt 0.570194 0.305748
vt 0.502275 0.434676
vt 0.538189 0.450303
vt 0.556406 0.703372
vt 0.499607 0.412707
vt 0.537290 0.432093
vt 0.567685 0.689987
vt 0.497052 0.385990
vt 0.537606 0.410066
vt 0.557295 0.681711
vt 0.495712 0.356225
vt 0.538061 0.382024
vt 0.589659 0.627289
vt 0.494767 0.327504
vt 0.536182 0.352163
vt 0.584371 0.698849
vt 0.492416 0.305748
vt 0.533226 0.326591
vt 0.531305 0.305748
vt 0.546967 0.623761
vn 0.885402 -0.293373 -0.360549
vn 0.876487 -0.184146 -0.444815
vn 0.969753 -0.142456 0.198205
vn 0.875059 -0.441025 0.199419
vn 0.545416 -0.131371 0.827806
vn 0.499366 -0.277285 0.820821
vn -0.243536 -0.122283 0.962152
vn -0.299464 -0.240824 0.923215
vn -0.861489 -0.113678 0.494889
vn -0.885067 -0.207246 0.416780
vn -0.981791 -0.116898 -0.149734
vn -0.912873 -0.329867 -0.240523
vn -0.623236 -0.169417 -0.763463
vn -0.489101 -0.328141 -0.808148
vn 0.199278 -0.213221 -0.956465
vn 0.230887 -0.336702 -0.912865
vn -0.026408 -0.997013 0.072586
vn 0.978698 -0.090311 0.184375
vn 0.594845 -0.099023 0.797718
vn -0.149295 -0.122615 0.981161
vn -0.806885 -0.146268 0.572314
vn -0.983208 -0.152128 -0.100791
vn -0.667542 -0.132150 -0.732751
vn 0.144475 -0.115402 -0.982756
vn 0.858033 -0.096546 -0.504438
vn 0.624362 -0.251130 0.739667
vn 0.972974 -0.197781 0.119180
vn 0.982865 -0.170266 0.070608
vn 0.666866 -0.191161 0.720241
vn -0.054045 -0.287596 0.956226
vn -0.017847 -0.222626 0.974741
vn -0.763163 -0.248907 0.596345
vn -0.741732 -0.256224 0.619825
vn -0.974498 -0.197100 -0.107264
vn -0.960733 -0.238275 -0.142184
vn -0.660508 -0.146120 -0.736463
vn -0.636288 -0.148195 -0.757084
vn 0.117231 -0.162212 -0.979767
vn 0.088930 -0.121207 -0.988636
vn 0.790100 -0.132756 -0.598430
vn 0.818508 -0.153614 -0.553577
vn 0.665937 -0.000714 0.746008
vn 0.997295 -0.020616 0.070556
vn 0.960006 -0.265015 0.090304
vn 0.632981 -0.190562 0.750347
vn 0.011262 -0.030033 0.999485
vn -0.009324 -0.111961 0.993669
vn -0.745196 -0.113073 0.657189
vn -0.712573 -0.127955 0.689832
vn -0.978350 -0.141805 -0.150738
vn -0.976948 -0.171741 -0.126799
vn -0.616863 -0.029902 -0.786502
vn -0.585912 -0.164860 -0.793428
vn 0.063898 0.033287 -0.997401
vn 0.089568 -0.192317 -0.977237
vn 0.731512 -0.239580 -0.638350
vn 0.777873 0.000505 -0.628421
vn 0.670879 -0.064112 0.738790
vn 0.999522 -0.029996 0.007456
vn 0.997531 -0.069560 0.009641
vn 0.691250 -0.066380 0.719560
vn -0.007373 -0.112081 0.993672
vn 0.005253 -0.056254 0.998403
vn -0.664307 -0.106821 0.739787
vn -0.678436 -0.012978 0.734545
vn -0.990260 -0.112980 -0.081364
vn -0.999080 0.001787 -0.042846
vn -0.595027 -0.105013 -0.796816
vn -0.624995 -0.026369 -0.780183
vn 0.125471 -0.070360 -0.989599
vn 0.130217 -0.058931 -0.989733
vn 0.754006 -0.065149 -0.653628
vn 0.759017 -0.034048 -0.650180
vn 0.994693 0.091009 0.047984
vn 0.683035 0.073026 0.726726
vn -0.019391 0.087264 0.995997
vn -0.696650 0.129791 0.705573
vn -0.983923 0.177119 -0.022904
vn -0.675490 0.129531 -0.725903
vn 0.046139 0.084318 -0.995370
vn 0.751930 0.092349 -0.652742
vn 0.754552 -0.111433 -0.646711
vn 0.109510 -0.177091 -0.978083
vn -0.584745 -0.202230 -0.785605
vn -0.974663 -0.191482 -0.115617
vn -0.688562 -0.106643 0.717294
vn -0.026182 -0.079556 0.996486
vn 0.648475 -0.116469 0.752274
vn 0.992618 -0.112405 0.045557
vn 0.980447 0.188517 0.056430
vn 0.641616 0.131330 0.755700
vn -0.058466 0.070269 0.995813
vn -0.689876 0.083530 0.719092
vn -0.978151 0.207090 0.018308
vn -0.691901 0.257268 -0.674601
vn -0.082426 0.249777 -0.964789
vn 0.689388 0.220846 -0.689907
s 1
g Stalac_1
usemtl lambert2SG
f 10/91/1 25/2/2 18/3/3 9/4/4
f 18/3/3 19/9/5 11/10/6 9/4/4
f 19/47/5 20/48/7 12/49/8 11/50/6
f 20/48/7 21/53/9 13/54/10 12/49/8
f 21/53/9 22/84/11 14/85/12 13/54/10
f 22/84/11 23/89/13 15/90/14 14/85/12
f 23/119/13 24/5/15 16/6/16 15/109/14
f 24/5/15 25/112/2 10/1/1 16/6/16
f 15/109/14 16/6/16 17/106/17 14/87/12
f 12/94/8 13/103/10 14/87/12 17/106/17
f 17/106/17 9/83/4 11/115/6 12/94/8
f 16/6/16 10/1/1 9/83/4 17/106/17
f 26/8/18 27/14/19 19/9/5 18/3/3
f 27/51/19 28/52/20 20/48/7 19/47/5
f 28/52/20 29/57/21 21/53/9 20/48/7
f 29/57/21 30/88/22 22/84/11 21/53/9
f 30/88/22 31/93/23 23/89/13 22/84/11
f 31/86/23 32/11/24 24/5/15 23/119/13
f 32/11/24 33/7/25 25/112/2 24/5/15
f 25/2/2 33/7/25 26/8/18 18/3/3
f 88/18/26 89/13/27 34/17/28 35/22/29
f 87/56/30 88/55/26 35/58/29 36/59/31
f 86/60/32 87/56/30 36/59/31 37/63/33
f 85/92/34 86/60/32 37/63/33 38/95/35
f 84/96/36 85/92/34 38/95/35 39/99/37
f 83/15/38 84/96/36 39/99/37 40/19/39
f 40/19/39 41/16/40 82/12/41 83/15/38
f 41/16/40 34/17/28 89/13/27 82/12/41
f 64/26/42 65/21/43 90/25/44 91/29/45
f 63/62/46 64/61/42 91/64/45 92/65/47
f 62/66/48 63/62/46 92/65/47 93/69/49
f 61/98/50 62/66/48 93/69/49 94/101/51
f 60/102/52 61/98/50 94/101/51 95/105/53
f 59/23/54 60/102/52 95/105/53 96/97/55
f 96/97/55 97/24/56 58/20/57 59/23/54
f 97/24/56 90/25/44 65/21/43 58/20/57
f 72/35/58 73/31/59 50/34/60 51/40/61
f 71/71/62 72/70/58 51/73/61 52/74/63
f 70/75/64 71/71/62 52/74/63 53/78/65
f 69/107/66 70/75/64 53/78/65 54/110/67
f 68/111/68 69/107/66 54/110/67 55/114/69
f 67/36/70 68/111/68 55/114/69 56/41/71
f 56/41/71 57/33/72 66/30/73 67/36/70
f 57/33/72 50/34/60 73/31/59 66/30/73
f 51/40/61 50/34/60 74/39/74 75/44/75
f 52/74/63 51/73/61 75/76/75 76/77/76
f 53/78/65 52/74/63 76/77/76 77/81/77
f 54/110/67 53/78/65 77/81/77 78/113/78
f 55/114/69 54/110/67 78/113/78 79/117/79
f 56/41/71 55/114/69 79/117/79 80/45/80
f 80/45/80 81/38/81 57/33/72 56/41/71
f 81/38/81 74/39/74 50/34/60 57/33/72
f 59/23/54 58/20/57 41/16/40 40/19/39
f 40/19/39 39/99/37 60/102/52 59/23/54
f 39/99/37 38/95/35 61/98/50 60/102/52
f 38/95/35 37/63/33 62/66/48 61/98/50
f 37/63/33 36/59/31 63/62/46 62/66/48
f 36/59/31 35/58/29 64/61/42 63/62/46
f 35/22/29 34/17/28 65/21/43 64/26/42
f 58/20/57 65/21/43 34/17/28 41/16/40
f 67/36/70 66/30/73 49/27/82 48/37/83
f 48/37/83 47/108/84 68/111/68 67/36/70
f 47/108/84 46/104/85 69/107/66 68/111/68
f 46/104/85 45/72/86 70/75/64 69/107/66
f 45/72/86 44/68/87 71/71/62 70/75/64
f 44/68/87 43/67/88 72/70/58 71/71/62
f 43/32/88 42/28/89 73/31/59 72/35/58
f 66/30/73 73/31/59 42/28/89 49/27/82
f 75/44/75 74/39/74 8/43/90 6/46/91
f 76/77/76 75/76/75 6/79/91 7/80/92
f 77/81/77 76/77/76 7/80/92 5/82/93
f 78/113/78 77/81/77 5/82/93 4/116/94
f 79/117/79 78/113/78 4/116/94 3/118/95
f 80/45/80 79/117/79 3/118/95 2/100/96
f 2/100/96 1/42/97 81/38/81 80/45/80
f 1/42/97 8/43/90 74/39/74 81/38/81
f 83/15/38 82/12/41 33/7/25 32/11/24
f 32/11/24 31/86/23 84/96/36 83/15/38
f 31/93/23 30/88/22 85/92/34 84/96/36
f 30/88/22 29/57/21 86/60/32 85/92/34
f 29/57/21 28/52/20 87/56/30 86/60/32
f 28/52/20 27/51/19 88/55/26 87/56/30
f 27/14/19 26/8/18 89/13/27 88/18/26
f 82/12/41 89/13/27 26/8/18 33/7/25
f 91/29/45 90/25/44 42/28/89 43/32/88
f 92/65/47 91/64/45 43/67/88 44/68/87
f 93/69/49 92/65/47 44/68/87 45/72/86
f 94/101/51 93/69/49 45/72/86 46/104/85
f 95/105/53 94/101/51 46/104/85 47/108/84
f 96/97/55 95/105/53 47/108/84 48/37/83
f 48/37/83 49/27/82 97/24/56 96/97/55
f 49/27/82 42/28/89 90/25/44 97/24/56
